%TF.GenerationSoftware,KiCad,Pcbnew,8.0.0*%
%TF.CreationDate,2024-04-01T00:39:20-03:00*%
%TF.ProjectId,ponderada_sem_6,706f6e64-6572-4616-9461-5f73656d5f36,rev?*%
%TF.SameCoordinates,Original*%
%TF.FileFunction,Copper,L1,Top*%
%TF.FilePolarity,Positive*%
%FSLAX46Y46*%
G04 Gerber Fmt 4.6, Leading zero omitted, Abs format (unit mm)*
G04 Created by KiCad (PCBNEW 8.0.0) date 2024-04-01 00:39:20*
%MOMM*%
%LPD*%
G01*
G04 APERTURE LIST*
%TA.AperFunction,ComponentPad*%
%ADD10R,1.050000X1.500000*%
%TD*%
%TA.AperFunction,ComponentPad*%
%ADD11O,1.050000X1.500000*%
%TD*%
%TA.AperFunction,SMDPad,CuDef*%
%ADD12R,0.720000X0.600000*%
%TD*%
%TA.AperFunction,ComponentPad*%
%ADD13R,1.600000X1.600000*%
%TD*%
%TA.AperFunction,ComponentPad*%
%ADD14C,1.600000*%
%TD*%
%TA.AperFunction,ComponentPad*%
%ADD15O,1.700000X1.700000*%
%TD*%
%TA.AperFunction,SMDPad,CuDef*%
%ADD16R,3.500000X1.700000*%
%TD*%
%TA.AperFunction,ComponentPad*%
%ADD17R,1.700000X1.700000*%
%TD*%
%TA.AperFunction,SMDPad,CuDef*%
%ADD18R,1.700000X3.500000*%
%TD*%
%TA.AperFunction,ComponentPad*%
%ADD19R,0.850000X0.850000*%
%TD*%
%TA.AperFunction,ComponentPad*%
%ADD20R,1.800000X1.800000*%
%TD*%
%TA.AperFunction,ComponentPad*%
%ADD21C,1.800000*%
%TD*%
%TA.AperFunction,ComponentPad*%
%ADD22C,1.400000*%
%TD*%
%TA.AperFunction,ComponentPad*%
%ADD23O,1.400000X1.400000*%
%TD*%
%TA.AperFunction,Conductor*%
%ADD24C,0.200000*%
%TD*%
G04 APERTURE END LIST*
D10*
%TO.P,T1,1,E*%
%TO.N,Net-(T1-E)*%
X90460000Y-78375000D03*
D11*
%TO.P,T1,2,C*%
%TO.N,Net-(BZ1--)*%
X91730000Y-78375000D03*
%TO.P,T1,3,B*%
%TO.N,Net-(T1-B)*%
X93000000Y-78375000D03*
%TD*%
D12*
%TO.P,RGB_Sensor1,1,SDA*%
%TO.N,Net-(RGB_Sensor1-SDA)*%
X95832500Y-58077500D03*
%TO.P,RGB_Sensor1,2,INT*%
%TO.N,unconnected-(RGB_Sensor1-INT-Pad2)*%
X94862500Y-58077500D03*
%TO.P,RGB_Sensor1,3,LDR*%
%TO.N,unconnected-(RGB_Sensor1-LDR-Pad3)*%
X93892500Y-58077500D03*
%TO.P,RGB_Sensor1,4,LED_K*%
%TO.N,unconnected-(RGB_Sensor1-LED_K-Pad4)*%
X92922500Y-58077500D03*
%TO.P,RGB_Sensor1,5,LED_A*%
%TO.N,unconnected-(RGB_Sensor1-LED_A-Pad5)*%
X92922500Y-56677500D03*
%TO.P,RGB_Sensor1,6,GND*%
%TO.N,Net-(RGB_Sensor1-GND)*%
X93892500Y-56677500D03*
%TO.P,RGB_Sensor1,7,SCL*%
%TO.N,Net-(RGB_Sensor1-SCL)*%
X94862500Y-56677500D03*
%TO.P,RGB_Sensor1,8,VDD*%
%TO.N,Net-(RGB_Sensor1-VDD)*%
X95832500Y-56677500D03*
%TD*%
D13*
%TO.P,BZ1,1,+*%
%TO.N,Net-(BZ1-+)*%
X95500000Y-91300000D03*
D14*
%TO.P,BZ1,2,-*%
%TO.N,Net-(BZ1--)*%
X95500000Y-83700000D03*
%TD*%
D15*
%TO.P,U1,1,GPIO0*%
%TO.N,unconnected-(U1-GPIO0-Pad1)*%
X64255000Y-46005000D03*
D16*
X63355000Y-46005000D03*
D15*
%TO.P,U1,2,GPIO1*%
%TO.N,unconnected-(U1-GPIO1-Pad2)*%
X64255000Y-48545000D03*
D16*
X63355000Y-48545000D03*
D17*
%TO.P,U1,3,GND*%
%TO.N,unconnected-(U1-GND-Pad3)*%
X64255000Y-51085000D03*
D16*
X63355000Y-51085000D03*
D15*
%TO.P,U1,4,GPIO2*%
%TO.N,unconnected-(U1-GPIO2-Pad4)*%
X64255000Y-53625000D03*
D16*
X63355000Y-53625000D03*
D15*
%TO.P,U1,5,GPIO3*%
%TO.N,unconnected-(U1-GPIO3-Pad5)*%
X64255000Y-56165000D03*
D16*
X63355000Y-56165000D03*
D15*
%TO.P,U1,6,GPIO4*%
%TO.N,Net-(D1-A)*%
X64255000Y-58705000D03*
D16*
X63355000Y-58705000D03*
D15*
%TO.P,U1,7,GPIO5*%
%TO.N,unconnected-(U1-GPIO5-Pad7)*%
X64255000Y-61245000D03*
D16*
X63355000Y-61245000D03*
D17*
%TO.P,U1,8,GND*%
%TO.N,unconnected-(U1-GND-Pad8)*%
X64255000Y-63785000D03*
D16*
X63355000Y-63785000D03*
D15*
%TO.P,U1,9,GPIO6*%
%TO.N,Net-(D2-A)*%
X64255000Y-66325000D03*
D16*
X63355000Y-66325000D03*
D15*
%TO.P,U1,10,GPIO7*%
%TO.N,unconnected-(U1-GPIO7-Pad10)*%
X64255000Y-68865000D03*
D16*
X63355000Y-68865000D03*
D15*
%TO.P,U1,11,GPIO8*%
%TO.N,unconnected-(U1-GPIO8-Pad11)*%
X64255000Y-71405000D03*
D16*
X63355000Y-71405000D03*
D15*
%TO.P,U1,12,GPIO9*%
%TO.N,Net-(D3-A)*%
X64255000Y-73945000D03*
D16*
X63355000Y-73945000D03*
D17*
%TO.P,U1,13,GND*%
%TO.N,unconnected-(U1-GND-Pad13)*%
X64255000Y-76485000D03*
D16*
X63355000Y-76485000D03*
D15*
%TO.P,U1,14,GPIO10*%
%TO.N,unconnected-(U1-GPIO10-Pad14)*%
X64255000Y-79025000D03*
D16*
X63355000Y-79025000D03*
D15*
%TO.P,U1,15,GPIO11*%
%TO.N,unconnected-(U1-GPIO11-Pad15)*%
X64255000Y-81565000D03*
D16*
X63355000Y-81565000D03*
D15*
%TO.P,U1,16,GPIO12*%
%TO.N,unconnected-(U1-GPIO12-Pad16)*%
X64255000Y-84105000D03*
D16*
X63355000Y-84105000D03*
D15*
%TO.P,U1,17,GPIO13*%
%TO.N,unconnected-(U1-GPIO13-Pad17)*%
X64255000Y-86645000D03*
D16*
X63355000Y-86645000D03*
D17*
%TO.P,U1,18,GND*%
%TO.N,unconnected-(U1-GND-Pad18)*%
X64255000Y-89185000D03*
D16*
X63355000Y-89185000D03*
D15*
%TO.P,U1,19,GPIO14*%
%TO.N,unconnected-(U1-GPIO14-Pad19)*%
X64255000Y-91725000D03*
D16*
X63355000Y-91725000D03*
D15*
%TO.P,U1,20,GPIO15*%
%TO.N,unconnected-(U1-GPIO15-Pad20)*%
X64255000Y-94265000D03*
D16*
X63355000Y-94265000D03*
D15*
%TO.P,U1,21,GPIO16*%
%TO.N,Net-(J1-Pin_1)*%
X82035000Y-94265000D03*
D16*
X82935000Y-94265000D03*
D15*
%TO.P,U1,22,GPIO17*%
%TO.N,unconnected-(U1-GPIO17-Pad22)*%
X82035000Y-91725000D03*
D16*
X82935000Y-91725000D03*
D17*
%TO.P,U1,23,GND*%
%TO.N,unconnected-(U1-GND-Pad23)*%
X82035000Y-89185000D03*
D16*
X82935000Y-89185000D03*
D15*
%TO.P,U1,24,GPIO18*%
%TO.N,unconnected-(U1-GPIO18-Pad24)*%
X82035000Y-86645000D03*
D16*
X82935000Y-86645000D03*
D15*
%TO.P,U1,25,GPIO19*%
%TO.N,unconnected-(U1-GPIO19-Pad25)*%
X82035000Y-84105000D03*
D16*
X82935000Y-84105000D03*
D15*
%TO.P,U1,26,GPIO20*%
%TO.N,unconnected-(U1-GPIO20-Pad26)*%
X82035000Y-81565000D03*
D16*
X82935000Y-81565000D03*
D15*
%TO.P,U1,27,GPIO21*%
%TO.N,unconnected-(U1-GPIO21-Pad27)*%
X82035000Y-79025000D03*
D16*
X82935000Y-79025000D03*
D17*
%TO.P,U1,28,GND*%
%TO.N,Net-(T1-E)*%
X82035000Y-76485000D03*
D16*
X82935000Y-76485000D03*
D15*
%TO.P,U1,29,GPIO22*%
%TO.N,Net-(U1-GPIO22)*%
X82035000Y-73945000D03*
D16*
X82935000Y-73945000D03*
D15*
%TO.P,U1,30,RUN*%
%TO.N,unconnected-(U1-RUN-Pad30)*%
X82035000Y-71405000D03*
D16*
X82935000Y-71405000D03*
D15*
%TO.P,U1,31,GPIO26_ADC0*%
%TO.N,Net-(RGB_Sensor1-SDA)*%
X82035000Y-68865000D03*
D16*
X82935000Y-68865000D03*
D15*
%TO.P,U1,32,GPIO27_ADC1*%
%TO.N,Net-(RGB_Sensor1-SCL)*%
X82035000Y-66325000D03*
D16*
X82935000Y-66325000D03*
D17*
%TO.P,U1,33,AGND*%
%TO.N,unconnected-(U1-AGND-Pad33)*%
X82035000Y-63785000D03*
D16*
X82935000Y-63785000D03*
D15*
%TO.P,U1,34,GPIO28_ADC2*%
%TO.N,unconnected-(U1-GPIO28_ADC2-Pad34)*%
X82035000Y-61245000D03*
D16*
X82935000Y-61245000D03*
D15*
%TO.P,U1,35,ADC_VREF*%
%TO.N,unconnected-(U1-ADC_VREF-Pad35)*%
X82035000Y-58705000D03*
D16*
X82935000Y-58705000D03*
D15*
%TO.P,U1,36,3V3*%
%TO.N,Net-(RGB_Sensor1-VDD)*%
X82035000Y-56165000D03*
D16*
X82935000Y-56165000D03*
D15*
%TO.P,U1,37,3V3_EN*%
%TO.N,unconnected-(U1-3V3_EN-Pad37)*%
X82035000Y-53625000D03*
D16*
X82935000Y-53625000D03*
D17*
%TO.P,U1,38,GND*%
%TO.N,Net-(RGB_Sensor1-GND)*%
X82035000Y-51085000D03*
D16*
X82935000Y-51085000D03*
D15*
%TO.P,U1,39,VSYS*%
%TO.N,unconnected-(U1-VSYS-Pad39)*%
X82035000Y-48545000D03*
D16*
X82935000Y-48545000D03*
D15*
%TO.P,U1,40,VBUS*%
%TO.N,unconnected-(U1-VBUS-Pad40)*%
X82035000Y-46005000D03*
D16*
X82935000Y-46005000D03*
D15*
%TO.P,U1,41,SWCLK*%
%TO.N,unconnected-(U1-SWCLK-Pad41)*%
X70605000Y-94035000D03*
D18*
X70605000Y-94935000D03*
D17*
%TO.P,U1,42,GND*%
%TO.N,unconnected-(U1-GND-Pad42)*%
X73145000Y-94035000D03*
D18*
X73145000Y-94935000D03*
D15*
%TO.P,U1,43,SWDIO*%
%TO.N,unconnected-(U1-SWDIO-Pad43)*%
X75685000Y-94035000D03*
D18*
X75685000Y-94935000D03*
%TD*%
D19*
%TO.P,J1,1,Pin_1*%
%TO.N,Net-(J1-Pin_1)*%
X89500000Y-94500000D03*
%TD*%
D20*
%TO.P,D3,1,K*%
%TO.N,Net-(D3-K)*%
X55225000Y-74000000D03*
D21*
%TO.P,D3,2,A*%
%TO.N,Net-(D3-A)*%
X57765000Y-74000000D03*
%TD*%
D20*
%TO.P,D2,1,K*%
%TO.N,Net-(D2-K)*%
X55225000Y-66500000D03*
D21*
%TO.P,D2,2,A*%
%TO.N,Net-(D2-A)*%
X57765000Y-66500000D03*
%TD*%
D20*
%TO.P,D1,1,K*%
%TO.N,Net-(D1-K)*%
X55225000Y-58500000D03*
D21*
%TO.P,D1,2,A*%
%TO.N,Net-(D1-A)*%
X57765000Y-58500000D03*
%TD*%
D22*
%TO.P,R4,1*%
%TO.N,Net-(T1-B)*%
X96810000Y-73500000D03*
D23*
%TO.P,R4,2*%
%TO.N,Net-(U1-GPIO22)*%
X89190000Y-73500000D03*
%TD*%
D22*
%TO.P,R5,1*%
%TO.N,Net-(BZ1-+)*%
X100000000Y-80310000D03*
D23*
%TO.P,R5,2*%
%TO.N,Net-(RGB_Sensor1-VDD)*%
X100000000Y-72690000D03*
%TD*%
D22*
%TO.P,R1,1*%
%TO.N,Net-(D3-K)*%
X52000000Y-76310000D03*
D23*
%TO.P,R1,2*%
%TO.N,Net-(RGB_Sensor1-VDD)*%
X52000000Y-68690000D03*
%TD*%
D22*
%TO.P,R2,1*%
%TO.N,Net-(D2-K)*%
X52000000Y-65310000D03*
D23*
%TO.P,R2,2*%
%TO.N,Net-(RGB_Sensor1-VDD)*%
X52000000Y-57690000D03*
%TD*%
D22*
%TO.P,R3,1*%
%TO.N,Net-(D1-K)*%
X58810000Y-54000000D03*
D23*
%TO.P,R3,2*%
%TO.N,Net-(RGB_Sensor1-VDD)*%
X51190000Y-54000000D03*
%TD*%
D24*
%TO.N,Net-(RGB_Sensor1-VDD)*%
X95500000Y-53500000D02*
X86000000Y-53500000D01*
X86000000Y-53760000D02*
X83595000Y-56165000D01*
X83595000Y-56165000D02*
X82035000Y-56165000D01*
X97000000Y-55000000D02*
X95500000Y-53500000D01*
X86000000Y-53500000D02*
X86000000Y-53760000D01*
X84335000Y-56165000D02*
X82035000Y-56165000D01*
X86000000Y-54500000D02*
X84335000Y-56165000D01*
X95832500Y-56677500D02*
X95832500Y-56177500D01*
X95832500Y-56177500D02*
X94155000Y-54500000D01*
X94155000Y-54500000D02*
X86000000Y-54500000D01*
X50490000Y-54700000D02*
X52000000Y-53190000D01*
X50490000Y-56000000D02*
X50490000Y-54700000D01*
X50490000Y-56000000D02*
X50490000Y-56180000D01*
X52000000Y-57690000D02*
X52000000Y-53190000D01*
X52345000Y-52845000D02*
X60335000Y-44855000D01*
X51190000Y-54000000D02*
X52345000Y-52845000D01*
X52000000Y-53190000D02*
X52345000Y-52845000D01*
X51190000Y-54000000D02*
X50490000Y-54700000D01*
%TO.N,Net-(T1-B)*%
X93000000Y-77310000D02*
X96810000Y-73500000D01*
X93000000Y-78375000D02*
X93000000Y-77310000D01*
%TO.N,Net-(BZ1--)*%
X91730000Y-78600000D02*
X94005000Y-80875000D01*
X91730000Y-78375000D02*
X91730000Y-78600000D01*
X94005000Y-80875000D02*
X95500000Y-80875000D01*
%TO.N,Net-(RGB_Sensor1-SDA)*%
X85545000Y-68865000D02*
X82035000Y-68865000D01*
X95832500Y-58577500D02*
X85545000Y-68865000D01*
X95832500Y-58077500D02*
X95832500Y-58577500D01*
%TO.N,Net-(RGB_Sensor1-SCL)*%
X90882500Y-57477500D02*
X84985000Y-63375000D01*
X83595000Y-66325000D02*
X82035000Y-66325000D01*
X94522500Y-57477500D02*
X90882500Y-57477500D01*
X94862500Y-57137500D02*
X94522500Y-57477500D01*
X84985000Y-64935000D02*
X83595000Y-66325000D01*
X94862500Y-56677500D02*
X94862500Y-57137500D01*
X84985000Y-63375000D02*
X84985000Y-64935000D01*
%TO.N,Net-(RGB_Sensor1-GND)*%
X80885000Y-52235000D02*
X82035000Y-51085000D01*
X80885000Y-57315000D02*
X80885000Y-52235000D01*
X93430000Y-55715000D02*
X86585000Y-55715000D01*
X93892500Y-56177500D02*
X93430000Y-55715000D01*
X86585000Y-55715000D02*
X84985000Y-57315000D01*
X84985000Y-57315000D02*
X80885000Y-57315000D01*
X93892500Y-56677500D02*
X93892500Y-56177500D01*
%TO.N,Net-(RGB_Sensor1-VDD)*%
X82885000Y-55315000D02*
X82035000Y-56165000D01*
X97000000Y-57555000D02*
X97000000Y-55000000D01*
X100000000Y-72690000D02*
X100000000Y-60555000D01*
X100000000Y-60555000D02*
X97000000Y-57555000D01*
%TO.N,unconnected-(U1-GND-Pad23)*%
X83595000Y-89185000D02*
X82035000Y-89185000D01*
%TO.N,Net-(J1-Pin_1)*%
X82270000Y-94500000D02*
X82035000Y-94265000D01*
X89500000Y-94500000D02*
X82270000Y-94500000D01*
%TO.N,Net-(RGB_Sensor1-VDD)*%
X84855000Y-44855000D02*
X84985000Y-44985000D01*
X60335000Y-44855000D02*
X84855000Y-44855000D01*
X84985000Y-44985000D02*
X84985000Y-54775000D01*
X84985000Y-54775000D02*
X83595000Y-56165000D01*
%TO.N,Net-(D1-K)*%
X55225000Y-58500000D02*
X55225000Y-57585000D01*
X55225000Y-57585000D02*
X58810000Y-54000000D01*
%TO.N,Net-(D1-A)*%
X64050000Y-58500000D02*
X64255000Y-58705000D01*
X57765000Y-58500000D02*
X64050000Y-58500000D01*
%TO.N,Net-(D2-K)*%
X54035000Y-65310000D02*
X55225000Y-66500000D01*
X52000000Y-65310000D02*
X54035000Y-65310000D01*
%TO.N,Net-(RGB_Sensor1-VDD)*%
X50490000Y-67180000D02*
X50490000Y-54700000D01*
X52000000Y-68690000D02*
X50490000Y-67180000D01*
%TO.N,Net-(D3-K)*%
X54310000Y-74000000D02*
X52000000Y-76310000D01*
X55225000Y-74000000D02*
X54310000Y-74000000D01*
%TO.N,Net-(D3-A)*%
X57765000Y-74000000D02*
X64200000Y-74000000D01*
X64200000Y-74000000D02*
X64255000Y-73945000D01*
%TO.N,Net-(D2-A)*%
X64080000Y-66500000D02*
X64255000Y-66325000D01*
X57765000Y-66500000D02*
X64080000Y-66500000D01*
%TO.N,Net-(T1-E)*%
X88570000Y-76485000D02*
X82035000Y-76485000D01*
X90460000Y-78375000D02*
X88570000Y-76485000D01*
%TO.N,Net-(BZ1--)*%
X95500000Y-83700000D02*
X95500000Y-80875000D01*
%TO.N,Net-(BZ1-+)*%
X100000000Y-80310000D02*
X100000000Y-86800000D01*
X100000000Y-86800000D02*
X95500000Y-91300000D01*
%TO.N,Net-(U1-GPIO22)*%
X82480000Y-73500000D02*
X82035000Y-73945000D01*
X89190000Y-73500000D02*
X82480000Y-73500000D01*
%TD*%
%TA.AperFunction,Conductor*%
%TO.N,unconnected-(U1-AGND-Pad33)*%
G36*
X83128039Y-63554685D02*
G01*
X83173794Y-63607489D01*
X83185000Y-63659000D01*
X83185000Y-63911000D01*
X83165315Y-63978039D01*
X83112511Y-64023794D01*
X83061000Y-64035000D01*
X82479560Y-64035000D01*
X82510245Y-63981853D01*
X82545000Y-63852143D01*
X82545000Y-63717857D01*
X82510245Y-63588147D01*
X82479560Y-63535000D01*
X83061000Y-63535000D01*
X83128039Y-63554685D01*
G37*
%TD.AperFunction*%
%TA.AperFunction,Conductor*%
G36*
X102941896Y-43019685D02*
G01*
X102987651Y-43072489D01*
X102998852Y-43125138D01*
X102501116Y-97378259D01*
X102480817Y-97445115D01*
X102427596Y-97490383D01*
X102378259Y-97501116D01*
X48125138Y-97998851D01*
X48057920Y-97979782D01*
X48011683Y-97927400D01*
X48000000Y-97874856D01*
X48000000Y-67259054D01*
X49889498Y-67259054D01*
X49930424Y-67411789D01*
X49930425Y-67411790D01*
X49951257Y-67447871D01*
X49951258Y-67447873D01*
X50009475Y-67548709D01*
X50009481Y-67548717D01*
X50128349Y-67667585D01*
X50128355Y-67667590D01*
X50788685Y-68327920D01*
X50822170Y-68389243D01*
X50820271Y-68449532D01*
X50814885Y-68468462D01*
X50794357Y-68689999D01*
X50794357Y-68690000D01*
X50814884Y-68911535D01*
X50814885Y-68911537D01*
X50875769Y-69125523D01*
X50875775Y-69125538D01*
X50974938Y-69324683D01*
X50974943Y-69324691D01*
X51109020Y-69502238D01*
X51273437Y-69652123D01*
X51273439Y-69652125D01*
X51462595Y-69769245D01*
X51462596Y-69769245D01*
X51462599Y-69769247D01*
X51670060Y-69849618D01*
X51888757Y-69890500D01*
X51888759Y-69890500D01*
X52111241Y-69890500D01*
X52111243Y-69890500D01*
X52329940Y-69849618D01*
X52537401Y-69769247D01*
X52726562Y-69652124D01*
X52890981Y-69502236D01*
X53025058Y-69324689D01*
X53124229Y-69125528D01*
X53185115Y-68911536D01*
X53205643Y-68690000D01*
X53185115Y-68468464D01*
X53124229Y-68254472D01*
X53072314Y-68150213D01*
X53025061Y-68055316D01*
X53025056Y-68055308D01*
X52890979Y-67877761D01*
X52726562Y-67727876D01*
X52726560Y-67727874D01*
X52537404Y-67610754D01*
X52537398Y-67610752D01*
X52519577Y-67603848D01*
X52329940Y-67530382D01*
X52111243Y-67489500D01*
X51888757Y-67489500D01*
X51832629Y-67499992D01*
X51750783Y-67515291D01*
X51681268Y-67508259D01*
X51640318Y-67481083D01*
X51126819Y-66967584D01*
X51093334Y-66906261D01*
X51090500Y-66879903D01*
X51090500Y-66381476D01*
X51110185Y-66314437D01*
X51162989Y-66268682D01*
X51232147Y-66258738D01*
X51279777Y-66276049D01*
X51462595Y-66389245D01*
X51462596Y-66389245D01*
X51462599Y-66389247D01*
X51670060Y-66469618D01*
X51888757Y-66510500D01*
X51888759Y-66510500D01*
X52111241Y-66510500D01*
X52111243Y-66510500D01*
X52329940Y-66469618D01*
X52537401Y-66389247D01*
X52726562Y-66272124D01*
X52890981Y-66122236D01*
X53013667Y-65959772D01*
X53069776Y-65918137D01*
X53112621Y-65910500D01*
X53700500Y-65910500D01*
X53767539Y-65930185D01*
X53813294Y-65982989D01*
X53824500Y-66034500D01*
X53824500Y-67447870D01*
X53824501Y-67447871D01*
X53830908Y-67507483D01*
X53881202Y-67642328D01*
X53881206Y-67642335D01*
X53967452Y-67757544D01*
X53967455Y-67757547D01*
X54082664Y-67843793D01*
X54082671Y-67843797D01*
X54217517Y-67894091D01*
X54217516Y-67894091D01*
X54224444Y-67894835D01*
X54277127Y-67900500D01*
X56172872Y-67900499D01*
X56232483Y-67894091D01*
X56367331Y-67843796D01*
X56482546Y-67757546D01*
X56568796Y-67642331D01*
X56568798Y-67642326D01*
X56597455Y-67565493D01*
X56639326Y-67509559D01*
X56704790Y-67485141D01*
X56773063Y-67499992D01*
X56804866Y-67524843D01*
X56811958Y-67532546D01*
X56813215Y-67533912D01*
X56813222Y-67533918D01*
X56996365Y-67676464D01*
X56996371Y-67676468D01*
X56996374Y-67676470D01*
X57200497Y-67786936D01*
X57314487Y-67826068D01*
X57420015Y-67862297D01*
X57420017Y-67862297D01*
X57420019Y-67862298D01*
X57648951Y-67900500D01*
X57648952Y-67900500D01*
X57881048Y-67900500D01*
X57881049Y-67900500D01*
X58109981Y-67862298D01*
X58329503Y-67786936D01*
X58533626Y-67676470D01*
X58545042Y-67667585D01*
X58618058Y-67610754D01*
X58716784Y-67533913D01*
X58873979Y-67363153D01*
X59000924Y-67168849D01*
X59000926Y-67168843D01*
X59002747Y-67165481D01*
X59051967Y-67115891D01*
X59111801Y-67100500D01*
X60980501Y-67100500D01*
X61047540Y-67120185D01*
X61093295Y-67172989D01*
X61103437Y-67219611D01*
X61104099Y-67219576D01*
X61104146Y-67219571D01*
X61104146Y-67219573D01*
X61104324Y-67219564D01*
X61104501Y-67222876D01*
X61110908Y-67282483D01*
X61161202Y-67417328D01*
X61161203Y-67417330D01*
X61238578Y-67520689D01*
X61262995Y-67586153D01*
X61248144Y-67654426D01*
X61238578Y-67669311D01*
X61161203Y-67772669D01*
X61161202Y-67772671D01*
X61110908Y-67907517D01*
X61104501Y-67967116D01*
X61104501Y-67967123D01*
X61104500Y-67967135D01*
X61104500Y-69762870D01*
X61104501Y-69762876D01*
X61110908Y-69822483D01*
X61161202Y-69957328D01*
X61161203Y-69957330D01*
X61238578Y-70060689D01*
X61262995Y-70126153D01*
X61248144Y-70194426D01*
X61238578Y-70209311D01*
X61161203Y-70312669D01*
X61161202Y-70312671D01*
X61110908Y-70447517D01*
X61104501Y-70507116D01*
X61104501Y-70507123D01*
X61104500Y-70507135D01*
X61104500Y-72302870D01*
X61104501Y-72302876D01*
X61110908Y-72362483D01*
X61161202Y-72497328D01*
X61161203Y-72497330D01*
X61238578Y-72600689D01*
X61262995Y-72666153D01*
X61248144Y-72734426D01*
X61238578Y-72749311D01*
X61161203Y-72852669D01*
X61161202Y-72852671D01*
X61110908Y-72987517D01*
X61108368Y-73011148D01*
X61104501Y-73047123D01*
X61104500Y-73047135D01*
X61104500Y-73275500D01*
X61084815Y-73342539D01*
X61032011Y-73388294D01*
X60980500Y-73399500D01*
X59111801Y-73399500D01*
X59044762Y-73379815D01*
X59002747Y-73334519D01*
X59000924Y-73331151D01*
X58873983Y-73136852D01*
X58873980Y-73136849D01*
X58873979Y-73136847D01*
X58716784Y-72966087D01*
X58716779Y-72966083D01*
X58716777Y-72966081D01*
X58533634Y-72823535D01*
X58533628Y-72823531D01*
X58329504Y-72713064D01*
X58329495Y-72713061D01*
X58109984Y-72637702D01*
X57919450Y-72605908D01*
X57881049Y-72599500D01*
X57648951Y-72599500D01*
X57610550Y-72605908D01*
X57420015Y-72637702D01*
X57200504Y-72713061D01*
X57200495Y-72713064D01*
X56996371Y-72823531D01*
X56996365Y-72823535D01*
X56813222Y-72966081D01*
X56813218Y-72966085D01*
X56804866Y-72975158D01*
X56744979Y-73011148D01*
X56675141Y-73009047D01*
X56617525Y-72969522D01*
X56597455Y-72934507D01*
X56568797Y-72857671D01*
X56568793Y-72857664D01*
X56482547Y-72742455D01*
X56482544Y-72742452D01*
X56367335Y-72656206D01*
X56367328Y-72656202D01*
X56232482Y-72605908D01*
X56232483Y-72605908D01*
X56172883Y-72599501D01*
X56172881Y-72599500D01*
X56172873Y-72599500D01*
X56172864Y-72599500D01*
X54277129Y-72599500D01*
X54277123Y-72599501D01*
X54217516Y-72605908D01*
X54082671Y-72656202D01*
X54082664Y-72656206D01*
X53967455Y-72742452D01*
X53967452Y-72742455D01*
X53881206Y-72857664D01*
X53881202Y-72857671D01*
X53830908Y-72992517D01*
X53824501Y-73052116D01*
X53824500Y-73052135D01*
X53824500Y-73584902D01*
X53804815Y-73651941D01*
X53788181Y-73672583D01*
X52359680Y-75101083D01*
X52298357Y-75134568D01*
X52249215Y-75135291D01*
X52216442Y-75129164D01*
X52111243Y-75109500D01*
X51888757Y-75109500D01*
X51670060Y-75150382D01*
X51538864Y-75201207D01*
X51462601Y-75230752D01*
X51462595Y-75230754D01*
X51273439Y-75347874D01*
X51273437Y-75347876D01*
X51109020Y-75497761D01*
X50974943Y-75675308D01*
X50974938Y-75675316D01*
X50875775Y-75874461D01*
X50875769Y-75874476D01*
X50814885Y-76088462D01*
X50814884Y-76088464D01*
X50794357Y-76309999D01*
X50794357Y-76310000D01*
X50814884Y-76531535D01*
X50814885Y-76531537D01*
X50875769Y-76745523D01*
X50875775Y-76745538D01*
X50974938Y-76944683D01*
X50974943Y-76944691D01*
X51109020Y-77122238D01*
X51273437Y-77272123D01*
X51273439Y-77272125D01*
X51462595Y-77389245D01*
X51462596Y-77389245D01*
X51462599Y-77389247D01*
X51670060Y-77469618D01*
X51888757Y-77510500D01*
X51888759Y-77510500D01*
X52111241Y-77510500D01*
X52111243Y-77510500D01*
X52329940Y-77469618D01*
X52537401Y-77389247D01*
X52726562Y-77272124D01*
X52881468Y-77130908D01*
X52890979Y-77122238D01*
X52891296Y-77121819D01*
X53025058Y-76944689D01*
X53026754Y-76941284D01*
X53124224Y-76745538D01*
X53124223Y-76745538D01*
X53124229Y-76745528D01*
X53185115Y-76531536D01*
X53205643Y-76310000D01*
X53185115Y-76088464D01*
X53179729Y-76069534D01*
X53180315Y-75999669D01*
X53211312Y-75947921D01*
X53853868Y-75305365D01*
X53915189Y-75271882D01*
X53984881Y-75276866D01*
X54015858Y-75293781D01*
X54082669Y-75343796D01*
X54082671Y-75343797D01*
X54217517Y-75394091D01*
X54217516Y-75394091D01*
X54224444Y-75394835D01*
X54277127Y-75400500D01*
X56172872Y-75400499D01*
X56232483Y-75394091D01*
X56367331Y-75343796D01*
X56482546Y-75257546D01*
X56568796Y-75142331D01*
X56568798Y-75142326D01*
X56597455Y-75065493D01*
X56639326Y-75009559D01*
X56704790Y-74985141D01*
X56773063Y-74999992D01*
X56804866Y-75024843D01*
X56812302Y-75032920D01*
X56813215Y-75033912D01*
X56813222Y-75033918D01*
X56996365Y-75176464D01*
X56996371Y-75176468D01*
X56996374Y-75176470D01*
X57200497Y-75286936D01*
X57254185Y-75305367D01*
X57420015Y-75362297D01*
X57420017Y-75362297D01*
X57420019Y-75362298D01*
X57648951Y-75400500D01*
X57648952Y-75400500D01*
X57881048Y-75400500D01*
X57881049Y-75400500D01*
X58109981Y-75362298D01*
X58329503Y-75286936D01*
X58533626Y-75176470D01*
X58571103Y-75147301D01*
X58619669Y-75109500D01*
X58716784Y-75033913D01*
X58873979Y-74863153D01*
X59000924Y-74668849D01*
X59000926Y-74668843D01*
X59002747Y-74665481D01*
X59051967Y-74615891D01*
X59111801Y-74600500D01*
X60980501Y-74600500D01*
X61047540Y-74620185D01*
X61093295Y-74672989D01*
X61104501Y-74724500D01*
X61104501Y-74842876D01*
X61110908Y-74902483D01*
X61161202Y-75037328D01*
X61161203Y-75037330D01*
X61238578Y-75140689D01*
X61262995Y-75206153D01*
X61248144Y-75274426D01*
X61238578Y-75289311D01*
X61161203Y-75392669D01*
X61161202Y-75392671D01*
X61110908Y-75527517D01*
X61104501Y-75587116D01*
X61104501Y-75587123D01*
X61104500Y-75587135D01*
X61104500Y-77382870D01*
X61104501Y-77382876D01*
X61110908Y-77442483D01*
X61161202Y-77577328D01*
X61161203Y-77577330D01*
X61238578Y-77680689D01*
X61262995Y-77746153D01*
X61248144Y-77814426D01*
X61238578Y-77829311D01*
X61161203Y-77932669D01*
X61161202Y-77932671D01*
X61110908Y-78067517D01*
X61104501Y-78127116D01*
X61104501Y-78127123D01*
X61104500Y-78127135D01*
X61104500Y-79922870D01*
X61104501Y-79922876D01*
X61110908Y-79982483D01*
X61161202Y-80117328D01*
X61161203Y-80117330D01*
X61238578Y-80220689D01*
X61262995Y-80286153D01*
X61248144Y-80354426D01*
X61238578Y-80369311D01*
X61161203Y-80472669D01*
X61161202Y-80472671D01*
X61110908Y-80607517D01*
X61104501Y-80667116D01*
X61104501Y-80667123D01*
X61104500Y-80667135D01*
X61104500Y-82462870D01*
X61104501Y-82462876D01*
X61110908Y-82522483D01*
X61161202Y-82657328D01*
X61161203Y-82657330D01*
X61238578Y-82760689D01*
X61262995Y-82826153D01*
X61248144Y-82894426D01*
X61238578Y-82909311D01*
X61161203Y-83012669D01*
X61161202Y-83012671D01*
X61110908Y-83147517D01*
X61104501Y-83207116D01*
X61104501Y-83207123D01*
X61104500Y-83207135D01*
X61104500Y-85002870D01*
X61104501Y-85002876D01*
X61110908Y-85062483D01*
X61161202Y-85197328D01*
X61161203Y-85197330D01*
X61238578Y-85300689D01*
X61262995Y-85366153D01*
X61248144Y-85434426D01*
X61238578Y-85449311D01*
X61161203Y-85552669D01*
X61161202Y-85552671D01*
X61110908Y-85687517D01*
X61104501Y-85747116D01*
X61104501Y-85747123D01*
X61104500Y-85747135D01*
X61104500Y-87542870D01*
X61104501Y-87542876D01*
X61110908Y-87602483D01*
X61161202Y-87737328D01*
X61161203Y-87737330D01*
X61238578Y-87840689D01*
X61262995Y-87906153D01*
X61248144Y-87974426D01*
X61238578Y-87989311D01*
X61161203Y-88092669D01*
X61161202Y-88092671D01*
X61110908Y-88227517D01*
X61104501Y-88287116D01*
X61104501Y-88287123D01*
X61104500Y-88287135D01*
X61104500Y-90082870D01*
X61104501Y-90082876D01*
X61110908Y-90142483D01*
X61161202Y-90277328D01*
X61161203Y-90277330D01*
X61238578Y-90380689D01*
X61262995Y-90446153D01*
X61248144Y-90514426D01*
X61238578Y-90529311D01*
X61161203Y-90632669D01*
X61161202Y-90632671D01*
X61110908Y-90767517D01*
X61104501Y-90827116D01*
X61104501Y-90827123D01*
X61104500Y-90827135D01*
X61104500Y-92622870D01*
X61104501Y-92622876D01*
X61110908Y-92682483D01*
X61161202Y-92817328D01*
X61161203Y-92817330D01*
X61238578Y-92920689D01*
X61262995Y-92986153D01*
X61248144Y-93054426D01*
X61238578Y-93069311D01*
X61161203Y-93172669D01*
X61161202Y-93172671D01*
X61110908Y-93307517D01*
X61104501Y-93367116D01*
X61104501Y-93367123D01*
X61104500Y-93367135D01*
X61104500Y-95162870D01*
X61104501Y-95162876D01*
X61110908Y-95222483D01*
X61161202Y-95357328D01*
X61161206Y-95357335D01*
X61247452Y-95472544D01*
X61247455Y-95472547D01*
X61362664Y-95558793D01*
X61362671Y-95558797D01*
X61497517Y-95609091D01*
X61497516Y-95609091D01*
X61504444Y-95609835D01*
X61557127Y-95615500D01*
X64190611Y-95615499D01*
X64201419Y-95615971D01*
X64254999Y-95620659D01*
X64255000Y-95620659D01*
X64255001Y-95620659D01*
X64308580Y-95615971D01*
X64319388Y-95615499D01*
X65152871Y-95615499D01*
X65152872Y-95615499D01*
X65212483Y-95609091D01*
X65347331Y-95558796D01*
X65462546Y-95472546D01*
X65548796Y-95357331D01*
X65599091Y-95222483D01*
X65605500Y-95162873D01*
X65605499Y-94329383D01*
X65605971Y-94318576D01*
X65610659Y-94265000D01*
X65610659Y-94264999D01*
X65605971Y-94211421D01*
X65605499Y-94200613D01*
X65605499Y-94035001D01*
X69249341Y-94035001D01*
X69254028Y-94088574D01*
X69254500Y-94099381D01*
X69254500Y-96732870D01*
X69254501Y-96732876D01*
X69260908Y-96792483D01*
X69311202Y-96927328D01*
X69311206Y-96927335D01*
X69397452Y-97042544D01*
X69397455Y-97042547D01*
X69512664Y-97128793D01*
X69512671Y-97128797D01*
X69647517Y-97179091D01*
X69647516Y-97179091D01*
X69654444Y-97179835D01*
X69707127Y-97185500D01*
X71502872Y-97185499D01*
X71562483Y-97179091D01*
X71697331Y-97128796D01*
X71800690Y-97051421D01*
X71866152Y-97027004D01*
X71934425Y-97041855D01*
X71949303Y-97051416D01*
X72052665Y-97128793D01*
X72052668Y-97128795D01*
X72052671Y-97128797D01*
X72187517Y-97179091D01*
X72187516Y-97179091D01*
X72194444Y-97179835D01*
X72247127Y-97185500D01*
X74042872Y-97185499D01*
X74102483Y-97179091D01*
X74237331Y-97128796D01*
X74340690Y-97051421D01*
X74406152Y-97027004D01*
X74474425Y-97041855D01*
X74489303Y-97051416D01*
X74592665Y-97128793D01*
X74592668Y-97128795D01*
X74592671Y-97128797D01*
X74727517Y-97179091D01*
X74727516Y-97179091D01*
X74734444Y-97179835D01*
X74787127Y-97185500D01*
X76582872Y-97185499D01*
X76642483Y-97179091D01*
X76777331Y-97128796D01*
X76892546Y-97042546D01*
X76978796Y-96927331D01*
X77029091Y-96792483D01*
X77035500Y-96732873D01*
X77035499Y-94099381D01*
X77035971Y-94088578D01*
X77040659Y-94035000D01*
X77040659Y-94034999D01*
X77035971Y-93981418D01*
X77035499Y-93970610D01*
X77035499Y-93137129D01*
X77035498Y-93137123D01*
X77035497Y-93137116D01*
X77029091Y-93077517D01*
X77026030Y-93069311D01*
X76978797Y-92942671D01*
X76978793Y-92942664D01*
X76892547Y-92827455D01*
X76892544Y-92827452D01*
X76777335Y-92741206D01*
X76777328Y-92741202D01*
X76642482Y-92690908D01*
X76642483Y-92690908D01*
X76582883Y-92684501D01*
X76582881Y-92684500D01*
X76582873Y-92684500D01*
X76582865Y-92684500D01*
X75749383Y-92684500D01*
X75738576Y-92684028D01*
X75685002Y-92679341D01*
X75684999Y-92679341D01*
X75649865Y-92682414D01*
X75631421Y-92684028D01*
X75620616Y-92684500D01*
X74787129Y-92684500D01*
X74787123Y-92684501D01*
X74727516Y-92690908D01*
X74592671Y-92741202D01*
X74592669Y-92741203D01*
X74489311Y-92818578D01*
X74423847Y-92842995D01*
X74355574Y-92828144D01*
X74340689Y-92818578D01*
X74237330Y-92741203D01*
X74237328Y-92741202D01*
X74102482Y-92690908D01*
X74102483Y-92690908D01*
X74042883Y-92684501D01*
X74042881Y-92684500D01*
X74042873Y-92684500D01*
X74042864Y-92684500D01*
X72247129Y-92684500D01*
X72247123Y-92684501D01*
X72187516Y-92690908D01*
X72052671Y-92741202D01*
X72052669Y-92741203D01*
X71949311Y-92818578D01*
X71883847Y-92842995D01*
X71815574Y-92828144D01*
X71800689Y-92818578D01*
X71697330Y-92741203D01*
X71697328Y-92741202D01*
X71562482Y-92690908D01*
X71562483Y-92690908D01*
X71502883Y-92684501D01*
X71502881Y-92684500D01*
X71502873Y-92684500D01*
X71502865Y-92684500D01*
X70669383Y-92684500D01*
X70658576Y-92684028D01*
X70605002Y-92679341D01*
X70604999Y-92679341D01*
X70569865Y-92682414D01*
X70551421Y-92684028D01*
X70540616Y-92684500D01*
X69707129Y-92684500D01*
X69707123Y-92684501D01*
X69647516Y-92690908D01*
X69512671Y-92741202D01*
X69512664Y-92741206D01*
X69397455Y-92827452D01*
X69397452Y-92827455D01*
X69311206Y-92942664D01*
X69311202Y-92942671D01*
X69260908Y-93077517D01*
X69254501Y-93137116D01*
X69254501Y-93137123D01*
X69254500Y-93137135D01*
X69254500Y-93970618D01*
X69254028Y-93981425D01*
X69249341Y-94034997D01*
X69249341Y-94035001D01*
X65605499Y-94035001D01*
X65605499Y-93367129D01*
X65605498Y-93367123D01*
X65605497Y-93367116D01*
X65599091Y-93307517D01*
X65548796Y-93172669D01*
X65471421Y-93069309D01*
X65447004Y-93003848D01*
X65461855Y-92935575D01*
X65471416Y-92920696D01*
X65548796Y-92817331D01*
X65599091Y-92682483D01*
X65605500Y-92622873D01*
X65605499Y-91789383D01*
X65605971Y-91778576D01*
X65610659Y-91725000D01*
X65610659Y-91724999D01*
X65605971Y-91671421D01*
X65605499Y-91660613D01*
X65605499Y-90827129D01*
X65605498Y-90827123D01*
X65605497Y-90827116D01*
X65599091Y-90767517D01*
X65548796Y-90632669D01*
X65471421Y-90529309D01*
X65447004Y-90463848D01*
X65461855Y-90395575D01*
X65471416Y-90380696D01*
X65548796Y-90277331D01*
X65599091Y-90142483D01*
X65605500Y-90082873D01*
X65605499Y-88287128D01*
X65599091Y-88227517D01*
X65548796Y-88092669D01*
X65471421Y-87989309D01*
X65447004Y-87923848D01*
X65461855Y-87855575D01*
X65471416Y-87840696D01*
X65548796Y-87737331D01*
X65599091Y-87602483D01*
X65605500Y-87542873D01*
X65605499Y-86709383D01*
X65605971Y-86698576D01*
X65610659Y-86645000D01*
X65610659Y-86644999D01*
X65605971Y-86591421D01*
X65605499Y-86580613D01*
X65605499Y-85747129D01*
X65605498Y-85747123D01*
X65605497Y-85747116D01*
X65599091Y-85687517D01*
X65548796Y-85552669D01*
X65471421Y-85449309D01*
X65447004Y-85383848D01*
X65461855Y-85315575D01*
X65471416Y-85300696D01*
X65548796Y-85197331D01*
X65599091Y-85062483D01*
X65605500Y-85002873D01*
X65605499Y-84169383D01*
X65605971Y-84158576D01*
X65610659Y-84105000D01*
X65610659Y-84104999D01*
X65605971Y-84051421D01*
X65605499Y-84040613D01*
X65605499Y-83207129D01*
X65605498Y-83207123D01*
X65605497Y-83207116D01*
X65599091Y-83147517D01*
X65561699Y-83047265D01*
X65548797Y-83012671D01*
X65548795Y-83012668D01*
X65471421Y-82909309D01*
X65447004Y-82843848D01*
X65461855Y-82775575D01*
X65471416Y-82760696D01*
X65548796Y-82657331D01*
X65599091Y-82522483D01*
X65605500Y-82462873D01*
X65605499Y-81629383D01*
X65605971Y-81618576D01*
X65610659Y-81565000D01*
X65610659Y-81564999D01*
X65605971Y-81511421D01*
X65605499Y-81500613D01*
X65605499Y-80667129D01*
X65605498Y-80667123D01*
X65605497Y-80667116D01*
X65599091Y-80607517D01*
X65570752Y-80531537D01*
X65548797Y-80472671D01*
X65548795Y-80472668D01*
X65490264Y-80394481D01*
X65471421Y-80369309D01*
X65447004Y-80303848D01*
X65461855Y-80235575D01*
X65471416Y-80220696D01*
X65548796Y-80117331D01*
X65599091Y-79982483D01*
X65605500Y-79922873D01*
X65605499Y-79089383D01*
X65605971Y-79078576D01*
X65610659Y-79025000D01*
X65610659Y-79024999D01*
X65605971Y-78971421D01*
X65605499Y-78960613D01*
X65605499Y-78127129D01*
X65605498Y-78127123D01*
X65605497Y-78127116D01*
X65599091Y-78067517D01*
X65592183Y-78048997D01*
X65548797Y-77932671D01*
X65548795Y-77932668D01*
X65471421Y-77829309D01*
X65447004Y-77763848D01*
X65461855Y-77695575D01*
X65471416Y-77680696D01*
X65548796Y-77577331D01*
X65599091Y-77442483D01*
X65605500Y-77382873D01*
X65605499Y-75587128D01*
X65599091Y-75527517D01*
X65551716Y-75400499D01*
X65548797Y-75392671D01*
X65548795Y-75392668D01*
X65526060Y-75362298D01*
X65471421Y-75289309D01*
X65447004Y-75223848D01*
X65461855Y-75155575D01*
X65471416Y-75140696D01*
X65548796Y-75037331D01*
X65599091Y-74902483D01*
X65605500Y-74842873D01*
X65605499Y-74009383D01*
X65605971Y-73998576D01*
X65610659Y-73945000D01*
X65610659Y-73944999D01*
X65605971Y-73891421D01*
X65605499Y-73880613D01*
X65605499Y-73047129D01*
X65605498Y-73047123D01*
X65605497Y-73047116D01*
X65600299Y-72998757D01*
X65599091Y-72987516D01*
X65548797Y-72852671D01*
X65548795Y-72852668D01*
X65526983Y-72823531D01*
X65471421Y-72749309D01*
X65447004Y-72683848D01*
X65461855Y-72615575D01*
X65471416Y-72600696D01*
X65548796Y-72497331D01*
X65599091Y-72362483D01*
X65605500Y-72302873D01*
X65605499Y-71469383D01*
X65605971Y-71458576D01*
X65610659Y-71405000D01*
X65610659Y-71404999D01*
X65605971Y-71351421D01*
X65605499Y-71340613D01*
X65605499Y-70507129D01*
X65605498Y-70507123D01*
X65605497Y-70507116D01*
X65599091Y-70447517D01*
X65548796Y-70312669D01*
X65471421Y-70209309D01*
X65447004Y-70143848D01*
X65461855Y-70075575D01*
X65471416Y-70060696D01*
X65548796Y-69957331D01*
X65599091Y-69822483D01*
X65605500Y-69762873D01*
X65605499Y-68929383D01*
X65605971Y-68918576D01*
X65610659Y-68865000D01*
X65610659Y-68864999D01*
X65605971Y-68811421D01*
X65605499Y-68800613D01*
X65605499Y-67967129D01*
X65605498Y-67967123D01*
X65605497Y-67967116D01*
X65599091Y-67907517D01*
X65596473Y-67900499D01*
X65548797Y-67772671D01*
X65548795Y-67772668D01*
X65471421Y-67669309D01*
X65447004Y-67603848D01*
X65461855Y-67535575D01*
X65471416Y-67520696D01*
X65548796Y-67417331D01*
X65599091Y-67282483D01*
X65605500Y-67222873D01*
X65605499Y-66389383D01*
X65605971Y-66378576D01*
X65610659Y-66325000D01*
X65610659Y-66324999D01*
X65605971Y-66271421D01*
X65605499Y-66260613D01*
X65605499Y-65427129D01*
X65605498Y-65427123D01*
X65605497Y-65427116D01*
X65599091Y-65367517D01*
X65582685Y-65323531D01*
X65548797Y-65232671D01*
X65548795Y-65232668D01*
X65471421Y-65129309D01*
X65447004Y-65063848D01*
X65461855Y-64995575D01*
X65471416Y-64980696D01*
X65548796Y-64877331D01*
X65599091Y-64742483D01*
X65605500Y-64682873D01*
X65605499Y-62887128D01*
X65599091Y-62827517D01*
X65548796Y-62692669D01*
X65471421Y-62589309D01*
X65447004Y-62523848D01*
X65461855Y-62455575D01*
X65471416Y-62440696D01*
X65548796Y-62337331D01*
X65599091Y-62202483D01*
X65605500Y-62142873D01*
X65605499Y-61309383D01*
X65605971Y-61298576D01*
X65610659Y-61245000D01*
X65610659Y-61244999D01*
X65605971Y-61191421D01*
X65605499Y-61180613D01*
X65605499Y-60347129D01*
X65605498Y-60347123D01*
X65605497Y-60347116D01*
X65599091Y-60287517D01*
X65548796Y-60152669D01*
X65471421Y-60049309D01*
X65447004Y-59983848D01*
X65461855Y-59915575D01*
X65471416Y-59900696D01*
X65548796Y-59797331D01*
X65599091Y-59662483D01*
X65605500Y-59602873D01*
X65605499Y-58769383D01*
X65605971Y-58758576D01*
X65610659Y-58705000D01*
X65610659Y-58704999D01*
X65605971Y-58651421D01*
X65605499Y-58640613D01*
X65605499Y-57807129D01*
X65605498Y-57807123D01*
X65599091Y-57747516D01*
X65548797Y-57612671D01*
X65548795Y-57612668D01*
X65503480Y-57552135D01*
X65471421Y-57509309D01*
X65447004Y-57443848D01*
X65461855Y-57375575D01*
X65471416Y-57360696D01*
X65548796Y-57257331D01*
X65599091Y-57122483D01*
X65605500Y-57062873D01*
X65605499Y-56229384D01*
X65605971Y-56218576D01*
X65610659Y-56165000D01*
X65610659Y-56164999D01*
X65605971Y-56111421D01*
X65605499Y-56100613D01*
X65605499Y-55267129D01*
X65605498Y-55267123D01*
X65605497Y-55267116D01*
X65599091Y-55207517D01*
X65589021Y-55180519D01*
X65548797Y-55072671D01*
X65548795Y-55072668D01*
X65471421Y-54969309D01*
X65447004Y-54903848D01*
X65461855Y-54835575D01*
X65471416Y-54820696D01*
X65548796Y-54717331D01*
X65599091Y-54582483D01*
X65605500Y-54522873D01*
X65605499Y-53689384D01*
X65605971Y-53678576D01*
X65610659Y-53625000D01*
X65610659Y-53624999D01*
X65605971Y-53571421D01*
X65605499Y-53560613D01*
X65605499Y-52727129D01*
X65605498Y-52727123D01*
X65605497Y-52727116D01*
X65599091Y-52667517D01*
X65548796Y-52532669D01*
X65471421Y-52429309D01*
X65447004Y-52363848D01*
X65461855Y-52295575D01*
X65471416Y-52280696D01*
X65548796Y-52177331D01*
X65599091Y-52042483D01*
X65605500Y-51982873D01*
X65605499Y-50187128D01*
X65599091Y-50127517D01*
X65598748Y-50126598D01*
X65548797Y-49992671D01*
X65548795Y-49992668D01*
X65533231Y-49971877D01*
X65471421Y-49889309D01*
X65447004Y-49823848D01*
X65461855Y-49755575D01*
X65471416Y-49740696D01*
X65548796Y-49637331D01*
X65599091Y-49502483D01*
X65605500Y-49442873D01*
X65605500Y-49165002D01*
X69464723Y-49165002D01*
X69483793Y-49382975D01*
X69483793Y-49382979D01*
X69540422Y-49594322D01*
X69540424Y-49594326D01*
X69540425Y-49594330D01*
X69560477Y-49637331D01*
X69632897Y-49792638D01*
X69648555Y-49815000D01*
X69758402Y-49971877D01*
X69913123Y-50126598D01*
X70092361Y-50252102D01*
X70290670Y-50344575D01*
X70502023Y-50401207D01*
X70684926Y-50417208D01*
X70719998Y-50420277D01*
X70720000Y-50420277D01*
X70720002Y-50420277D01*
X70748254Y-50417805D01*
X70937977Y-50401207D01*
X71149330Y-50344575D01*
X71347639Y-50252102D01*
X71526877Y-50126598D01*
X71681598Y-49971877D01*
X71807102Y-49792639D01*
X71899575Y-49594330D01*
X71956207Y-49382977D01*
X71975277Y-49165002D01*
X74314723Y-49165002D01*
X74333793Y-49382975D01*
X74333793Y-49382979D01*
X74390422Y-49594322D01*
X74390424Y-49594326D01*
X74390425Y-49594330D01*
X74410477Y-49637331D01*
X74482897Y-49792638D01*
X74498555Y-49815000D01*
X74608402Y-49971877D01*
X74763123Y-50126598D01*
X74942361Y-50252102D01*
X75140670Y-50344575D01*
X75352023Y-50401207D01*
X75534926Y-50417208D01*
X75569998Y-50420277D01*
X75570000Y-50420277D01*
X75570002Y-50420277D01*
X75598254Y-50417805D01*
X75787977Y-50401207D01*
X75999330Y-50344575D01*
X76197639Y-50252102D01*
X76376877Y-50126598D01*
X76531598Y-49971877D01*
X76657102Y-49792639D01*
X76749575Y-49594330D01*
X76806207Y-49382977D01*
X76825277Y-49165000D01*
X76806207Y-48947023D01*
X76749575Y-48735670D01*
X76657102Y-48537362D01*
X76657100Y-48537359D01*
X76657099Y-48537357D01*
X76531599Y-48358124D01*
X76531596Y-48358121D01*
X76376877Y-48203402D01*
X76197639Y-48077898D01*
X76197640Y-48077898D01*
X76197638Y-48077897D01*
X76098484Y-48031661D01*
X75999330Y-47985425D01*
X75999326Y-47985424D01*
X75999322Y-47985422D01*
X75787977Y-47928793D01*
X75570002Y-47909723D01*
X75569998Y-47909723D01*
X75424682Y-47922436D01*
X75352023Y-47928793D01*
X75352020Y-47928793D01*
X75140677Y-47985422D01*
X75140668Y-47985426D01*
X74942361Y-48077898D01*
X74942357Y-48077900D01*
X74763121Y-48203402D01*
X74608402Y-48358121D01*
X74482900Y-48537357D01*
X74482898Y-48537361D01*
X74390426Y-48735668D01*
X74390422Y-48735677D01*
X74333793Y-48947020D01*
X74333793Y-48947024D01*
X74314723Y-49164997D01*
X74314723Y-49165002D01*
X71975277Y-49165002D01*
X71975277Y-49165000D01*
X71956207Y-48947023D01*
X71899575Y-48735670D01*
X71807102Y-48537362D01*
X71807100Y-48537359D01*
X71807099Y-48537357D01*
X71681599Y-48358124D01*
X71681596Y-48358121D01*
X71526877Y-48203402D01*
X71347639Y-48077898D01*
X71347640Y-48077898D01*
X71347638Y-48077897D01*
X71248484Y-48031661D01*
X71149330Y-47985425D01*
X71149326Y-47985424D01*
X71149322Y-47985422D01*
X70937977Y-47928793D01*
X70720002Y-47909723D01*
X70719998Y-47909723D01*
X70574682Y-47922436D01*
X70502023Y-47928793D01*
X70502020Y-47928793D01*
X70290677Y-47985422D01*
X70290668Y-47985426D01*
X70092361Y-48077898D01*
X70092357Y-48077900D01*
X69913121Y-48203402D01*
X69758402Y-48358121D01*
X69632900Y-48537357D01*
X69632898Y-48537361D01*
X69540426Y-48735668D01*
X69540422Y-48735677D01*
X69483793Y-48947020D01*
X69483793Y-48947024D01*
X69464723Y-49164997D01*
X69464723Y-49165002D01*
X65605500Y-49165002D01*
X65605499Y-48609383D01*
X65605971Y-48598576D01*
X65610659Y-48545000D01*
X65610659Y-48544999D01*
X65605971Y-48491421D01*
X65605499Y-48480613D01*
X65605499Y-47647129D01*
X65605498Y-47647123D01*
X65605497Y-47647116D01*
X65599091Y-47587517D01*
X65548796Y-47452669D01*
X65471421Y-47349309D01*
X65447004Y-47283848D01*
X65461855Y-47215575D01*
X65471416Y-47200696D01*
X65548796Y-47097331D01*
X65599091Y-46962483D01*
X65605500Y-46902873D01*
X65605499Y-46069383D01*
X65605971Y-46058576D01*
X65610659Y-46005000D01*
X65610659Y-46004999D01*
X65605971Y-45951421D01*
X65605499Y-45940613D01*
X65605499Y-45579500D01*
X65625184Y-45512461D01*
X65677988Y-45466706D01*
X65729499Y-45455500D01*
X68998952Y-45455500D01*
X69065991Y-45475185D01*
X69111746Y-45527989D01*
X69121690Y-45597147D01*
X69112507Y-45629311D01*
X69090843Y-45678697D01*
X69033866Y-45903691D01*
X69033864Y-45903702D01*
X69014700Y-46134993D01*
X69014700Y-46135006D01*
X69033864Y-46366297D01*
X69033866Y-46366308D01*
X69090842Y-46591300D01*
X69184075Y-46803848D01*
X69311016Y-46998147D01*
X69311019Y-46998151D01*
X69311021Y-46998153D01*
X69468216Y-47168913D01*
X69468219Y-47168915D01*
X69468222Y-47168918D01*
X69651365Y-47311464D01*
X69651371Y-47311468D01*
X69651374Y-47311470D01*
X69855497Y-47421936D01*
X69945019Y-47452669D01*
X70075015Y-47497297D01*
X70075017Y-47497297D01*
X70075019Y-47497298D01*
X70303951Y-47535500D01*
X70303952Y-47535500D01*
X70536048Y-47535500D01*
X70536049Y-47535500D01*
X70764981Y-47497298D01*
X70984503Y-47421936D01*
X71188626Y-47311470D01*
X71371784Y-47168913D01*
X71528979Y-46998153D01*
X71655924Y-46803849D01*
X71749157Y-46591300D01*
X71806134Y-46366305D01*
X71825300Y-46135000D01*
X71825300Y-46134993D01*
X71806135Y-45903702D01*
X71806133Y-45903691D01*
X71749156Y-45678697D01*
X71727493Y-45629311D01*
X71718589Y-45560011D01*
X71748565Y-45496899D01*
X71807904Y-45460012D01*
X71841048Y-45455500D01*
X74448952Y-45455500D01*
X74515991Y-45475185D01*
X74561746Y-45527989D01*
X74571690Y-45597147D01*
X74562507Y-45629311D01*
X74540843Y-45678697D01*
X74483866Y-45903691D01*
X74483864Y-45903702D01*
X74464700Y-46134993D01*
X74464700Y-46135006D01*
X74483864Y-46366297D01*
X74483866Y-46366308D01*
X74540842Y-46591300D01*
X74634075Y-46803848D01*
X74761016Y-46998147D01*
X74761019Y-46998151D01*
X74761021Y-46998153D01*
X74918216Y-47168913D01*
X74918219Y-47168915D01*
X74918222Y-47168918D01*
X75101365Y-47311464D01*
X75101371Y-47311468D01*
X75101374Y-47311470D01*
X75305497Y-47421936D01*
X75395019Y-47452669D01*
X75525015Y-47497297D01*
X75525017Y-47497297D01*
X75525019Y-47497298D01*
X75753951Y-47535500D01*
X75753952Y-47535500D01*
X75986048Y-47535500D01*
X75986049Y-47535500D01*
X76214981Y-47497298D01*
X76434503Y-47421936D01*
X76638626Y-47311470D01*
X76821784Y-47168913D01*
X76978979Y-46998153D01*
X77105924Y-46803849D01*
X77199157Y-46591300D01*
X77256134Y-46366305D01*
X77275300Y-46135000D01*
X77275300Y-46134993D01*
X77256135Y-45903702D01*
X77256133Y-45903691D01*
X77199156Y-45678697D01*
X77177493Y-45629311D01*
X77168589Y-45560011D01*
X77198565Y-45496899D01*
X77257904Y-45460012D01*
X77291048Y-45455500D01*
X80560500Y-45455500D01*
X80627539Y-45475185D01*
X80673294Y-45527989D01*
X80684500Y-45579500D01*
X80684500Y-45940616D01*
X80684028Y-45951423D01*
X80679341Y-46004997D01*
X80679341Y-46005002D01*
X80684028Y-46058576D01*
X80684500Y-46069383D01*
X80684500Y-46902870D01*
X80684501Y-46902876D01*
X80690908Y-46962483D01*
X80741202Y-47097328D01*
X80741203Y-47097330D01*
X80818578Y-47200689D01*
X80842995Y-47266153D01*
X80828144Y-47334426D01*
X80818578Y-47349311D01*
X80741203Y-47452669D01*
X80741202Y-47452671D01*
X80690908Y-47587517D01*
X80684501Y-47647116D01*
X80684501Y-47647123D01*
X80684500Y-47647135D01*
X80684500Y-48480616D01*
X80684028Y-48491423D01*
X80679341Y-48544997D01*
X80679341Y-48545002D01*
X80684028Y-48598576D01*
X80684500Y-48609383D01*
X80684500Y-49442870D01*
X80684501Y-49442876D01*
X80690908Y-49502483D01*
X80741202Y-49637328D01*
X80741203Y-49637330D01*
X80818578Y-49740689D01*
X80842995Y-49806153D01*
X80828144Y-49874426D01*
X80818578Y-49889311D01*
X80741203Y-49992669D01*
X80741202Y-49992671D01*
X80690908Y-50127517D01*
X80684501Y-50187116D01*
X80684501Y-50187123D01*
X80684500Y-50187135D01*
X80684500Y-51534900D01*
X80664815Y-51601939D01*
X80648182Y-51622581D01*
X80516286Y-51754478D01*
X80516285Y-51754477D01*
X80516284Y-51754480D01*
X80404481Y-51866282D01*
X80404479Y-51866285D01*
X80354361Y-51953094D01*
X80354359Y-51953096D01*
X80325425Y-52003209D01*
X80325424Y-52003210D01*
X80325423Y-52003215D01*
X80284499Y-52155943D01*
X80284499Y-52155945D01*
X80284499Y-52324046D01*
X80284500Y-52324059D01*
X80284500Y-57235943D01*
X80284500Y-57394057D01*
X80315875Y-57511148D01*
X80325423Y-57546783D01*
X80325426Y-57546790D01*
X80404475Y-57683709D01*
X80404478Y-57683713D01*
X80404480Y-57683716D01*
X80516284Y-57795520D01*
X80622500Y-57856843D01*
X80670715Y-57907409D01*
X80684500Y-57964230D01*
X80684500Y-58640616D01*
X80684028Y-58651423D01*
X80679341Y-58704997D01*
X80679341Y-58705002D01*
X80684028Y-58758576D01*
X80684500Y-58769383D01*
X80684500Y-59602870D01*
X80684501Y-59602876D01*
X80690908Y-59662483D01*
X80741202Y-59797328D01*
X80741203Y-59797330D01*
X80741204Y-59797331D01*
X80818436Y-59900500D01*
X80818578Y-59900689D01*
X80842995Y-59966153D01*
X80828144Y-60034426D01*
X80818578Y-60049311D01*
X80741203Y-60152669D01*
X80741202Y-60152671D01*
X80690908Y-60287517D01*
X80684501Y-60347116D01*
X80684501Y-60347123D01*
X80684500Y-60347135D01*
X80684500Y-61180616D01*
X80684028Y-61191423D01*
X80679341Y-61244997D01*
X80679341Y-61245002D01*
X80684028Y-61298576D01*
X80684500Y-61309383D01*
X80684500Y-62142870D01*
X80684501Y-62142876D01*
X80690908Y-62202483D01*
X80741202Y-62337328D01*
X80741206Y-62337335D01*
X80818889Y-62441105D01*
X80843307Y-62506569D01*
X80828456Y-62574842D01*
X80818890Y-62589727D01*
X80741647Y-62692910D01*
X80741645Y-62692913D01*
X80691403Y-62827620D01*
X80691401Y-62827627D01*
X80685000Y-62887155D01*
X80685000Y-63535000D01*
X81590440Y-63535000D01*
X81559755Y-63588147D01*
X81525000Y-63717857D01*
X81525000Y-63852143D01*
X81559755Y-63981853D01*
X81590440Y-64035000D01*
X80685000Y-64035000D01*
X80685000Y-64682844D01*
X80691401Y-64742372D01*
X80691403Y-64742379D01*
X80741645Y-64877086D01*
X80741646Y-64877088D01*
X80818890Y-64980272D01*
X80843307Y-65045736D01*
X80828456Y-65114009D01*
X80818890Y-65128894D01*
X80741204Y-65232669D01*
X80741202Y-65232671D01*
X80690908Y-65367517D01*
X80684650Y-65425732D01*
X80684501Y-65427123D01*
X80684500Y-65427135D01*
X80684500Y-66260616D01*
X80684028Y-66271423D01*
X80679341Y-66324997D01*
X80679341Y-66325002D01*
X80684028Y-66378576D01*
X80684500Y-66389383D01*
X80684500Y-67222870D01*
X80684501Y-67222876D01*
X80690908Y-67282483D01*
X80741202Y-67417328D01*
X80741203Y-67417330D01*
X80818578Y-67520689D01*
X80842995Y-67586153D01*
X80828144Y-67654426D01*
X80818578Y-67669311D01*
X80741203Y-67772669D01*
X80741202Y-67772671D01*
X80690908Y-67907517D01*
X80684501Y-67967116D01*
X80684501Y-67967123D01*
X80684500Y-67967135D01*
X80684500Y-68800616D01*
X80684028Y-68811423D01*
X80679341Y-68864997D01*
X80679341Y-68865002D01*
X80684028Y-68918576D01*
X80684500Y-68929383D01*
X80684500Y-69762870D01*
X80684501Y-69762876D01*
X80690908Y-69822483D01*
X80741202Y-69957328D01*
X80741203Y-69957330D01*
X80818578Y-70060689D01*
X80842995Y-70126153D01*
X80828144Y-70194426D01*
X80818578Y-70209311D01*
X80741203Y-70312669D01*
X80741202Y-70312671D01*
X80690908Y-70447517D01*
X80684501Y-70507116D01*
X80684501Y-70507123D01*
X80684500Y-70507135D01*
X80684500Y-71340616D01*
X80684028Y-71351423D01*
X80679341Y-71404997D01*
X80679341Y-71405002D01*
X80684028Y-71458576D01*
X80684500Y-71469383D01*
X80684500Y-72302870D01*
X80684501Y-72302876D01*
X80690908Y-72362483D01*
X80741202Y-72497328D01*
X80741203Y-72497330D01*
X80818578Y-72600689D01*
X80842995Y-72666153D01*
X80828144Y-72734426D01*
X80818578Y-72749311D01*
X80741203Y-72852669D01*
X80741202Y-72852671D01*
X80690908Y-72987517D01*
X80688368Y-73011148D01*
X80684501Y-73047123D01*
X80684500Y-73047135D01*
X80684500Y-73880616D01*
X80684028Y-73891423D01*
X80679341Y-73944997D01*
X80679341Y-73945002D01*
X80684028Y-73998576D01*
X80684500Y-74009383D01*
X80684500Y-74842870D01*
X80684501Y-74842876D01*
X80690908Y-74902483D01*
X80741202Y-75037328D01*
X80741203Y-75037330D01*
X80818578Y-75140689D01*
X80842995Y-75206153D01*
X80828144Y-75274426D01*
X80818578Y-75289311D01*
X80741203Y-75392669D01*
X80741202Y-75392671D01*
X80690908Y-75527517D01*
X80684501Y-75587116D01*
X80684501Y-75587123D01*
X80684500Y-75587135D01*
X80684500Y-77382870D01*
X80684501Y-77382876D01*
X80690908Y-77442483D01*
X80741202Y-77577328D01*
X80741203Y-77577330D01*
X80818578Y-77680689D01*
X80842995Y-77746153D01*
X80828144Y-77814426D01*
X80818578Y-77829311D01*
X80741203Y-77932669D01*
X80741202Y-77932671D01*
X80690908Y-78067517D01*
X80684501Y-78127116D01*
X80684501Y-78127123D01*
X80684500Y-78127135D01*
X80684500Y-78960616D01*
X80684028Y-78971423D01*
X80679341Y-79024997D01*
X80679341Y-79025002D01*
X80684028Y-79078576D01*
X80684500Y-79089383D01*
X80684500Y-79922870D01*
X80684501Y-79922876D01*
X80690908Y-79982483D01*
X80741202Y-80117328D01*
X80741203Y-80117330D01*
X80818578Y-80220689D01*
X80842995Y-80286153D01*
X80828144Y-80354426D01*
X80818578Y-80369311D01*
X80741203Y-80472669D01*
X80741202Y-80472671D01*
X80690908Y-80607517D01*
X80684501Y-80667116D01*
X80684501Y-80667123D01*
X80684500Y-80667135D01*
X80684500Y-81500616D01*
X80684028Y-81511423D01*
X80679341Y-81564997D01*
X80679341Y-81565002D01*
X80684028Y-81618576D01*
X80684500Y-81629383D01*
X80684500Y-82462870D01*
X80684501Y-82462876D01*
X80690908Y-82522483D01*
X80741202Y-82657328D01*
X80741203Y-82657330D01*
X80818578Y-82760689D01*
X80842995Y-82826153D01*
X80828144Y-82894426D01*
X80818578Y-82909311D01*
X80741203Y-83012669D01*
X80741202Y-83012671D01*
X80690908Y-83147517D01*
X80684501Y-83207116D01*
X80684501Y-83207123D01*
X80684500Y-83207135D01*
X80684500Y-84040616D01*
X80684028Y-84051423D01*
X80679341Y-84104997D01*
X80679341Y-84105002D01*
X80684028Y-84158576D01*
X80684500Y-84169383D01*
X80684500Y-85002870D01*
X80684501Y-85002876D01*
X80690908Y-85062483D01*
X80741202Y-85197328D01*
X80741203Y-85197330D01*
X80818578Y-85300689D01*
X80842995Y-85366153D01*
X80828144Y-85434426D01*
X80818578Y-85449311D01*
X80741203Y-85552669D01*
X80741202Y-85552671D01*
X80690908Y-85687517D01*
X80684501Y-85747116D01*
X80684501Y-85747123D01*
X80684500Y-85747135D01*
X80684500Y-86580616D01*
X80684028Y-86591423D01*
X80679341Y-86644997D01*
X80679341Y-86645002D01*
X80684028Y-86698576D01*
X80684500Y-86709383D01*
X80684500Y-87542870D01*
X80684501Y-87542876D01*
X80690908Y-87602483D01*
X80741202Y-87737328D01*
X80741203Y-87737330D01*
X80818578Y-87840689D01*
X80842995Y-87906153D01*
X80828144Y-87974426D01*
X80818578Y-87989311D01*
X80741203Y-88092669D01*
X80741202Y-88092671D01*
X80690908Y-88227517D01*
X80684501Y-88287116D01*
X80684501Y-88287123D01*
X80684500Y-88287135D01*
X80684500Y-90082870D01*
X80684501Y-90082876D01*
X80690908Y-90142483D01*
X80741202Y-90277328D01*
X80741203Y-90277330D01*
X80818578Y-90380689D01*
X80842995Y-90446153D01*
X80828144Y-90514426D01*
X80818578Y-90529311D01*
X80741203Y-90632669D01*
X80741202Y-90632671D01*
X80690908Y-90767517D01*
X80684501Y-90827116D01*
X80684501Y-90827123D01*
X80684500Y-90827135D01*
X80684500Y-91660616D01*
X80684028Y-91671423D01*
X80679341Y-91724997D01*
X80679341Y-91725002D01*
X80684028Y-91778576D01*
X80684500Y-91789383D01*
X80684500Y-92622870D01*
X80684501Y-92622876D01*
X80690908Y-92682483D01*
X80741202Y-92817328D01*
X80741203Y-92817330D01*
X80818578Y-92920689D01*
X80842995Y-92986153D01*
X80828144Y-93054426D01*
X80818578Y-93069311D01*
X80741203Y-93172669D01*
X80741202Y-93172671D01*
X80690908Y-93307517D01*
X80684501Y-93367116D01*
X80684501Y-93367123D01*
X80684500Y-93367135D01*
X80684500Y-94200616D01*
X80684028Y-94211423D01*
X80679341Y-94264997D01*
X80679341Y-94265002D01*
X80684028Y-94318576D01*
X80684500Y-94329383D01*
X80684500Y-95162870D01*
X80684501Y-95162876D01*
X80690908Y-95222483D01*
X80741202Y-95357328D01*
X80741206Y-95357335D01*
X80827452Y-95472544D01*
X80827455Y-95472547D01*
X80942664Y-95558793D01*
X80942671Y-95558797D01*
X81077517Y-95609091D01*
X81077516Y-95609091D01*
X81084444Y-95609835D01*
X81137127Y-95615500D01*
X81970616Y-95615499D01*
X81981425Y-95615971D01*
X82035000Y-95620659D01*
X82088575Y-95615971D01*
X82099384Y-95615499D01*
X84732871Y-95615499D01*
X84732872Y-95615499D01*
X84792483Y-95609091D01*
X84927331Y-95558796D01*
X85042546Y-95472546D01*
X85128796Y-95357331D01*
X85179091Y-95222483D01*
X85180299Y-95211244D01*
X85207035Y-95146696D01*
X85264426Y-95106846D01*
X85303588Y-95100500D01*
X88521139Y-95100500D01*
X88588178Y-95120185D01*
X88625637Y-95160418D01*
X88625888Y-95160231D01*
X88627635Y-95162565D01*
X88629973Y-95165076D01*
X88631207Y-95167336D01*
X88717452Y-95282544D01*
X88717455Y-95282547D01*
X88832664Y-95368793D01*
X88832671Y-95368797D01*
X88967517Y-95419091D01*
X88967516Y-95419091D01*
X88974444Y-95419835D01*
X89027127Y-95425500D01*
X89972872Y-95425499D01*
X90032483Y-95419091D01*
X90167331Y-95368796D01*
X90282546Y-95282546D01*
X90368796Y-95167331D01*
X90419091Y-95032483D01*
X90425500Y-94972873D01*
X90425499Y-94027128D01*
X90420006Y-93976031D01*
X90419091Y-93967516D01*
X90368797Y-93832671D01*
X90368793Y-93832664D01*
X90282547Y-93717455D01*
X90282544Y-93717452D01*
X90167335Y-93631206D01*
X90167328Y-93631202D01*
X90032482Y-93580908D01*
X90032483Y-93580908D01*
X89972883Y-93574501D01*
X89972881Y-93574500D01*
X89972873Y-93574500D01*
X89972864Y-93574500D01*
X89027129Y-93574500D01*
X89027123Y-93574501D01*
X88967516Y-93580908D01*
X88832671Y-93631202D01*
X88832664Y-93631206D01*
X88717455Y-93717452D01*
X88717452Y-93717455D01*
X88631207Y-93832663D01*
X88629973Y-93834924D01*
X88628150Y-93836746D01*
X88625888Y-93839769D01*
X88625453Y-93839443D01*
X88580569Y-93884331D01*
X88521139Y-93899500D01*
X85309499Y-93899500D01*
X85242460Y-93879815D01*
X85196705Y-93827011D01*
X85185499Y-93775500D01*
X85185499Y-93367129D01*
X85185498Y-93367123D01*
X85185497Y-93367116D01*
X85179091Y-93307517D01*
X85128796Y-93172669D01*
X85051421Y-93069309D01*
X85027004Y-93003848D01*
X85041855Y-92935575D01*
X85051416Y-92920696D01*
X85128796Y-92817331D01*
X85179091Y-92682483D01*
X85185500Y-92622873D01*
X85185500Y-92147870D01*
X94199500Y-92147870D01*
X94199501Y-92147876D01*
X94205908Y-92207483D01*
X94256202Y-92342328D01*
X94256206Y-92342335D01*
X94342452Y-92457544D01*
X94342455Y-92457547D01*
X94457664Y-92543793D01*
X94457671Y-92543797D01*
X94592517Y-92594091D01*
X94592516Y-92594091D01*
X94599444Y-92594835D01*
X94652127Y-92600500D01*
X96347872Y-92600499D01*
X96407483Y-92594091D01*
X96542331Y-92543796D01*
X96657546Y-92457546D01*
X96743796Y-92342331D01*
X96794091Y-92207483D01*
X96800500Y-92147873D01*
X96800499Y-90900095D01*
X96820184Y-90833057D01*
X96836813Y-90812420D01*
X100368713Y-87280521D01*
X100368716Y-87280520D01*
X100480520Y-87168716D01*
X100530639Y-87081904D01*
X100559577Y-87031785D01*
X100600501Y-86879057D01*
X100600501Y-86720943D01*
X100600501Y-86713348D01*
X100600500Y-86713330D01*
X100600500Y-81419244D01*
X100620185Y-81352205D01*
X100659220Y-81313819D01*
X100726562Y-81272124D01*
X100890981Y-81122236D01*
X101025058Y-80944689D01*
X101124229Y-80745528D01*
X101185115Y-80531536D01*
X101205643Y-80310000D01*
X101202353Y-80274500D01*
X101185115Y-80088464D01*
X101185114Y-80088462D01*
X101154960Y-79982482D01*
X101124229Y-79874472D01*
X101124224Y-79874461D01*
X101025061Y-79675316D01*
X101025056Y-79675308D01*
X100890979Y-79497761D01*
X100726562Y-79347876D01*
X100726560Y-79347874D01*
X100537404Y-79230754D01*
X100537398Y-79230752D01*
X100329940Y-79150382D01*
X100111243Y-79109500D01*
X99888757Y-79109500D01*
X99670060Y-79150382D01*
X99538864Y-79201207D01*
X99462601Y-79230752D01*
X99462595Y-79230754D01*
X99273439Y-79347874D01*
X99273437Y-79347876D01*
X99109020Y-79497761D01*
X98974943Y-79675308D01*
X98974938Y-79675316D01*
X98875775Y-79874461D01*
X98875769Y-79874476D01*
X98814885Y-80088462D01*
X98814884Y-80088464D01*
X98794357Y-80309999D01*
X98794357Y-80310000D01*
X98814884Y-80531535D01*
X98814885Y-80531537D01*
X98875769Y-80745523D01*
X98875775Y-80745538D01*
X98974938Y-80944683D01*
X98974943Y-80944691D01*
X99109020Y-81122238D01*
X99273433Y-81272120D01*
X99273435Y-81272121D01*
X99273438Y-81272124D01*
X99340778Y-81313818D01*
X99387412Y-81365843D01*
X99399500Y-81419244D01*
X99399500Y-86499902D01*
X99379815Y-86566941D01*
X99363181Y-86587583D01*
X95987582Y-89963181D01*
X95926259Y-89996666D01*
X95899901Y-89999500D01*
X94652129Y-89999500D01*
X94652123Y-89999501D01*
X94592516Y-90005908D01*
X94457671Y-90056202D01*
X94457664Y-90056206D01*
X94342455Y-90142452D01*
X94342452Y-90142455D01*
X94256206Y-90257664D01*
X94256202Y-90257671D01*
X94205908Y-90392517D01*
X94199501Y-90452116D01*
X94199500Y-90452135D01*
X94199500Y-92147870D01*
X85185500Y-92147870D01*
X85185499Y-90827128D01*
X85179091Y-90767517D01*
X85128796Y-90632669D01*
X85051421Y-90529309D01*
X85027004Y-90463848D01*
X85041855Y-90395575D01*
X85051416Y-90380696D01*
X85128796Y-90277331D01*
X85179091Y-90142483D01*
X85185500Y-90082873D01*
X85185499Y-88287128D01*
X85179091Y-88227517D01*
X85128796Y-88092669D01*
X85051421Y-87989309D01*
X85027004Y-87923848D01*
X85041855Y-87855575D01*
X85051416Y-87840696D01*
X85128796Y-87737331D01*
X85179091Y-87602483D01*
X85185500Y-87542873D01*
X85185499Y-85747128D01*
X85179091Y-85687517D01*
X85128796Y-85552669D01*
X85051421Y-85449309D01*
X85027004Y-85383848D01*
X85041855Y-85315575D01*
X85051416Y-85300696D01*
X85128796Y-85197331D01*
X85179091Y-85062483D01*
X85185500Y-85002873D01*
X85185499Y-83207128D01*
X85179091Y-83147517D01*
X85141699Y-83047265D01*
X85128797Y-83012671D01*
X85128795Y-83012668D01*
X85051421Y-82909309D01*
X85027004Y-82843848D01*
X85041855Y-82775575D01*
X85051416Y-82760696D01*
X85128796Y-82657331D01*
X85179091Y-82522483D01*
X85185500Y-82462873D01*
X85185499Y-80667128D01*
X85179091Y-80607517D01*
X85150752Y-80531537D01*
X85128797Y-80472671D01*
X85128795Y-80472668D01*
X85070264Y-80394481D01*
X85051421Y-80369309D01*
X85027004Y-80303848D01*
X85041855Y-80235575D01*
X85051416Y-80220696D01*
X85128796Y-80117331D01*
X85179091Y-79982483D01*
X85185500Y-79922873D01*
X85185499Y-78127128D01*
X85179091Y-78067517D01*
X85172183Y-78048997D01*
X85128797Y-77932671D01*
X85128795Y-77932668D01*
X85051421Y-77829309D01*
X85027004Y-77763848D01*
X85041855Y-77695575D01*
X85051416Y-77680696D01*
X85128796Y-77577331D01*
X85179091Y-77442483D01*
X85185500Y-77382873D01*
X85185500Y-77209500D01*
X85205185Y-77142461D01*
X85257989Y-77096706D01*
X85309500Y-77085500D01*
X88269903Y-77085500D01*
X88336942Y-77105185D01*
X88357584Y-77121819D01*
X89398181Y-78162417D01*
X89431666Y-78223740D01*
X89434500Y-78250098D01*
X89434500Y-79172870D01*
X89434501Y-79172876D01*
X89440908Y-79232483D01*
X89491202Y-79367328D01*
X89491206Y-79367335D01*
X89577452Y-79482544D01*
X89577455Y-79482547D01*
X89692664Y-79568793D01*
X89692671Y-79568797D01*
X89827517Y-79619091D01*
X89827516Y-79619091D01*
X89834444Y-79619835D01*
X89887127Y-79625500D01*
X91032872Y-79625499D01*
X91092483Y-79619091D01*
X91227331Y-79568796D01*
X91228430Y-79567972D01*
X91229717Y-79567492D01*
X91235112Y-79564547D01*
X91235535Y-79565322D01*
X91293887Y-79543552D01*
X91350198Y-79552673D01*
X91430873Y-79586091D01*
X91574792Y-79614718D01*
X91628992Y-79625499D01*
X91628996Y-79625500D01*
X91628997Y-79625500D01*
X91831005Y-79625500D01*
X91837068Y-79624903D01*
X91837245Y-79626703D01*
X91898356Y-79632168D01*
X91940645Y-79659880D01*
X93520139Y-81239374D01*
X93520149Y-81239385D01*
X93524479Y-81243715D01*
X93524480Y-81243716D01*
X93636284Y-81355520D01*
X93723095Y-81405639D01*
X93723097Y-81405641D01*
X93761151Y-81427611D01*
X93773215Y-81434577D01*
X93925943Y-81475501D01*
X93925946Y-81475501D01*
X94091653Y-81475501D01*
X94091669Y-81475500D01*
X94775500Y-81475500D01*
X94842539Y-81495185D01*
X94888294Y-81547989D01*
X94899500Y-81599500D01*
X94899500Y-82468306D01*
X94879815Y-82535345D01*
X94846623Y-82569881D01*
X94660859Y-82699953D01*
X94499954Y-82860858D01*
X94369432Y-83047265D01*
X94369431Y-83047267D01*
X94273261Y-83253502D01*
X94273258Y-83253511D01*
X94214366Y-83473302D01*
X94214364Y-83473313D01*
X94194532Y-83699998D01*
X94194532Y-83700001D01*
X94214364Y-83926686D01*
X94214366Y-83926697D01*
X94273258Y-84146488D01*
X94273261Y-84146497D01*
X94369431Y-84352732D01*
X94369432Y-84352734D01*
X94499954Y-84539141D01*
X94660858Y-84700045D01*
X94660861Y-84700047D01*
X94847266Y-84830568D01*
X95053504Y-84926739D01*
X95273308Y-84985635D01*
X95435230Y-84999801D01*
X95499998Y-85005468D01*
X95500000Y-85005468D01*
X95500002Y-85005468D01*
X95556673Y-85000509D01*
X95726692Y-84985635D01*
X95946496Y-84926739D01*
X96152734Y-84830568D01*
X96339139Y-84700047D01*
X96500047Y-84539139D01*
X96630568Y-84352734D01*
X96726739Y-84146496D01*
X96785635Y-83926692D01*
X96805468Y-83700000D01*
X96785635Y-83473308D01*
X96726739Y-83253504D01*
X96630568Y-83047266D01*
X96500047Y-82860861D01*
X96500045Y-82860858D01*
X96339140Y-82699953D01*
X96153377Y-82569881D01*
X96109752Y-82515304D01*
X96100500Y-82468306D01*
X96100500Y-80795945D01*
X96100500Y-80795943D01*
X96059577Y-80643216D01*
X96059573Y-80643209D01*
X95980524Y-80506290D01*
X95980518Y-80506282D01*
X95868717Y-80394481D01*
X95868709Y-80394475D01*
X95731790Y-80315426D01*
X95731786Y-80315424D01*
X95731784Y-80315423D01*
X95579057Y-80274500D01*
X95579056Y-80274500D01*
X94305097Y-80274500D01*
X94238058Y-80254815D01*
X94217416Y-80238181D01*
X93593953Y-79614718D01*
X93560468Y-79553395D01*
X93565452Y-79483703D01*
X93607324Y-79427770D01*
X93612699Y-79423965D01*
X93653718Y-79396558D01*
X93796558Y-79253718D01*
X93908786Y-79085756D01*
X93986091Y-78899127D01*
X94025500Y-78701003D01*
X94025500Y-78048997D01*
X93986091Y-77850873D01*
X93908786Y-77664244D01*
X93908784Y-77664241D01*
X93908782Y-77664237D01*
X93799580Y-77500804D01*
X93778702Y-77434126D01*
X93797187Y-77366746D01*
X93814997Y-77344236D01*
X96450320Y-74708914D01*
X96511641Y-74675431D01*
X96560784Y-74674708D01*
X96698757Y-74700500D01*
X96698759Y-74700500D01*
X96921241Y-74700500D01*
X96921243Y-74700500D01*
X97139940Y-74659618D01*
X97347401Y-74579247D01*
X97536562Y-74462124D01*
X97700981Y-74312236D01*
X97835058Y-74134689D01*
X97934229Y-73935528D01*
X97995115Y-73721536D01*
X98015643Y-73500000D01*
X98006330Y-73399500D01*
X97995115Y-73278464D01*
X97995114Y-73278462D01*
X97994271Y-73275500D01*
X97934229Y-73064472D01*
X97928086Y-73052135D01*
X97835061Y-72865316D01*
X97835056Y-72865308D01*
X97700979Y-72687761D01*
X97536562Y-72537876D01*
X97536560Y-72537874D01*
X97347404Y-72420754D01*
X97347398Y-72420752D01*
X97139940Y-72340382D01*
X96921243Y-72299500D01*
X96698757Y-72299500D01*
X96480060Y-72340382D01*
X96423011Y-72362483D01*
X96272601Y-72420752D01*
X96272595Y-72420754D01*
X96083439Y-72537874D01*
X96083437Y-72537876D01*
X95919020Y-72687761D01*
X95784943Y-72865308D01*
X95784938Y-72865316D01*
X95685775Y-73064461D01*
X95685769Y-73064476D01*
X95624885Y-73278462D01*
X95624884Y-73278464D01*
X95604357Y-73499999D01*
X95604357Y-73500000D01*
X95624884Y-73721534D01*
X95630270Y-73740461D01*
X95629684Y-73810328D01*
X95598685Y-73862077D01*
X93372302Y-76088462D01*
X92631286Y-76829478D01*
X92631284Y-76829480D01*
X92575382Y-76885381D01*
X92519481Y-76941282D01*
X92519480Y-76941284D01*
X92502540Y-76970626D01*
X92475151Y-77018063D01*
X92440424Y-77078212D01*
X92440423Y-77078214D01*
X92440423Y-77078215D01*
X92426304Y-77130909D01*
X92414050Y-77176640D01*
X92377684Y-77236300D01*
X92314837Y-77266828D01*
X92245461Y-77258533D01*
X92225385Y-77247648D01*
X92215756Y-77241214D01*
X92139192Y-77209500D01*
X92029127Y-77163909D01*
X92029119Y-77163907D01*
X91831007Y-77124500D01*
X91831003Y-77124500D01*
X91628997Y-77124500D01*
X91628992Y-77124500D01*
X91430880Y-77163907D01*
X91430868Y-77163910D01*
X91350198Y-77197325D01*
X91280729Y-77204794D01*
X91235342Y-77185036D01*
X91235114Y-77185454D01*
X91230447Y-77182905D01*
X91228432Y-77182028D01*
X91227331Y-77181204D01*
X91227330Y-77181203D01*
X91227328Y-77181202D01*
X91092482Y-77130908D01*
X91092483Y-77130908D01*
X91032883Y-77124501D01*
X91032881Y-77124500D01*
X91032873Y-77124500D01*
X91032865Y-77124500D01*
X90110098Y-77124500D01*
X90043059Y-77104815D01*
X90022417Y-77088181D01*
X89057590Y-76123355D01*
X89057588Y-76123352D01*
X88938717Y-76004481D01*
X88938716Y-76004480D01*
X88851904Y-75954360D01*
X88851904Y-75954359D01*
X88851900Y-75954358D01*
X88801785Y-75925423D01*
X88649057Y-75884499D01*
X88490943Y-75884499D01*
X88483347Y-75884499D01*
X88483331Y-75884500D01*
X85309499Y-75884500D01*
X85242460Y-75864815D01*
X85196705Y-75812011D01*
X85185499Y-75760500D01*
X85185499Y-75587129D01*
X85185498Y-75587123D01*
X85185497Y-75587116D01*
X85179091Y-75527517D01*
X85131716Y-75400499D01*
X85128797Y-75392671D01*
X85128795Y-75392668D01*
X85106060Y-75362298D01*
X85051421Y-75289309D01*
X85027004Y-75223848D01*
X85041855Y-75155575D01*
X85051416Y-75140696D01*
X85128796Y-75037331D01*
X85179091Y-74902483D01*
X85185500Y-74842873D01*
X85185500Y-74224500D01*
X85205185Y-74157461D01*
X85257989Y-74111706D01*
X85309500Y-74100500D01*
X88077379Y-74100500D01*
X88144418Y-74120185D01*
X88176333Y-74149773D01*
X88299020Y-74312238D01*
X88463437Y-74462123D01*
X88463439Y-74462125D01*
X88652595Y-74579245D01*
X88652596Y-74579245D01*
X88652599Y-74579247D01*
X88860060Y-74659618D01*
X89078757Y-74700500D01*
X89078759Y-74700500D01*
X89301241Y-74700500D01*
X89301243Y-74700500D01*
X89519940Y-74659618D01*
X89727401Y-74579247D01*
X89916562Y-74462124D01*
X90080981Y-74312236D01*
X90215058Y-74134689D01*
X90314229Y-73935528D01*
X90375115Y-73721536D01*
X90395643Y-73500000D01*
X90386330Y-73399500D01*
X90375115Y-73278464D01*
X90375114Y-73278462D01*
X90374271Y-73275500D01*
X90314229Y-73064472D01*
X90308086Y-73052135D01*
X90215061Y-72865316D01*
X90215056Y-72865308D01*
X90080979Y-72687761D01*
X89916562Y-72537876D01*
X89916560Y-72537874D01*
X89727404Y-72420754D01*
X89727398Y-72420752D01*
X89519940Y-72340382D01*
X89301243Y-72299500D01*
X89078757Y-72299500D01*
X88860060Y-72340382D01*
X88803011Y-72362483D01*
X88652601Y-72420752D01*
X88652595Y-72420754D01*
X88463439Y-72537874D01*
X88463437Y-72537876D01*
X88299020Y-72687761D01*
X88176333Y-72850227D01*
X88120224Y-72891863D01*
X88077379Y-72899500D01*
X85225923Y-72899500D01*
X85158884Y-72879815D01*
X85126657Y-72849811D01*
X85051422Y-72749311D01*
X85027004Y-72683847D01*
X85041855Y-72615574D01*
X85051416Y-72600696D01*
X85128796Y-72497331D01*
X85179091Y-72362483D01*
X85185500Y-72302873D01*
X85185499Y-70507128D01*
X85179091Y-70447517D01*
X85128796Y-70312669D01*
X85051421Y-70209309D01*
X85027004Y-70143848D01*
X85041855Y-70075575D01*
X85051416Y-70060696D01*
X85128796Y-69957331D01*
X85179091Y-69822483D01*
X85185500Y-69762873D01*
X85185500Y-69589500D01*
X85205185Y-69522461D01*
X85257989Y-69476706D01*
X85309500Y-69465500D01*
X85458331Y-69465500D01*
X85458347Y-69465501D01*
X85465943Y-69465501D01*
X85624054Y-69465501D01*
X85624057Y-69465501D01*
X85776785Y-69424577D01*
X85826904Y-69395639D01*
X85913716Y-69345520D01*
X86025520Y-69233716D01*
X86025520Y-69233714D01*
X86035728Y-69223507D01*
X86035730Y-69223504D01*
X96191006Y-59068228D01*
X96191011Y-59068224D01*
X96201214Y-59058020D01*
X96201216Y-59058020D01*
X96313020Y-58946216D01*
X96349218Y-58883516D01*
X96399781Y-58835304D01*
X96413259Y-58829341D01*
X96434831Y-58821296D01*
X96550046Y-58735046D01*
X96636296Y-58619831D01*
X96686591Y-58484983D01*
X96693000Y-58425373D01*
X96692999Y-58396596D01*
X96712681Y-58329560D01*
X96765484Y-58283803D01*
X96834642Y-58273858D01*
X96898199Y-58302881D01*
X96904680Y-58308915D01*
X99363181Y-60767416D01*
X99396666Y-60828739D01*
X99399500Y-60855097D01*
X99399500Y-71580754D01*
X99379815Y-71647793D01*
X99340778Y-71686181D01*
X99273436Y-71727877D01*
X99109020Y-71877761D01*
X98974943Y-72055308D01*
X98974938Y-72055316D01*
X98875775Y-72254461D01*
X98875769Y-72254476D01*
X98814885Y-72468462D01*
X98814884Y-72468464D01*
X98794357Y-72689999D01*
X98794357Y-72690000D01*
X98814884Y-72911535D01*
X98814885Y-72911537D01*
X98875769Y-73125523D01*
X98875775Y-73125538D01*
X98974938Y-73324683D01*
X98974943Y-73324691D01*
X99109020Y-73502238D01*
X99273437Y-73652123D01*
X99273439Y-73652125D01*
X99462595Y-73769245D01*
X99462596Y-73769245D01*
X99462599Y-73769247D01*
X99670060Y-73849618D01*
X99888757Y-73890500D01*
X99888759Y-73890500D01*
X100111241Y-73890500D01*
X100111243Y-73890500D01*
X100329940Y-73849618D01*
X100537401Y-73769247D01*
X100726562Y-73652124D01*
X100890981Y-73502236D01*
X101025058Y-73324689D01*
X101124229Y-73125528D01*
X101185115Y-72911536D01*
X101205643Y-72690000D01*
X101185115Y-72468464D01*
X101124229Y-72254472D01*
X101124224Y-72254461D01*
X101025061Y-72055316D01*
X101025056Y-72055308D01*
X100890979Y-71877761D01*
X100726563Y-71727877D01*
X100726562Y-71727876D01*
X100659221Y-71686180D01*
X100612587Y-71634153D01*
X100600500Y-71580754D01*
X100600500Y-60644060D01*
X100600501Y-60644047D01*
X100600501Y-60475944D01*
X100565986Y-60347135D01*
X100559577Y-60323216D01*
X100559573Y-60323209D01*
X100480524Y-60186290D01*
X100480518Y-60186282D01*
X97636819Y-57342583D01*
X97603334Y-57281260D01*
X97600500Y-57254902D01*
X97600500Y-54920942D01*
X97594594Y-54898903D01*
X97594593Y-54898900D01*
X97591178Y-54886153D01*
X97571979Y-54814501D01*
X97559577Y-54768216D01*
X97530197Y-54717328D01*
X97480524Y-54631290D01*
X97480521Y-54631286D01*
X97480520Y-54631284D01*
X97368716Y-54519480D01*
X97368715Y-54519479D01*
X97364385Y-54515149D01*
X97364374Y-54515139D01*
X95987590Y-53138355D01*
X95987588Y-53138352D01*
X95868717Y-53019481D01*
X95868716Y-53019480D01*
X95762601Y-52958215D01*
X95762600Y-52958214D01*
X95731783Y-52940422D01*
X95658380Y-52920754D01*
X95579057Y-52899499D01*
X95420943Y-52899499D01*
X95413347Y-52899499D01*
X95413331Y-52899500D01*
X85920943Y-52899500D01*
X85768216Y-52940423D01*
X85760706Y-52943534D01*
X85759808Y-52941367D01*
X85703576Y-52954997D01*
X85637554Y-52932133D01*
X85594374Y-52877203D01*
X85585500Y-52831139D01*
X85585500Y-45074060D01*
X85585501Y-45074047D01*
X85585501Y-44905944D01*
X85544576Y-44753214D01*
X85544573Y-44753209D01*
X85465524Y-44616290D01*
X85465518Y-44616282D01*
X85223717Y-44374481D01*
X85223716Y-44374480D01*
X85136904Y-44324360D01*
X85136904Y-44324359D01*
X85136900Y-44324358D01*
X85086785Y-44295423D01*
X84934057Y-44254499D01*
X84775943Y-44254499D01*
X84768347Y-44254499D01*
X84768331Y-44254500D01*
X60255940Y-44254500D01*
X60215019Y-44265464D01*
X60215019Y-44265465D01*
X60177751Y-44275451D01*
X60103214Y-44295423D01*
X60103209Y-44295426D01*
X59966290Y-44374475D01*
X59966282Y-44374481D01*
X51976284Y-52364480D01*
X51549679Y-52791083D01*
X51488356Y-52824568D01*
X51439213Y-52825290D01*
X51301243Y-52799500D01*
X51078757Y-52799500D01*
X50860060Y-52840382D01*
X50728864Y-52891207D01*
X50652601Y-52920752D01*
X50652595Y-52920754D01*
X50463439Y-53037874D01*
X50463437Y-53037876D01*
X50299020Y-53187761D01*
X50164943Y-53365308D01*
X50164938Y-53365316D01*
X50065775Y-53564461D01*
X50065769Y-53564476D01*
X50004885Y-53778462D01*
X50004884Y-53778464D01*
X49984357Y-53999999D01*
X49984357Y-54000000D01*
X50004884Y-54221535D01*
X50004885Y-54221537D01*
X50012956Y-54249903D01*
X50012370Y-54319770D01*
X50001080Y-54345833D01*
X49987869Y-54368716D01*
X49930423Y-54468215D01*
X49889499Y-54620943D01*
X49889499Y-54620945D01*
X49889499Y-54789046D01*
X49889500Y-54789059D01*
X49889500Y-67093330D01*
X49889499Y-67093348D01*
X49889499Y-67259054D01*
X49889498Y-67259054D01*
X48000000Y-67259054D01*
X48000000Y-43124000D01*
X48019685Y-43056961D01*
X48072489Y-43011206D01*
X48124000Y-43000000D01*
X102874857Y-43000000D01*
X102941896Y-43019685D01*
G37*
%TD.AperFunction*%
%TD*%
M02*
