%TF.GenerationSoftware,KiCad,Pcbnew,8.0.0*%
%TF.CreationDate,2024-04-01T00:39:21-03:00*%
%TF.ProjectId,ponderada_sem_6,706f6e64-6572-4616-9461-5f73656d5f36,rev?*%
%TF.SameCoordinates,Original*%
%TF.FileFunction,Legend,Top*%
%TF.FilePolarity,Positive*%
%FSLAX46Y46*%
G04 Gerber Fmt 4.6, Leading zero omitted, Abs format (unit mm)*
G04 Created by KiCad (PCBNEW 8.0.0) date 2024-04-01 00:39:21*
%MOMM*%
%LPD*%
G01*
G04 APERTURE LIST*
%ADD10C,0.150000*%
%ADD11C,0.120000*%
G04 APERTURE END LIST*
D10*
X85242998Y-69255868D02*
X85162185Y-69282805D01*
X85162185Y-69282805D02*
X85081373Y-69363618D01*
X85081373Y-69363618D02*
X85027498Y-69471367D01*
X85027498Y-69471367D02*
X85027498Y-69579117D01*
X85027498Y-69579117D02*
X85054436Y-69659929D01*
X85054436Y-69659929D02*
X85135248Y-69794616D01*
X85135248Y-69794616D02*
X85216060Y-69875428D01*
X85216060Y-69875428D02*
X85350747Y-69956241D01*
X85350747Y-69956241D02*
X85431560Y-69983178D01*
X85431560Y-69983178D02*
X85539309Y-69983178D01*
X85539309Y-69983178D02*
X85647059Y-69929303D01*
X85647059Y-69929303D02*
X85700934Y-69875428D01*
X85700934Y-69875428D02*
X85754808Y-69767679D01*
X85754808Y-69767679D02*
X85754808Y-69713804D01*
X85754808Y-69713804D02*
X85566247Y-69525242D01*
X85566247Y-69525242D02*
X85458497Y-69632992D01*
X86051120Y-69525242D02*
X85485434Y-68959557D01*
X85485434Y-68959557D02*
X85700934Y-68744057D01*
X85700934Y-68744057D02*
X85781746Y-68717120D01*
X85781746Y-68717120D02*
X85835621Y-68717120D01*
X85835621Y-68717120D02*
X85916433Y-68744057D01*
X85916433Y-68744057D02*
X85997245Y-68824870D01*
X85997245Y-68824870D02*
X86024182Y-68905682D01*
X86024182Y-68905682D02*
X86024182Y-68959557D01*
X86024182Y-68959557D02*
X85997245Y-69040369D01*
X85997245Y-69040369D02*
X85781746Y-69255868D01*
X86078057Y-68474683D02*
X86078057Y-68420809D01*
X86078057Y-68420809D02*
X86104995Y-68339996D01*
X86104995Y-68339996D02*
X86239682Y-68205309D01*
X86239682Y-68205309D02*
X86320494Y-68178372D01*
X86320494Y-68178372D02*
X86374369Y-68178372D01*
X86374369Y-68178372D02*
X86455181Y-68205309D01*
X86455181Y-68205309D02*
X86509056Y-68259184D01*
X86509056Y-68259184D02*
X86562930Y-68366934D01*
X86562930Y-68366934D02*
X86562930Y-69013431D01*
X86562930Y-69013431D02*
X86913117Y-68663245D01*
X86832305Y-67612686D02*
X86724555Y-67720436D01*
X86724555Y-67720436D02*
X86697618Y-67801248D01*
X86697618Y-67801248D02*
X86697618Y-67855123D01*
X86697618Y-67855123D02*
X86724555Y-67989810D01*
X86724555Y-67989810D02*
X86805367Y-68124497D01*
X86805367Y-68124497D02*
X87020866Y-68339996D01*
X87020866Y-68339996D02*
X87101679Y-68366934D01*
X87101679Y-68366934D02*
X87155553Y-68366934D01*
X87155553Y-68366934D02*
X87236366Y-68339996D01*
X87236366Y-68339996D02*
X87344115Y-68232247D01*
X87344115Y-68232247D02*
X87371053Y-68151434D01*
X87371053Y-68151434D02*
X87371053Y-68097560D01*
X87371053Y-68097560D02*
X87344115Y-68016747D01*
X87344115Y-68016747D02*
X87209428Y-67882060D01*
X87209428Y-67882060D02*
X87128616Y-67855123D01*
X87128616Y-67855123D02*
X87074741Y-67855123D01*
X87074741Y-67855123D02*
X86993929Y-67882060D01*
X86993929Y-67882060D02*
X86886179Y-67989810D01*
X86886179Y-67989810D02*
X86859242Y-68070622D01*
X86859242Y-68070622D02*
X86859242Y-68124497D01*
X86859242Y-68124497D02*
X86886179Y-68205309D01*
X90968095Y-74269819D02*
X91539523Y-74269819D01*
X91253809Y-75269819D02*
X91253809Y-74269819D01*
X92396666Y-75269819D02*
X91825238Y-75269819D01*
X92110952Y-75269819D02*
X92110952Y-74269819D01*
X92110952Y-74269819D02*
X92015714Y-74412676D01*
X92015714Y-74412676D02*
X91920476Y-74507914D01*
X91920476Y-74507914D02*
X91825238Y-74555533D01*
X88431009Y-88380952D02*
X88478628Y-88238095D01*
X88478628Y-88238095D02*
X88526247Y-88190476D01*
X88526247Y-88190476D02*
X88621485Y-88142857D01*
X88621485Y-88142857D02*
X88764342Y-88142857D01*
X88764342Y-88142857D02*
X88859580Y-88190476D01*
X88859580Y-88190476D02*
X88907200Y-88238095D01*
X88907200Y-88238095D02*
X88954819Y-88333333D01*
X88954819Y-88333333D02*
X88954819Y-88714285D01*
X88954819Y-88714285D02*
X87954819Y-88714285D01*
X87954819Y-88714285D02*
X87954819Y-88380952D01*
X87954819Y-88380952D02*
X88002438Y-88285714D01*
X88002438Y-88285714D02*
X88050057Y-88238095D01*
X88050057Y-88238095D02*
X88145295Y-88190476D01*
X88145295Y-88190476D02*
X88240533Y-88190476D01*
X88240533Y-88190476D02*
X88335771Y-88238095D01*
X88335771Y-88238095D02*
X88383390Y-88285714D01*
X88383390Y-88285714D02*
X88431009Y-88380952D01*
X88431009Y-88380952D02*
X88431009Y-88714285D01*
X87954819Y-87809523D02*
X87954819Y-87142857D01*
X87954819Y-87142857D02*
X88954819Y-87809523D01*
X88954819Y-87809523D02*
X88954819Y-87142857D01*
X88954819Y-86238095D02*
X88954819Y-86809523D01*
X88954819Y-86523809D02*
X87954819Y-86523809D01*
X87954819Y-86523809D02*
X88097676Y-86619047D01*
X88097676Y-86619047D02*
X88192914Y-86714285D01*
X88192914Y-86714285D02*
X88240533Y-86809523D01*
X93773866Y-91680951D02*
X93773866Y-90919047D01*
X94154819Y-91299999D02*
X93392914Y-91299999D01*
X72383095Y-69589819D02*
X72383095Y-70399342D01*
X72383095Y-70399342D02*
X72430714Y-70494580D01*
X72430714Y-70494580D02*
X72478333Y-70542200D01*
X72478333Y-70542200D02*
X72573571Y-70589819D01*
X72573571Y-70589819D02*
X72764047Y-70589819D01*
X72764047Y-70589819D02*
X72859285Y-70542200D01*
X72859285Y-70542200D02*
X72906904Y-70494580D01*
X72906904Y-70494580D02*
X72954523Y-70399342D01*
X72954523Y-70399342D02*
X72954523Y-69589819D01*
X73954523Y-70589819D02*
X73383095Y-70589819D01*
X73668809Y-70589819D02*
X73668809Y-69589819D01*
X73668809Y-69589819D02*
X73573571Y-69732676D01*
X73573571Y-69732676D02*
X73478333Y-69827914D01*
X73478333Y-69827914D02*
X73383095Y-69875533D01*
X58988998Y-81955868D02*
X58908185Y-81982805D01*
X58908185Y-81982805D02*
X58827373Y-82063618D01*
X58827373Y-82063618D02*
X58773498Y-82171367D01*
X58773498Y-82171367D02*
X58773498Y-82279117D01*
X58773498Y-82279117D02*
X58800436Y-82359929D01*
X58800436Y-82359929D02*
X58881248Y-82494616D01*
X58881248Y-82494616D02*
X58962060Y-82575428D01*
X58962060Y-82575428D02*
X59096747Y-82656241D01*
X59096747Y-82656241D02*
X59177560Y-82683178D01*
X59177560Y-82683178D02*
X59285309Y-82683178D01*
X59285309Y-82683178D02*
X59393059Y-82629303D01*
X59393059Y-82629303D02*
X59446934Y-82575428D01*
X59446934Y-82575428D02*
X59500808Y-82467679D01*
X59500808Y-82467679D02*
X59500808Y-82413804D01*
X59500808Y-82413804D02*
X59312247Y-82225242D01*
X59312247Y-82225242D02*
X59204497Y-82332992D01*
X59797120Y-82225242D02*
X59231434Y-81659557D01*
X59231434Y-81659557D02*
X59446934Y-81444057D01*
X59446934Y-81444057D02*
X59527746Y-81417120D01*
X59527746Y-81417120D02*
X59581621Y-81417120D01*
X59581621Y-81417120D02*
X59662433Y-81444057D01*
X59662433Y-81444057D02*
X59743245Y-81524870D01*
X59743245Y-81524870D02*
X59770182Y-81605682D01*
X59770182Y-81605682D02*
X59770182Y-81659557D01*
X59770182Y-81659557D02*
X59743245Y-81740369D01*
X59743245Y-81740369D02*
X59527746Y-81955868D01*
X60659117Y-81363245D02*
X60335868Y-81686494D01*
X60497492Y-81524870D02*
X59931807Y-80959184D01*
X59931807Y-80959184D02*
X59958744Y-81093871D01*
X59958744Y-81093871D02*
X59958744Y-81201621D01*
X59958744Y-81201621D02*
X59931807Y-81282433D01*
X61197865Y-80824497D02*
X60874616Y-81147746D01*
X61036240Y-80986121D02*
X60470555Y-80420436D01*
X60470555Y-80420436D02*
X60497492Y-80555123D01*
X60497492Y-80555123D02*
X60497492Y-80662873D01*
X60497492Y-80662873D02*
X60470555Y-80743685D01*
X85296873Y-64876240D02*
X85566247Y-64606866D01*
X85404623Y-65091739D02*
X85027499Y-64337492D01*
X85027499Y-64337492D02*
X85781746Y-64714615D01*
X85727871Y-63690994D02*
X85647059Y-63717932D01*
X85647059Y-63717932D02*
X85566247Y-63798744D01*
X85566247Y-63798744D02*
X85512372Y-63906494D01*
X85512372Y-63906494D02*
X85512372Y-64014243D01*
X85512372Y-64014243D02*
X85539310Y-64095055D01*
X85539310Y-64095055D02*
X85620122Y-64229742D01*
X85620122Y-64229742D02*
X85700934Y-64310555D01*
X85700934Y-64310555D02*
X85835621Y-64391367D01*
X85835621Y-64391367D02*
X85916433Y-64418304D01*
X85916433Y-64418304D02*
X86024183Y-64418304D01*
X86024183Y-64418304D02*
X86131932Y-64364429D01*
X86131932Y-64364429D02*
X86185807Y-64310555D01*
X86185807Y-64310555D02*
X86239682Y-64202805D01*
X86239682Y-64202805D02*
X86239682Y-64148930D01*
X86239682Y-64148930D02*
X86051120Y-63960368D01*
X86051120Y-63960368D02*
X85943371Y-64068118D01*
X86535993Y-63960368D02*
X85970308Y-63394683D01*
X85970308Y-63394683D02*
X86859242Y-63637120D01*
X86859242Y-63637120D02*
X86293557Y-63071434D01*
X87128616Y-63367746D02*
X86562931Y-62802060D01*
X86562931Y-62802060D02*
X86697618Y-62667373D01*
X86697618Y-62667373D02*
X86805367Y-62613498D01*
X86805367Y-62613498D02*
X86913117Y-62613498D01*
X86913117Y-62613498D02*
X86993929Y-62640436D01*
X86993929Y-62640436D02*
X87128616Y-62721248D01*
X87128616Y-62721248D02*
X87209428Y-62802060D01*
X87209428Y-62802060D02*
X87290241Y-62936747D01*
X87290241Y-62936747D02*
X87317178Y-63017560D01*
X87317178Y-63017560D02*
X87317178Y-63125309D01*
X87317178Y-63125309D02*
X87263303Y-63233059D01*
X87263303Y-63233059D02*
X87128616Y-63367746D01*
X85231435Y-89333431D02*
X85150623Y-89360368D01*
X85150623Y-89360368D02*
X85069811Y-89441180D01*
X85069811Y-89441180D02*
X85015936Y-89548930D01*
X85015936Y-89548930D02*
X85015936Y-89656680D01*
X85015936Y-89656680D02*
X85042873Y-89737492D01*
X85042873Y-89737492D02*
X85123685Y-89872179D01*
X85123685Y-89872179D02*
X85204498Y-89952991D01*
X85204498Y-89952991D02*
X85339185Y-90033803D01*
X85339185Y-90033803D02*
X85419997Y-90060741D01*
X85419997Y-90060741D02*
X85527746Y-90060741D01*
X85527746Y-90060741D02*
X85635496Y-90006866D01*
X85635496Y-90006866D02*
X85689371Y-89952991D01*
X85689371Y-89952991D02*
X85743246Y-89845241D01*
X85743246Y-89845241D02*
X85743246Y-89791367D01*
X85743246Y-89791367D02*
X85554684Y-89602805D01*
X85554684Y-89602805D02*
X85446934Y-89710554D01*
X86039557Y-89602805D02*
X85473872Y-89037119D01*
X85473872Y-89037119D02*
X86362806Y-89279556D01*
X86362806Y-89279556D02*
X85797120Y-88713871D01*
X86632180Y-89010182D02*
X86066494Y-88444497D01*
X86066494Y-88444497D02*
X86201181Y-88309810D01*
X86201181Y-88309810D02*
X86308931Y-88255935D01*
X86308931Y-88255935D02*
X86416680Y-88255935D01*
X86416680Y-88255935D02*
X86497493Y-88282872D01*
X86497493Y-88282872D02*
X86632180Y-88363685D01*
X86632180Y-88363685D02*
X86712992Y-88444497D01*
X86712992Y-88444497D02*
X86793804Y-88579184D01*
X86793804Y-88579184D02*
X86820741Y-88659996D01*
X86820741Y-88659996D02*
X86820741Y-88767746D01*
X86820741Y-88767746D02*
X86766867Y-88875495D01*
X86766867Y-88875495D02*
X86632180Y-89010182D01*
X85098406Y-46662585D02*
X85852653Y-47039709D01*
X85852653Y-47039709D02*
X85475529Y-46285462D01*
X86122027Y-46177712D02*
X86229776Y-46123838D01*
X86229776Y-46123838D02*
X86283651Y-46123838D01*
X86283651Y-46123838D02*
X86364463Y-46150775D01*
X86364463Y-46150775D02*
X86445276Y-46231587D01*
X86445276Y-46231587D02*
X86472213Y-46312399D01*
X86472213Y-46312399D02*
X86472213Y-46366274D01*
X86472213Y-46366274D02*
X86445276Y-46447086D01*
X86445276Y-46447086D02*
X86229776Y-46662586D01*
X86229776Y-46662586D02*
X85664091Y-46096900D01*
X85664091Y-46096900D02*
X85852653Y-45908338D01*
X85852653Y-45908338D02*
X85933465Y-45881401D01*
X85933465Y-45881401D02*
X85987340Y-45881401D01*
X85987340Y-45881401D02*
X86068152Y-45908338D01*
X86068152Y-45908338D02*
X86122027Y-45962213D01*
X86122027Y-45962213D02*
X86148964Y-46043025D01*
X86148964Y-46043025D02*
X86148964Y-46096900D01*
X86148964Y-46096900D02*
X86122027Y-46177712D01*
X86122027Y-46177712D02*
X85933465Y-46366274D01*
X86229776Y-45531215D02*
X86687712Y-45989151D01*
X86687712Y-45989151D02*
X86768524Y-46016088D01*
X86768524Y-46016088D02*
X86822399Y-46016088D01*
X86822399Y-46016088D02*
X86903211Y-45989151D01*
X86903211Y-45989151D02*
X87010961Y-45881401D01*
X87010961Y-45881401D02*
X87037898Y-45800589D01*
X87037898Y-45800589D02*
X87037898Y-45746714D01*
X87037898Y-45746714D02*
X87010961Y-45665902D01*
X87010961Y-45665902D02*
X86553025Y-45207966D01*
X87334210Y-45504277D02*
X87441959Y-45450403D01*
X87441959Y-45450403D02*
X87576646Y-45315716D01*
X87576646Y-45315716D02*
X87603584Y-45234903D01*
X87603584Y-45234903D02*
X87603584Y-45181029D01*
X87603584Y-45181029D02*
X87576646Y-45100216D01*
X87576646Y-45100216D02*
X87522771Y-45046342D01*
X87522771Y-45046342D02*
X87441959Y-45019404D01*
X87441959Y-45019404D02*
X87388084Y-45019404D01*
X87388084Y-45019404D02*
X87307272Y-45046342D01*
X87307272Y-45046342D02*
X87172585Y-45127154D01*
X87172585Y-45127154D02*
X87091773Y-45154091D01*
X87091773Y-45154091D02*
X87037898Y-45154091D01*
X87037898Y-45154091D02*
X86957086Y-45127154D01*
X86957086Y-45127154D02*
X86903211Y-45073279D01*
X86903211Y-45073279D02*
X86876274Y-44992467D01*
X86876274Y-44992467D02*
X86876274Y-44938592D01*
X86876274Y-44938592D02*
X86903211Y-44857780D01*
X86903211Y-44857780D02*
X87037898Y-44723093D01*
X87037898Y-44723093D02*
X87145648Y-44669218D01*
X85231435Y-51233431D02*
X85150623Y-51260368D01*
X85150623Y-51260368D02*
X85069811Y-51341180D01*
X85069811Y-51341180D02*
X85015936Y-51448930D01*
X85015936Y-51448930D02*
X85015936Y-51556680D01*
X85015936Y-51556680D02*
X85042873Y-51637492D01*
X85042873Y-51637492D02*
X85123685Y-51772179D01*
X85123685Y-51772179D02*
X85204498Y-51852991D01*
X85204498Y-51852991D02*
X85339185Y-51933803D01*
X85339185Y-51933803D02*
X85419997Y-51960741D01*
X85419997Y-51960741D02*
X85527746Y-51960741D01*
X85527746Y-51960741D02*
X85635496Y-51906866D01*
X85635496Y-51906866D02*
X85689371Y-51852991D01*
X85689371Y-51852991D02*
X85743246Y-51745241D01*
X85743246Y-51745241D02*
X85743246Y-51691367D01*
X85743246Y-51691367D02*
X85554684Y-51502805D01*
X85554684Y-51502805D02*
X85446934Y-51610554D01*
X86039557Y-51502805D02*
X85473872Y-50937119D01*
X85473872Y-50937119D02*
X86362806Y-51179556D01*
X86362806Y-51179556D02*
X85797120Y-50613871D01*
X86632180Y-50910182D02*
X86066494Y-50344497D01*
X86066494Y-50344497D02*
X86201181Y-50209810D01*
X86201181Y-50209810D02*
X86308931Y-50155935D01*
X86308931Y-50155935D02*
X86416680Y-50155935D01*
X86416680Y-50155935D02*
X86497493Y-50182872D01*
X86497493Y-50182872D02*
X86632180Y-50263685D01*
X86632180Y-50263685D02*
X86712992Y-50344497D01*
X86712992Y-50344497D02*
X86793804Y-50479184D01*
X86793804Y-50479184D02*
X86820741Y-50559996D01*
X86820741Y-50559996D02*
X86820741Y-50667746D01*
X86820741Y-50667746D02*
X86766867Y-50775495D01*
X86766867Y-50775495D02*
X86632180Y-50910182D01*
X59134998Y-87035868D02*
X59054185Y-87062805D01*
X59054185Y-87062805D02*
X58973373Y-87143618D01*
X58973373Y-87143618D02*
X58919498Y-87251367D01*
X58919498Y-87251367D02*
X58919498Y-87359117D01*
X58919498Y-87359117D02*
X58946436Y-87439929D01*
X58946436Y-87439929D02*
X59027248Y-87574616D01*
X59027248Y-87574616D02*
X59108060Y-87655428D01*
X59108060Y-87655428D02*
X59242747Y-87736241D01*
X59242747Y-87736241D02*
X59323560Y-87763178D01*
X59323560Y-87763178D02*
X59431309Y-87763178D01*
X59431309Y-87763178D02*
X59539059Y-87709303D01*
X59539059Y-87709303D02*
X59592934Y-87655428D01*
X59592934Y-87655428D02*
X59646808Y-87547679D01*
X59646808Y-87547679D02*
X59646808Y-87493804D01*
X59646808Y-87493804D02*
X59458247Y-87305242D01*
X59458247Y-87305242D02*
X59350497Y-87412992D01*
X59943120Y-87305242D02*
X59377434Y-86739557D01*
X59377434Y-86739557D02*
X59592934Y-86524057D01*
X59592934Y-86524057D02*
X59673746Y-86497120D01*
X59673746Y-86497120D02*
X59727621Y-86497120D01*
X59727621Y-86497120D02*
X59808433Y-86524057D01*
X59808433Y-86524057D02*
X59889245Y-86604870D01*
X59889245Y-86604870D02*
X59916182Y-86685682D01*
X59916182Y-86685682D02*
X59916182Y-86739557D01*
X59916182Y-86739557D02*
X59889245Y-86820369D01*
X59889245Y-86820369D02*
X59673746Y-87035868D01*
X60805117Y-86443245D02*
X60481868Y-86766494D01*
X60643492Y-86604870D02*
X60077807Y-86039184D01*
X60077807Y-86039184D02*
X60104744Y-86173871D01*
X60104744Y-86173871D02*
X60104744Y-86281621D01*
X60104744Y-86281621D02*
X60077807Y-86362433D01*
X60427993Y-85688998D02*
X60778179Y-85338812D01*
X60778179Y-85338812D02*
X60805117Y-85742873D01*
X60805117Y-85742873D02*
X60885929Y-85662060D01*
X60885929Y-85662060D02*
X60966741Y-85635123D01*
X60966741Y-85635123D02*
X61020616Y-85635123D01*
X61020616Y-85635123D02*
X61101428Y-85662060D01*
X61101428Y-85662060D02*
X61236115Y-85796747D01*
X61236115Y-85796747D02*
X61263053Y-85877560D01*
X61263053Y-85877560D02*
X61263053Y-85931434D01*
X61263053Y-85931434D02*
X61236115Y-86012247D01*
X61236115Y-86012247D02*
X61074491Y-86173871D01*
X61074491Y-86173871D02*
X60993679Y-86200808D01*
X60993679Y-86200808D02*
X60939804Y-86200808D01*
X68655064Y-69534049D02*
X68924438Y-69264675D01*
X68762813Y-69749549D02*
X68385690Y-68995301D01*
X68385690Y-68995301D02*
X69139937Y-69372425D01*
X69328499Y-69183863D02*
X68762813Y-68618178D01*
X68762813Y-68618178D02*
X68897500Y-68483491D01*
X68897500Y-68483491D02*
X69005250Y-68429616D01*
X69005250Y-68429616D02*
X69112999Y-68429616D01*
X69112999Y-68429616D02*
X69193812Y-68456553D01*
X69193812Y-68456553D02*
X69328499Y-68537366D01*
X69328499Y-68537366D02*
X69409311Y-68618178D01*
X69409311Y-68618178D02*
X69490123Y-68752865D01*
X69490123Y-68752865D02*
X69517060Y-68833677D01*
X69517060Y-68833677D02*
X69517060Y-68941427D01*
X69517060Y-68941427D02*
X69463186Y-69049176D01*
X69463186Y-69049176D02*
X69328499Y-69183863D01*
X70163558Y-68241054D02*
X70163558Y-68294929D01*
X70163558Y-68294929D02*
X70109683Y-68402679D01*
X70109683Y-68402679D02*
X70055808Y-68456553D01*
X70055808Y-68456553D02*
X69948059Y-68510428D01*
X69948059Y-68510428D02*
X69840309Y-68510428D01*
X69840309Y-68510428D02*
X69759497Y-68483491D01*
X69759497Y-68483491D02*
X69624810Y-68402679D01*
X69624810Y-68402679D02*
X69543998Y-68321866D01*
X69543998Y-68321866D02*
X69463186Y-68187179D01*
X69463186Y-68187179D02*
X69436248Y-68106367D01*
X69436248Y-68106367D02*
X69436248Y-67998618D01*
X69436248Y-67998618D02*
X69490123Y-67890868D01*
X69490123Y-67890868D02*
X69543998Y-67836993D01*
X69543998Y-67836993D02*
X69651747Y-67783118D01*
X69651747Y-67783118D02*
X69705622Y-67783118D01*
X70379057Y-68241054D02*
X70810056Y-67810056D01*
X70244370Y-67136621D02*
X70998618Y-67513744D01*
X70998618Y-67513744D02*
X70621494Y-66759497D01*
X71698990Y-66813372D02*
X71241054Y-66732560D01*
X71375741Y-67136621D02*
X70810056Y-66570935D01*
X70810056Y-66570935D02*
X71025555Y-66355436D01*
X71025555Y-66355436D02*
X71106367Y-66328499D01*
X71106367Y-66328499D02*
X71160242Y-66328499D01*
X71160242Y-66328499D02*
X71241054Y-66355436D01*
X71241054Y-66355436D02*
X71321866Y-66436248D01*
X71321866Y-66436248D02*
X71348804Y-66517061D01*
X71348804Y-66517061D02*
X71348804Y-66570935D01*
X71348804Y-66570935D02*
X71321866Y-66651748D01*
X71321866Y-66651748D02*
X71106367Y-66867247D01*
X71645115Y-66274624D02*
X71833677Y-66086062D01*
X72210800Y-66301561D02*
X71941426Y-66570935D01*
X71941426Y-66570935D02*
X71375741Y-66005250D01*
X71375741Y-66005250D02*
X71645115Y-65735876D01*
X72345488Y-65574251D02*
X72156926Y-65762813D01*
X72453237Y-66059125D02*
X71887552Y-65493439D01*
X71887552Y-65493439D02*
X72156926Y-65224065D01*
X59658372Y-58826494D02*
X59577560Y-58853431D01*
X59577560Y-58853431D02*
X59496748Y-58934243D01*
X59496748Y-58934243D02*
X59442873Y-59041993D01*
X59442873Y-59041993D02*
X59442873Y-59149742D01*
X59442873Y-59149742D02*
X59469810Y-59230555D01*
X59469810Y-59230555D02*
X59550623Y-59365242D01*
X59550623Y-59365242D02*
X59631435Y-59446054D01*
X59631435Y-59446054D02*
X59766122Y-59526866D01*
X59766122Y-59526866D02*
X59846934Y-59553803D01*
X59846934Y-59553803D02*
X59954684Y-59553803D01*
X59954684Y-59553803D02*
X60062433Y-59499929D01*
X60062433Y-59499929D02*
X60116308Y-59446054D01*
X60116308Y-59446054D02*
X60170183Y-59338304D01*
X60170183Y-59338304D02*
X60170183Y-59284429D01*
X60170183Y-59284429D02*
X59981621Y-59095868D01*
X59981621Y-59095868D02*
X59873871Y-59203617D01*
X60466494Y-59095868D02*
X59900809Y-58530182D01*
X59900809Y-58530182D02*
X60116308Y-58314683D01*
X60116308Y-58314683D02*
X60197120Y-58287746D01*
X60197120Y-58287746D02*
X60250995Y-58287746D01*
X60250995Y-58287746D02*
X60331807Y-58314683D01*
X60331807Y-58314683D02*
X60412619Y-58395495D01*
X60412619Y-58395495D02*
X60439557Y-58476307D01*
X60439557Y-58476307D02*
X60439557Y-58530182D01*
X60439557Y-58530182D02*
X60412619Y-58610994D01*
X60412619Y-58610994D02*
X60197120Y-58826494D01*
X60897493Y-57910622D02*
X61274616Y-58287746D01*
X60547306Y-57829810D02*
X60816680Y-58368558D01*
X60816680Y-58368558D02*
X61166867Y-58018372D01*
X59758372Y-68956494D02*
X59677560Y-68983431D01*
X59677560Y-68983431D02*
X59596748Y-69064243D01*
X59596748Y-69064243D02*
X59542873Y-69171993D01*
X59542873Y-69171993D02*
X59542873Y-69279742D01*
X59542873Y-69279742D02*
X59569810Y-69360555D01*
X59569810Y-69360555D02*
X59650623Y-69495242D01*
X59650623Y-69495242D02*
X59731435Y-69576054D01*
X59731435Y-69576054D02*
X59866122Y-69656866D01*
X59866122Y-69656866D02*
X59946934Y-69683803D01*
X59946934Y-69683803D02*
X60054684Y-69683803D01*
X60054684Y-69683803D02*
X60162433Y-69629929D01*
X60162433Y-69629929D02*
X60216308Y-69576054D01*
X60216308Y-69576054D02*
X60270183Y-69468304D01*
X60270183Y-69468304D02*
X60270183Y-69414429D01*
X60270183Y-69414429D02*
X60081621Y-69225868D01*
X60081621Y-69225868D02*
X59973871Y-69333617D01*
X60566494Y-69225868D02*
X60000809Y-68660182D01*
X60000809Y-68660182D02*
X60216308Y-68444683D01*
X60216308Y-68444683D02*
X60297120Y-68417746D01*
X60297120Y-68417746D02*
X60350995Y-68417746D01*
X60350995Y-68417746D02*
X60431807Y-68444683D01*
X60431807Y-68444683D02*
X60512619Y-68525495D01*
X60512619Y-68525495D02*
X60539557Y-68606307D01*
X60539557Y-68606307D02*
X60539557Y-68660182D01*
X60539557Y-68660182D02*
X60512619Y-68740994D01*
X60512619Y-68740994D02*
X60297120Y-68956494D01*
X60512619Y-68148372D02*
X60889743Y-67771248D01*
X60889743Y-67771248D02*
X61212992Y-68579370D01*
X59134998Y-94655868D02*
X59054185Y-94682805D01*
X59054185Y-94682805D02*
X58973373Y-94763618D01*
X58973373Y-94763618D02*
X58919498Y-94871367D01*
X58919498Y-94871367D02*
X58919498Y-94979117D01*
X58919498Y-94979117D02*
X58946436Y-95059929D01*
X58946436Y-95059929D02*
X59027248Y-95194616D01*
X59027248Y-95194616D02*
X59108060Y-95275428D01*
X59108060Y-95275428D02*
X59242747Y-95356241D01*
X59242747Y-95356241D02*
X59323560Y-95383178D01*
X59323560Y-95383178D02*
X59431309Y-95383178D01*
X59431309Y-95383178D02*
X59539059Y-95329303D01*
X59539059Y-95329303D02*
X59592934Y-95275428D01*
X59592934Y-95275428D02*
X59646808Y-95167679D01*
X59646808Y-95167679D02*
X59646808Y-95113804D01*
X59646808Y-95113804D02*
X59458247Y-94925242D01*
X59458247Y-94925242D02*
X59350497Y-95032992D01*
X59943120Y-94925242D02*
X59377434Y-94359557D01*
X59377434Y-94359557D02*
X59592934Y-94144057D01*
X59592934Y-94144057D02*
X59673746Y-94117120D01*
X59673746Y-94117120D02*
X59727621Y-94117120D01*
X59727621Y-94117120D02*
X59808433Y-94144057D01*
X59808433Y-94144057D02*
X59889245Y-94224870D01*
X59889245Y-94224870D02*
X59916182Y-94305682D01*
X59916182Y-94305682D02*
X59916182Y-94359557D01*
X59916182Y-94359557D02*
X59889245Y-94440369D01*
X59889245Y-94440369D02*
X59673746Y-94655868D01*
X60805117Y-94063245D02*
X60481868Y-94386494D01*
X60643492Y-94224870D02*
X60077807Y-93659184D01*
X60077807Y-93659184D02*
X60104744Y-93793871D01*
X60104744Y-93793871D02*
X60104744Y-93901621D01*
X60104744Y-93901621D02*
X60077807Y-93982433D01*
X60751242Y-92985749D02*
X60481868Y-93255123D01*
X60481868Y-93255123D02*
X60724305Y-93551434D01*
X60724305Y-93551434D02*
X60724305Y-93497560D01*
X60724305Y-93497560D02*
X60751242Y-93416747D01*
X60751242Y-93416747D02*
X60885929Y-93282060D01*
X60885929Y-93282060D02*
X60966741Y-93255123D01*
X60966741Y-93255123D02*
X61020616Y-93255123D01*
X61020616Y-93255123D02*
X61101428Y-93282060D01*
X61101428Y-93282060D02*
X61236115Y-93416747D01*
X61236115Y-93416747D02*
X61263053Y-93497560D01*
X61263053Y-93497560D02*
X61263053Y-93551434D01*
X61263053Y-93551434D02*
X61236115Y-93632247D01*
X61236115Y-93632247D02*
X61101428Y-93766934D01*
X61101428Y-93766934D02*
X61020616Y-93793871D01*
X61020616Y-93793871D02*
X60966741Y-93793871D01*
X85242998Y-92115868D02*
X85162185Y-92142805D01*
X85162185Y-92142805D02*
X85081373Y-92223618D01*
X85081373Y-92223618D02*
X85027498Y-92331367D01*
X85027498Y-92331367D02*
X85027498Y-92439117D01*
X85027498Y-92439117D02*
X85054436Y-92519929D01*
X85054436Y-92519929D02*
X85135248Y-92654616D01*
X85135248Y-92654616D02*
X85216060Y-92735428D01*
X85216060Y-92735428D02*
X85350747Y-92816241D01*
X85350747Y-92816241D02*
X85431560Y-92843178D01*
X85431560Y-92843178D02*
X85539309Y-92843178D01*
X85539309Y-92843178D02*
X85647059Y-92789303D01*
X85647059Y-92789303D02*
X85700934Y-92735428D01*
X85700934Y-92735428D02*
X85754808Y-92627679D01*
X85754808Y-92627679D02*
X85754808Y-92573804D01*
X85754808Y-92573804D02*
X85566247Y-92385242D01*
X85566247Y-92385242D02*
X85458497Y-92492992D01*
X86051120Y-92385242D02*
X85485434Y-91819557D01*
X85485434Y-91819557D02*
X85700934Y-91604057D01*
X85700934Y-91604057D02*
X85781746Y-91577120D01*
X85781746Y-91577120D02*
X85835621Y-91577120D01*
X85835621Y-91577120D02*
X85916433Y-91604057D01*
X85916433Y-91604057D02*
X85997245Y-91684870D01*
X85997245Y-91684870D02*
X86024182Y-91765682D01*
X86024182Y-91765682D02*
X86024182Y-91819557D01*
X86024182Y-91819557D02*
X85997245Y-91900369D01*
X85997245Y-91900369D02*
X85781746Y-92115868D01*
X86913117Y-91523245D02*
X86589868Y-91846494D01*
X86751492Y-91684870D02*
X86185807Y-91119184D01*
X86185807Y-91119184D02*
X86212744Y-91253871D01*
X86212744Y-91253871D02*
X86212744Y-91361621D01*
X86212744Y-91361621D02*
X86185807Y-91442433D01*
X86535993Y-90768998D02*
X86913117Y-90391874D01*
X86913117Y-90391874D02*
X87236366Y-91199996D01*
X65635475Y-96659200D02*
X65749761Y-96697295D01*
X65749761Y-96697295D02*
X65940237Y-96697295D01*
X65940237Y-96697295D02*
X66016428Y-96659200D01*
X66016428Y-96659200D02*
X66054523Y-96621104D01*
X66054523Y-96621104D02*
X66092618Y-96544914D01*
X66092618Y-96544914D02*
X66092618Y-96468723D01*
X66092618Y-96468723D02*
X66054523Y-96392533D01*
X66054523Y-96392533D02*
X66016428Y-96354438D01*
X66016428Y-96354438D02*
X65940237Y-96316342D01*
X65940237Y-96316342D02*
X65787856Y-96278247D01*
X65787856Y-96278247D02*
X65711666Y-96240152D01*
X65711666Y-96240152D02*
X65673571Y-96202057D01*
X65673571Y-96202057D02*
X65635475Y-96125866D01*
X65635475Y-96125866D02*
X65635475Y-96049676D01*
X65635475Y-96049676D02*
X65673571Y-95973485D01*
X65673571Y-95973485D02*
X65711666Y-95935390D01*
X65711666Y-95935390D02*
X65787856Y-95897295D01*
X65787856Y-95897295D02*
X65978333Y-95897295D01*
X65978333Y-95897295D02*
X66092618Y-95935390D01*
X66359285Y-95897295D02*
X66549761Y-96697295D01*
X66549761Y-96697295D02*
X66702142Y-96125866D01*
X66702142Y-96125866D02*
X66854523Y-96697295D01*
X66854523Y-96697295D02*
X67045000Y-95897295D01*
X67806905Y-96621104D02*
X67768809Y-96659200D01*
X67768809Y-96659200D02*
X67654524Y-96697295D01*
X67654524Y-96697295D02*
X67578333Y-96697295D01*
X67578333Y-96697295D02*
X67464047Y-96659200D01*
X67464047Y-96659200D02*
X67387857Y-96583009D01*
X67387857Y-96583009D02*
X67349762Y-96506819D01*
X67349762Y-96506819D02*
X67311666Y-96354438D01*
X67311666Y-96354438D02*
X67311666Y-96240152D01*
X67311666Y-96240152D02*
X67349762Y-96087771D01*
X67349762Y-96087771D02*
X67387857Y-96011580D01*
X67387857Y-96011580D02*
X67464047Y-95935390D01*
X67464047Y-95935390D02*
X67578333Y-95897295D01*
X67578333Y-95897295D02*
X67654524Y-95897295D01*
X67654524Y-95897295D02*
X67768809Y-95935390D01*
X67768809Y-95935390D02*
X67806905Y-95973485D01*
X68530714Y-96697295D02*
X68149762Y-96697295D01*
X68149762Y-96697295D02*
X68149762Y-95897295D01*
X68797381Y-96697295D02*
X68797381Y-95897295D01*
X69254524Y-96697295D02*
X68911666Y-96240152D01*
X69254524Y-95897295D02*
X68797381Y-96354438D01*
X74222407Y-66158584D02*
X74572593Y-65808398D01*
X74572593Y-65808398D02*
X74599531Y-66212459D01*
X74599531Y-66212459D02*
X74680343Y-66131646D01*
X74680343Y-66131646D02*
X74761155Y-66104709D01*
X74761155Y-66104709D02*
X74815030Y-66104709D01*
X74815030Y-66104709D02*
X74895842Y-66131646D01*
X74895842Y-66131646D02*
X75030529Y-66266333D01*
X75030529Y-66266333D02*
X75057467Y-66347146D01*
X75057467Y-66347146D02*
X75057467Y-66401020D01*
X75057467Y-66401020D02*
X75030529Y-66481833D01*
X75030529Y-66481833D02*
X74868905Y-66643457D01*
X74868905Y-66643457D02*
X74788093Y-66670394D01*
X74788093Y-66670394D02*
X74734218Y-66670394D01*
X74734218Y-65646773D02*
X75488465Y-66023897D01*
X75488465Y-66023897D02*
X75111342Y-65269649D01*
X75246028Y-65134963D02*
X75596215Y-64784776D01*
X75596215Y-64784776D02*
X75623152Y-65188837D01*
X75623152Y-65188837D02*
X75703964Y-65108025D01*
X75703964Y-65108025D02*
X75784776Y-65081088D01*
X75784776Y-65081088D02*
X75838651Y-65081088D01*
X75838651Y-65081088D02*
X75919464Y-65108025D01*
X75919464Y-65108025D02*
X76054151Y-65242712D01*
X76054151Y-65242712D02*
X76081088Y-65323524D01*
X76081088Y-65323524D02*
X76081088Y-65377399D01*
X76081088Y-65377399D02*
X76054151Y-65458211D01*
X76054151Y-65458211D02*
X75892526Y-65619836D01*
X75892526Y-65619836D02*
X75811714Y-65646773D01*
X75811714Y-65646773D02*
X75757839Y-65646773D01*
X76323525Y-65296587D02*
X76754523Y-64865588D01*
X76539024Y-64380715D02*
X76727586Y-64192153D01*
X77104709Y-64407652D02*
X76835335Y-64677026D01*
X76835335Y-64677026D02*
X76269650Y-64111341D01*
X76269650Y-64111341D02*
X76539024Y-63841967D01*
X77347146Y-64165215D02*
X76781461Y-63599530D01*
X76781461Y-63599530D02*
X77670395Y-63841967D01*
X77670395Y-63841967D02*
X77104710Y-63276281D01*
X85035123Y-56625868D02*
X85385309Y-56275682D01*
X85385309Y-56275682D02*
X85412247Y-56679743D01*
X85412247Y-56679743D02*
X85493059Y-56598931D01*
X85493059Y-56598931D02*
X85573871Y-56571993D01*
X85573871Y-56571993D02*
X85627746Y-56571993D01*
X85627746Y-56571993D02*
X85708558Y-56598931D01*
X85708558Y-56598931D02*
X85843245Y-56733618D01*
X85843245Y-56733618D02*
X85870182Y-56814430D01*
X85870182Y-56814430D02*
X85870182Y-56868305D01*
X85870182Y-56868305D02*
X85843245Y-56949117D01*
X85843245Y-56949117D02*
X85681621Y-57110741D01*
X85681621Y-57110741D02*
X85600808Y-57137679D01*
X85600808Y-57137679D02*
X85546934Y-57137679D01*
X85546934Y-56114057D02*
X86301181Y-56491181D01*
X86301181Y-56491181D02*
X85924057Y-55736934D01*
X86058744Y-55602247D02*
X86408930Y-55252061D01*
X86408930Y-55252061D02*
X86435868Y-55656122D01*
X86435868Y-55656122D02*
X86516680Y-55575309D01*
X86516680Y-55575309D02*
X86597492Y-55548372D01*
X86597492Y-55548372D02*
X86651367Y-55548372D01*
X86651367Y-55548372D02*
X86732179Y-55575309D01*
X86732179Y-55575309D02*
X86866866Y-55709996D01*
X86866866Y-55709996D02*
X86893804Y-55790809D01*
X86893804Y-55790809D02*
X86893804Y-55844683D01*
X86893804Y-55844683D02*
X86866866Y-55925496D01*
X86866866Y-55925496D02*
X86705242Y-56087120D01*
X86705242Y-56087120D02*
X86624430Y-56114057D01*
X86624430Y-56114057D02*
X86570555Y-56114057D01*
X59658372Y-71526494D02*
X59577560Y-71553431D01*
X59577560Y-71553431D02*
X59496748Y-71634243D01*
X59496748Y-71634243D02*
X59442873Y-71741993D01*
X59442873Y-71741993D02*
X59442873Y-71849742D01*
X59442873Y-71849742D02*
X59469810Y-71930555D01*
X59469810Y-71930555D02*
X59550623Y-72065242D01*
X59550623Y-72065242D02*
X59631435Y-72146054D01*
X59631435Y-72146054D02*
X59766122Y-72226866D01*
X59766122Y-72226866D02*
X59846934Y-72253803D01*
X59846934Y-72253803D02*
X59954684Y-72253803D01*
X59954684Y-72253803D02*
X60062433Y-72199929D01*
X60062433Y-72199929D02*
X60116308Y-72146054D01*
X60116308Y-72146054D02*
X60170183Y-72038304D01*
X60170183Y-72038304D02*
X60170183Y-71984429D01*
X60170183Y-71984429D02*
X59981621Y-71795868D01*
X59981621Y-71795868D02*
X59873871Y-71903617D01*
X60466494Y-71795868D02*
X59900809Y-71230182D01*
X59900809Y-71230182D02*
X60116308Y-71014683D01*
X60116308Y-71014683D02*
X60197120Y-70987746D01*
X60197120Y-70987746D02*
X60250995Y-70987746D01*
X60250995Y-70987746D02*
X60331807Y-71014683D01*
X60331807Y-71014683D02*
X60412619Y-71095495D01*
X60412619Y-71095495D02*
X60439557Y-71176307D01*
X60439557Y-71176307D02*
X60439557Y-71230182D01*
X60439557Y-71230182D02*
X60412619Y-71310994D01*
X60412619Y-71310994D02*
X60197120Y-71526494D01*
X60789743Y-70826121D02*
X60708931Y-70853059D01*
X60708931Y-70853059D02*
X60655056Y-70853059D01*
X60655056Y-70853059D02*
X60574244Y-70826121D01*
X60574244Y-70826121D02*
X60547306Y-70799184D01*
X60547306Y-70799184D02*
X60520369Y-70718372D01*
X60520369Y-70718372D02*
X60520369Y-70664497D01*
X60520369Y-70664497D02*
X60547306Y-70583685D01*
X60547306Y-70583685D02*
X60655056Y-70475935D01*
X60655056Y-70475935D02*
X60735868Y-70448998D01*
X60735868Y-70448998D02*
X60789743Y-70448998D01*
X60789743Y-70448998D02*
X60870555Y-70475935D01*
X60870555Y-70475935D02*
X60897493Y-70502872D01*
X60897493Y-70502872D02*
X60924430Y-70583685D01*
X60924430Y-70583685D02*
X60924430Y-70637559D01*
X60924430Y-70637559D02*
X60897493Y-70718372D01*
X60897493Y-70718372D02*
X60789743Y-70826121D01*
X60789743Y-70826121D02*
X60762806Y-70906933D01*
X60762806Y-70906933D02*
X60762806Y-70960808D01*
X60762806Y-70960808D02*
X60789743Y-71041620D01*
X60789743Y-71041620D02*
X60897493Y-71149370D01*
X60897493Y-71149370D02*
X60978305Y-71176307D01*
X60978305Y-71176307D02*
X61032180Y-71176307D01*
X61032180Y-71176307D02*
X61112992Y-71149370D01*
X61112992Y-71149370D02*
X61220741Y-71041620D01*
X61220741Y-71041620D02*
X61247679Y-70960808D01*
X61247679Y-70960808D02*
X61247679Y-70906933D01*
X61247679Y-70906933D02*
X61220741Y-70826121D01*
X61220741Y-70826121D02*
X61112992Y-70718372D01*
X61112992Y-70718372D02*
X61032180Y-70691434D01*
X61032180Y-70691434D02*
X60978305Y-70691434D01*
X60978305Y-70691434D02*
X60897493Y-70718372D01*
X85242998Y-94655868D02*
X85162185Y-94682805D01*
X85162185Y-94682805D02*
X85081373Y-94763618D01*
X85081373Y-94763618D02*
X85027498Y-94871367D01*
X85027498Y-94871367D02*
X85027498Y-94979117D01*
X85027498Y-94979117D02*
X85054436Y-95059929D01*
X85054436Y-95059929D02*
X85135248Y-95194616D01*
X85135248Y-95194616D02*
X85216060Y-95275428D01*
X85216060Y-95275428D02*
X85350747Y-95356241D01*
X85350747Y-95356241D02*
X85431560Y-95383178D01*
X85431560Y-95383178D02*
X85539309Y-95383178D01*
X85539309Y-95383178D02*
X85647059Y-95329303D01*
X85647059Y-95329303D02*
X85700934Y-95275428D01*
X85700934Y-95275428D02*
X85754808Y-95167679D01*
X85754808Y-95167679D02*
X85754808Y-95113804D01*
X85754808Y-95113804D02*
X85566247Y-94925242D01*
X85566247Y-94925242D02*
X85458497Y-95032992D01*
X86051120Y-94925242D02*
X85485434Y-94359557D01*
X85485434Y-94359557D02*
X85700934Y-94144057D01*
X85700934Y-94144057D02*
X85781746Y-94117120D01*
X85781746Y-94117120D02*
X85835621Y-94117120D01*
X85835621Y-94117120D02*
X85916433Y-94144057D01*
X85916433Y-94144057D02*
X85997245Y-94224870D01*
X85997245Y-94224870D02*
X86024182Y-94305682D01*
X86024182Y-94305682D02*
X86024182Y-94359557D01*
X86024182Y-94359557D02*
X85997245Y-94440369D01*
X85997245Y-94440369D02*
X85781746Y-94655868D01*
X86913117Y-94063245D02*
X86589868Y-94386494D01*
X86751492Y-94224870D02*
X86185807Y-93659184D01*
X86185807Y-93659184D02*
X86212744Y-93793871D01*
X86212744Y-93793871D02*
X86212744Y-93901621D01*
X86212744Y-93901621D02*
X86185807Y-93982433D01*
X86832305Y-93012686D02*
X86724555Y-93120436D01*
X86724555Y-93120436D02*
X86697618Y-93201248D01*
X86697618Y-93201248D02*
X86697618Y-93255123D01*
X86697618Y-93255123D02*
X86724555Y-93389810D01*
X86724555Y-93389810D02*
X86805367Y-93524497D01*
X86805367Y-93524497D02*
X87020866Y-93739996D01*
X87020866Y-93739996D02*
X87101679Y-93766934D01*
X87101679Y-93766934D02*
X87155553Y-93766934D01*
X87155553Y-93766934D02*
X87236366Y-93739996D01*
X87236366Y-93739996D02*
X87344115Y-93632247D01*
X87344115Y-93632247D02*
X87371053Y-93551434D01*
X87371053Y-93551434D02*
X87371053Y-93497560D01*
X87371053Y-93497560D02*
X87344115Y-93416747D01*
X87344115Y-93416747D02*
X87209428Y-93282060D01*
X87209428Y-93282060D02*
X87128616Y-93255123D01*
X87128616Y-93255123D02*
X87074741Y-93255123D01*
X87074741Y-93255123D02*
X86993929Y-93282060D01*
X86993929Y-93282060D02*
X86886179Y-93389810D01*
X86886179Y-93389810D02*
X86859242Y-93470622D01*
X86859242Y-93470622D02*
X86859242Y-93524497D01*
X86859242Y-93524497D02*
X86886179Y-93605309D01*
X85231435Y-76633431D02*
X85150623Y-76660368D01*
X85150623Y-76660368D02*
X85069811Y-76741180D01*
X85069811Y-76741180D02*
X85015936Y-76848930D01*
X85015936Y-76848930D02*
X85015936Y-76956680D01*
X85015936Y-76956680D02*
X85042873Y-77037492D01*
X85042873Y-77037492D02*
X85123685Y-77172179D01*
X85123685Y-77172179D02*
X85204498Y-77252991D01*
X85204498Y-77252991D02*
X85339185Y-77333803D01*
X85339185Y-77333803D02*
X85419997Y-77360741D01*
X85419997Y-77360741D02*
X85527746Y-77360741D01*
X85527746Y-77360741D02*
X85635496Y-77306866D01*
X85635496Y-77306866D02*
X85689371Y-77252991D01*
X85689371Y-77252991D02*
X85743246Y-77145241D01*
X85743246Y-77145241D02*
X85743246Y-77091367D01*
X85743246Y-77091367D02*
X85554684Y-76902805D01*
X85554684Y-76902805D02*
X85446934Y-77010554D01*
X86039557Y-76902805D02*
X85473872Y-76337119D01*
X85473872Y-76337119D02*
X86362806Y-76579556D01*
X86362806Y-76579556D02*
X85797120Y-76013871D01*
X86632180Y-76310182D02*
X86066494Y-75744497D01*
X86066494Y-75744497D02*
X86201181Y-75609810D01*
X86201181Y-75609810D02*
X86308931Y-75555935D01*
X86308931Y-75555935D02*
X86416680Y-75555935D01*
X86416680Y-75555935D02*
X86497493Y-75582872D01*
X86497493Y-75582872D02*
X86632180Y-75663685D01*
X86632180Y-75663685D02*
X86712992Y-75744497D01*
X86712992Y-75744497D02*
X86793804Y-75879184D01*
X86793804Y-75879184D02*
X86820741Y-75959996D01*
X86820741Y-75959996D02*
X86820741Y-76067746D01*
X86820741Y-76067746D02*
X86766867Y-76175495D01*
X86766867Y-76175495D02*
X86632180Y-76310182D01*
X59631435Y-63933431D02*
X59550623Y-63960368D01*
X59550623Y-63960368D02*
X59469811Y-64041180D01*
X59469811Y-64041180D02*
X59415936Y-64148930D01*
X59415936Y-64148930D02*
X59415936Y-64256680D01*
X59415936Y-64256680D02*
X59442873Y-64337492D01*
X59442873Y-64337492D02*
X59523685Y-64472179D01*
X59523685Y-64472179D02*
X59604498Y-64552991D01*
X59604498Y-64552991D02*
X59739185Y-64633803D01*
X59739185Y-64633803D02*
X59819997Y-64660741D01*
X59819997Y-64660741D02*
X59927746Y-64660741D01*
X59927746Y-64660741D02*
X60035496Y-64606866D01*
X60035496Y-64606866D02*
X60089371Y-64552991D01*
X60089371Y-64552991D02*
X60143246Y-64445241D01*
X60143246Y-64445241D02*
X60143246Y-64391367D01*
X60143246Y-64391367D02*
X59954684Y-64202805D01*
X59954684Y-64202805D02*
X59846934Y-64310554D01*
X60439557Y-64202805D02*
X59873872Y-63637119D01*
X59873872Y-63637119D02*
X60762806Y-63879556D01*
X60762806Y-63879556D02*
X60197120Y-63313871D01*
X61032180Y-63610182D02*
X60466494Y-63044497D01*
X60466494Y-63044497D02*
X60601181Y-62909810D01*
X60601181Y-62909810D02*
X60708931Y-62855935D01*
X60708931Y-62855935D02*
X60816680Y-62855935D01*
X60816680Y-62855935D02*
X60897493Y-62882872D01*
X60897493Y-62882872D02*
X61032180Y-62963685D01*
X61032180Y-62963685D02*
X61112992Y-63044497D01*
X61112992Y-63044497D02*
X61193804Y-63179184D01*
X61193804Y-63179184D02*
X61220741Y-63259996D01*
X61220741Y-63259996D02*
X61220741Y-63367746D01*
X61220741Y-63367746D02*
X61166867Y-63475495D01*
X61166867Y-63475495D02*
X61032180Y-63610182D01*
X85242998Y-61381868D02*
X85162185Y-61408805D01*
X85162185Y-61408805D02*
X85081373Y-61489618D01*
X85081373Y-61489618D02*
X85027498Y-61597367D01*
X85027498Y-61597367D02*
X85027498Y-61705117D01*
X85027498Y-61705117D02*
X85054436Y-61785929D01*
X85054436Y-61785929D02*
X85135248Y-61920616D01*
X85135248Y-61920616D02*
X85216060Y-62001428D01*
X85216060Y-62001428D02*
X85350747Y-62082241D01*
X85350747Y-62082241D02*
X85431560Y-62109178D01*
X85431560Y-62109178D02*
X85539309Y-62109178D01*
X85539309Y-62109178D02*
X85647059Y-62055303D01*
X85647059Y-62055303D02*
X85700934Y-62001428D01*
X85700934Y-62001428D02*
X85754808Y-61893679D01*
X85754808Y-61893679D02*
X85754808Y-61839804D01*
X85754808Y-61839804D02*
X85566247Y-61651242D01*
X85566247Y-61651242D02*
X85458497Y-61758992D01*
X86051120Y-61651242D02*
X85485434Y-61085557D01*
X85485434Y-61085557D02*
X85700934Y-60870057D01*
X85700934Y-60870057D02*
X85781746Y-60843120D01*
X85781746Y-60843120D02*
X85835621Y-60843120D01*
X85835621Y-60843120D02*
X85916433Y-60870057D01*
X85916433Y-60870057D02*
X85997245Y-60950870D01*
X85997245Y-60950870D02*
X86024182Y-61031682D01*
X86024182Y-61031682D02*
X86024182Y-61085557D01*
X86024182Y-61085557D02*
X85997245Y-61166369D01*
X85997245Y-61166369D02*
X85781746Y-61381868D01*
X86078057Y-60600683D02*
X86078057Y-60546809D01*
X86078057Y-60546809D02*
X86104995Y-60465996D01*
X86104995Y-60465996D02*
X86239682Y-60331309D01*
X86239682Y-60331309D02*
X86320494Y-60304372D01*
X86320494Y-60304372D02*
X86374369Y-60304372D01*
X86374369Y-60304372D02*
X86455181Y-60331309D01*
X86455181Y-60331309D02*
X86509056Y-60385184D01*
X86509056Y-60385184D02*
X86562930Y-60492934D01*
X86562930Y-60492934D02*
X86562930Y-61139431D01*
X86562930Y-61139431D02*
X86913117Y-60789245D01*
X86913117Y-60142747D02*
X86832305Y-60169685D01*
X86832305Y-60169685D02*
X86778430Y-60169685D01*
X86778430Y-60169685D02*
X86697618Y-60142747D01*
X86697618Y-60142747D02*
X86670680Y-60115810D01*
X86670680Y-60115810D02*
X86643743Y-60034998D01*
X86643743Y-60034998D02*
X86643743Y-59981123D01*
X86643743Y-59981123D02*
X86670680Y-59900311D01*
X86670680Y-59900311D02*
X86778430Y-59792561D01*
X86778430Y-59792561D02*
X86859242Y-59765624D01*
X86859242Y-59765624D02*
X86913117Y-59765624D01*
X86913117Y-59765624D02*
X86993929Y-59792561D01*
X86993929Y-59792561D02*
X87020866Y-59819499D01*
X87020866Y-59819499D02*
X87047804Y-59900311D01*
X87047804Y-59900311D02*
X87047804Y-59954186D01*
X87047804Y-59954186D02*
X87020866Y-60034998D01*
X87020866Y-60034998D02*
X86913117Y-60142747D01*
X86913117Y-60142747D02*
X86886179Y-60223560D01*
X86886179Y-60223560D02*
X86886179Y-60277434D01*
X86886179Y-60277434D02*
X86913117Y-60358247D01*
X86913117Y-60358247D02*
X87020866Y-60465996D01*
X87020866Y-60465996D02*
X87101679Y-60492934D01*
X87101679Y-60492934D02*
X87155553Y-60492934D01*
X87155553Y-60492934D02*
X87236366Y-60465996D01*
X87236366Y-60465996D02*
X87344115Y-60358247D01*
X87344115Y-60358247D02*
X87371053Y-60277434D01*
X87371053Y-60277434D02*
X87371053Y-60223560D01*
X87371053Y-60223560D02*
X87344115Y-60142747D01*
X87344115Y-60142747D02*
X87236366Y-60034998D01*
X87236366Y-60034998D02*
X87155553Y-60008060D01*
X87155553Y-60008060D02*
X87101679Y-60008060D01*
X87101679Y-60008060D02*
X87020866Y-60034998D01*
X59658372Y-74066494D02*
X59577560Y-74093431D01*
X59577560Y-74093431D02*
X59496748Y-74174243D01*
X59496748Y-74174243D02*
X59442873Y-74281993D01*
X59442873Y-74281993D02*
X59442873Y-74389742D01*
X59442873Y-74389742D02*
X59469810Y-74470555D01*
X59469810Y-74470555D02*
X59550623Y-74605242D01*
X59550623Y-74605242D02*
X59631435Y-74686054D01*
X59631435Y-74686054D02*
X59766122Y-74766866D01*
X59766122Y-74766866D02*
X59846934Y-74793803D01*
X59846934Y-74793803D02*
X59954684Y-74793803D01*
X59954684Y-74793803D02*
X60062433Y-74739929D01*
X60062433Y-74739929D02*
X60116308Y-74686054D01*
X60116308Y-74686054D02*
X60170183Y-74578304D01*
X60170183Y-74578304D02*
X60170183Y-74524429D01*
X60170183Y-74524429D02*
X59981621Y-74335868D01*
X59981621Y-74335868D02*
X59873871Y-74443617D01*
X60466494Y-74335868D02*
X59900809Y-73770182D01*
X59900809Y-73770182D02*
X60116308Y-73554683D01*
X60116308Y-73554683D02*
X60197120Y-73527746D01*
X60197120Y-73527746D02*
X60250995Y-73527746D01*
X60250995Y-73527746D02*
X60331807Y-73554683D01*
X60331807Y-73554683D02*
X60412619Y-73635495D01*
X60412619Y-73635495D02*
X60439557Y-73716307D01*
X60439557Y-73716307D02*
X60439557Y-73770182D01*
X60439557Y-73770182D02*
X60412619Y-73850994D01*
X60412619Y-73850994D02*
X60197120Y-74066494D01*
X61059117Y-73743245D02*
X61166867Y-73635495D01*
X61166867Y-73635495D02*
X61193804Y-73554683D01*
X61193804Y-73554683D02*
X61193804Y-73500808D01*
X61193804Y-73500808D02*
X61166867Y-73366121D01*
X61166867Y-73366121D02*
X61086054Y-73231434D01*
X61086054Y-73231434D02*
X60870555Y-73015935D01*
X60870555Y-73015935D02*
X60789743Y-72988998D01*
X60789743Y-72988998D02*
X60735868Y-72988998D01*
X60735868Y-72988998D02*
X60655056Y-73015935D01*
X60655056Y-73015935D02*
X60547306Y-73123685D01*
X60547306Y-73123685D02*
X60520369Y-73204497D01*
X60520369Y-73204497D02*
X60520369Y-73258372D01*
X60520369Y-73258372D02*
X60547306Y-73339184D01*
X60547306Y-73339184D02*
X60681993Y-73473871D01*
X60681993Y-73473871D02*
X60762806Y-73500808D01*
X60762806Y-73500808D02*
X60816680Y-73500808D01*
X60816680Y-73500808D02*
X60897493Y-73473871D01*
X60897493Y-73473871D02*
X61005242Y-73366121D01*
X61005242Y-73366121D02*
X61032180Y-73285309D01*
X61032180Y-73285309D02*
X61032180Y-73231434D01*
X61032180Y-73231434D02*
X61005242Y-73150622D01*
X77049761Y-96659200D02*
X77164047Y-96697295D01*
X77164047Y-96697295D02*
X77354523Y-96697295D01*
X77354523Y-96697295D02*
X77430714Y-96659200D01*
X77430714Y-96659200D02*
X77468809Y-96621104D01*
X77468809Y-96621104D02*
X77506904Y-96544914D01*
X77506904Y-96544914D02*
X77506904Y-96468723D01*
X77506904Y-96468723D02*
X77468809Y-96392533D01*
X77468809Y-96392533D02*
X77430714Y-96354438D01*
X77430714Y-96354438D02*
X77354523Y-96316342D01*
X77354523Y-96316342D02*
X77202142Y-96278247D01*
X77202142Y-96278247D02*
X77125952Y-96240152D01*
X77125952Y-96240152D02*
X77087857Y-96202057D01*
X77087857Y-96202057D02*
X77049761Y-96125866D01*
X77049761Y-96125866D02*
X77049761Y-96049676D01*
X77049761Y-96049676D02*
X77087857Y-95973485D01*
X77087857Y-95973485D02*
X77125952Y-95935390D01*
X77125952Y-95935390D02*
X77202142Y-95897295D01*
X77202142Y-95897295D02*
X77392619Y-95897295D01*
X77392619Y-95897295D02*
X77506904Y-95935390D01*
X77773571Y-95897295D02*
X77964047Y-96697295D01*
X77964047Y-96697295D02*
X78116428Y-96125866D01*
X78116428Y-96125866D02*
X78268809Y-96697295D01*
X78268809Y-96697295D02*
X78459286Y-95897295D01*
X78764048Y-96697295D02*
X78764048Y-95897295D01*
X78764048Y-95897295D02*
X78954524Y-95897295D01*
X78954524Y-95897295D02*
X79068810Y-95935390D01*
X79068810Y-95935390D02*
X79145000Y-96011580D01*
X79145000Y-96011580D02*
X79183095Y-96087771D01*
X79183095Y-96087771D02*
X79221191Y-96240152D01*
X79221191Y-96240152D02*
X79221191Y-96354438D01*
X79221191Y-96354438D02*
X79183095Y-96506819D01*
X79183095Y-96506819D02*
X79145000Y-96583009D01*
X79145000Y-96583009D02*
X79068810Y-96659200D01*
X79068810Y-96659200D02*
X78954524Y-96697295D01*
X78954524Y-96697295D02*
X78764048Y-96697295D01*
X79564048Y-96697295D02*
X79564048Y-95897295D01*
X80097381Y-95897295D02*
X80249762Y-95897295D01*
X80249762Y-95897295D02*
X80325952Y-95935390D01*
X80325952Y-95935390D02*
X80402143Y-96011580D01*
X80402143Y-96011580D02*
X80440238Y-96163961D01*
X80440238Y-96163961D02*
X80440238Y-96430628D01*
X80440238Y-96430628D02*
X80402143Y-96583009D01*
X80402143Y-96583009D02*
X80325952Y-96659200D01*
X80325952Y-96659200D02*
X80249762Y-96697295D01*
X80249762Y-96697295D02*
X80097381Y-96697295D01*
X80097381Y-96697295D02*
X80021190Y-96659200D01*
X80021190Y-96659200D02*
X79945000Y-96583009D01*
X79945000Y-96583009D02*
X79906904Y-96430628D01*
X79906904Y-96430628D02*
X79906904Y-96163961D01*
X79906904Y-96163961D02*
X79945000Y-96011580D01*
X79945000Y-96011580D02*
X80021190Y-95935390D01*
X80021190Y-95935390D02*
X80097381Y-95897295D01*
X59658372Y-61366494D02*
X59577560Y-61393431D01*
X59577560Y-61393431D02*
X59496748Y-61474243D01*
X59496748Y-61474243D02*
X59442873Y-61581993D01*
X59442873Y-61581993D02*
X59442873Y-61689742D01*
X59442873Y-61689742D02*
X59469810Y-61770555D01*
X59469810Y-61770555D02*
X59550623Y-61905242D01*
X59550623Y-61905242D02*
X59631435Y-61986054D01*
X59631435Y-61986054D02*
X59766122Y-62066866D01*
X59766122Y-62066866D02*
X59846934Y-62093803D01*
X59846934Y-62093803D02*
X59954684Y-62093803D01*
X59954684Y-62093803D02*
X60062433Y-62039929D01*
X60062433Y-62039929D02*
X60116308Y-61986054D01*
X60116308Y-61986054D02*
X60170183Y-61878304D01*
X60170183Y-61878304D02*
X60170183Y-61824429D01*
X60170183Y-61824429D02*
X59981621Y-61635868D01*
X59981621Y-61635868D02*
X59873871Y-61743617D01*
X60466494Y-61635868D02*
X59900809Y-61070182D01*
X59900809Y-61070182D02*
X60116308Y-60854683D01*
X60116308Y-60854683D02*
X60197120Y-60827746D01*
X60197120Y-60827746D02*
X60250995Y-60827746D01*
X60250995Y-60827746D02*
X60331807Y-60854683D01*
X60331807Y-60854683D02*
X60412619Y-60935495D01*
X60412619Y-60935495D02*
X60439557Y-61016307D01*
X60439557Y-61016307D02*
X60439557Y-61070182D01*
X60439557Y-61070182D02*
X60412619Y-61150994D01*
X60412619Y-61150994D02*
X60197120Y-61366494D01*
X60735868Y-60235123D02*
X60466494Y-60504497D01*
X60466494Y-60504497D02*
X60708931Y-60800808D01*
X60708931Y-60800808D02*
X60708931Y-60746933D01*
X60708931Y-60746933D02*
X60735868Y-60666121D01*
X60735868Y-60666121D02*
X60870555Y-60531434D01*
X60870555Y-60531434D02*
X60951367Y-60504497D01*
X60951367Y-60504497D02*
X61005242Y-60504497D01*
X61005242Y-60504497D02*
X61086054Y-60531434D01*
X61086054Y-60531434D02*
X61220741Y-60666121D01*
X61220741Y-60666121D02*
X61247679Y-60746933D01*
X61247679Y-60746933D02*
X61247679Y-60800808D01*
X61247679Y-60800808D02*
X61220741Y-60881620D01*
X61220741Y-60881620D02*
X61086054Y-61016307D01*
X61086054Y-61016307D02*
X61005242Y-61043245D01*
X61005242Y-61043245D02*
X60951367Y-61043245D01*
X59658372Y-46126494D02*
X59577560Y-46153431D01*
X59577560Y-46153431D02*
X59496748Y-46234243D01*
X59496748Y-46234243D02*
X59442873Y-46341993D01*
X59442873Y-46341993D02*
X59442873Y-46449742D01*
X59442873Y-46449742D02*
X59469810Y-46530555D01*
X59469810Y-46530555D02*
X59550623Y-46665242D01*
X59550623Y-46665242D02*
X59631435Y-46746054D01*
X59631435Y-46746054D02*
X59766122Y-46826866D01*
X59766122Y-46826866D02*
X59846934Y-46853803D01*
X59846934Y-46853803D02*
X59954684Y-46853803D01*
X59954684Y-46853803D02*
X60062433Y-46799929D01*
X60062433Y-46799929D02*
X60116308Y-46746054D01*
X60116308Y-46746054D02*
X60170183Y-46638304D01*
X60170183Y-46638304D02*
X60170183Y-46584429D01*
X60170183Y-46584429D02*
X59981621Y-46395868D01*
X59981621Y-46395868D02*
X59873871Y-46503617D01*
X60466494Y-46395868D02*
X59900809Y-45830182D01*
X59900809Y-45830182D02*
X60116308Y-45614683D01*
X60116308Y-45614683D02*
X60197120Y-45587746D01*
X60197120Y-45587746D02*
X60250995Y-45587746D01*
X60250995Y-45587746D02*
X60331807Y-45614683D01*
X60331807Y-45614683D02*
X60412619Y-45695495D01*
X60412619Y-45695495D02*
X60439557Y-45776307D01*
X60439557Y-45776307D02*
X60439557Y-45830182D01*
X60439557Y-45830182D02*
X60412619Y-45910994D01*
X60412619Y-45910994D02*
X60197120Y-46126494D01*
X60574244Y-45156747D02*
X60628119Y-45102872D01*
X60628119Y-45102872D02*
X60708931Y-45075935D01*
X60708931Y-45075935D02*
X60762806Y-45075935D01*
X60762806Y-45075935D02*
X60843618Y-45102872D01*
X60843618Y-45102872D02*
X60978305Y-45183685D01*
X60978305Y-45183685D02*
X61112992Y-45318372D01*
X61112992Y-45318372D02*
X61193804Y-45453059D01*
X61193804Y-45453059D02*
X61220741Y-45533871D01*
X61220741Y-45533871D02*
X61220741Y-45587746D01*
X61220741Y-45587746D02*
X61193804Y-45668558D01*
X61193804Y-45668558D02*
X61139929Y-45722433D01*
X61139929Y-45722433D02*
X61059117Y-45749370D01*
X61059117Y-45749370D02*
X61005242Y-45749370D01*
X61005242Y-45749370D02*
X60924430Y-45722433D01*
X60924430Y-45722433D02*
X60789743Y-45641620D01*
X60789743Y-45641620D02*
X60655056Y-45506933D01*
X60655056Y-45506933D02*
X60574244Y-45372246D01*
X60574244Y-45372246D02*
X60547306Y-45291434D01*
X60547306Y-45291434D02*
X60547306Y-45237559D01*
X60547306Y-45237559D02*
X60574244Y-45156747D01*
X59658372Y-56286494D02*
X59577560Y-56313431D01*
X59577560Y-56313431D02*
X59496748Y-56394243D01*
X59496748Y-56394243D02*
X59442873Y-56501993D01*
X59442873Y-56501993D02*
X59442873Y-56609742D01*
X59442873Y-56609742D02*
X59469810Y-56690555D01*
X59469810Y-56690555D02*
X59550623Y-56825242D01*
X59550623Y-56825242D02*
X59631435Y-56906054D01*
X59631435Y-56906054D02*
X59766122Y-56986866D01*
X59766122Y-56986866D02*
X59846934Y-57013803D01*
X59846934Y-57013803D02*
X59954684Y-57013803D01*
X59954684Y-57013803D02*
X60062433Y-56959929D01*
X60062433Y-56959929D02*
X60116308Y-56906054D01*
X60116308Y-56906054D02*
X60170183Y-56798304D01*
X60170183Y-56798304D02*
X60170183Y-56744429D01*
X60170183Y-56744429D02*
X59981621Y-56555868D01*
X59981621Y-56555868D02*
X59873871Y-56663617D01*
X60466494Y-56555868D02*
X59900809Y-55990182D01*
X59900809Y-55990182D02*
X60116308Y-55774683D01*
X60116308Y-55774683D02*
X60197120Y-55747746D01*
X60197120Y-55747746D02*
X60250995Y-55747746D01*
X60250995Y-55747746D02*
X60331807Y-55774683D01*
X60331807Y-55774683D02*
X60412619Y-55855495D01*
X60412619Y-55855495D02*
X60439557Y-55936307D01*
X60439557Y-55936307D02*
X60439557Y-55990182D01*
X60439557Y-55990182D02*
X60412619Y-56070994D01*
X60412619Y-56070994D02*
X60197120Y-56286494D01*
X60412619Y-55478372D02*
X60762806Y-55128185D01*
X60762806Y-55128185D02*
X60789743Y-55532246D01*
X60789743Y-55532246D02*
X60870555Y-55451434D01*
X60870555Y-55451434D02*
X60951367Y-55424497D01*
X60951367Y-55424497D02*
X61005242Y-55424497D01*
X61005242Y-55424497D02*
X61086054Y-55451434D01*
X61086054Y-55451434D02*
X61220741Y-55586121D01*
X61220741Y-55586121D02*
X61247679Y-55666933D01*
X61247679Y-55666933D02*
X61247679Y-55720808D01*
X61247679Y-55720808D02*
X61220741Y-55801620D01*
X61220741Y-55801620D02*
X61059117Y-55963245D01*
X61059117Y-55963245D02*
X60978305Y-55990182D01*
X60978305Y-55990182D02*
X60924430Y-55990182D01*
X59631435Y-89333431D02*
X59550623Y-89360368D01*
X59550623Y-89360368D02*
X59469811Y-89441180D01*
X59469811Y-89441180D02*
X59415936Y-89548930D01*
X59415936Y-89548930D02*
X59415936Y-89656680D01*
X59415936Y-89656680D02*
X59442873Y-89737492D01*
X59442873Y-89737492D02*
X59523685Y-89872179D01*
X59523685Y-89872179D02*
X59604498Y-89952991D01*
X59604498Y-89952991D02*
X59739185Y-90033803D01*
X59739185Y-90033803D02*
X59819997Y-90060741D01*
X59819997Y-90060741D02*
X59927746Y-90060741D01*
X59927746Y-90060741D02*
X60035496Y-90006866D01*
X60035496Y-90006866D02*
X60089371Y-89952991D01*
X60089371Y-89952991D02*
X60143246Y-89845241D01*
X60143246Y-89845241D02*
X60143246Y-89791367D01*
X60143246Y-89791367D02*
X59954684Y-89602805D01*
X59954684Y-89602805D02*
X59846934Y-89710554D01*
X60439557Y-89602805D02*
X59873872Y-89037119D01*
X59873872Y-89037119D02*
X60762806Y-89279556D01*
X60762806Y-89279556D02*
X60197120Y-88713871D01*
X61032180Y-89010182D02*
X60466494Y-88444497D01*
X60466494Y-88444497D02*
X60601181Y-88309810D01*
X60601181Y-88309810D02*
X60708931Y-88255935D01*
X60708931Y-88255935D02*
X60816680Y-88255935D01*
X60816680Y-88255935D02*
X60897493Y-88282872D01*
X60897493Y-88282872D02*
X61032180Y-88363685D01*
X61032180Y-88363685D02*
X61112992Y-88444497D01*
X61112992Y-88444497D02*
X61193804Y-88579184D01*
X61193804Y-88579184D02*
X61220741Y-88659996D01*
X61220741Y-88659996D02*
X61220741Y-88767746D01*
X61220741Y-88767746D02*
X61166867Y-88875495D01*
X61166867Y-88875495D02*
X61032180Y-89010182D01*
X59631435Y-51233431D02*
X59550623Y-51260368D01*
X59550623Y-51260368D02*
X59469811Y-51341180D01*
X59469811Y-51341180D02*
X59415936Y-51448930D01*
X59415936Y-51448930D02*
X59415936Y-51556680D01*
X59415936Y-51556680D02*
X59442873Y-51637492D01*
X59442873Y-51637492D02*
X59523685Y-51772179D01*
X59523685Y-51772179D02*
X59604498Y-51852991D01*
X59604498Y-51852991D02*
X59739185Y-51933803D01*
X59739185Y-51933803D02*
X59819997Y-51960741D01*
X59819997Y-51960741D02*
X59927746Y-51960741D01*
X59927746Y-51960741D02*
X60035496Y-51906866D01*
X60035496Y-51906866D02*
X60089371Y-51852991D01*
X60089371Y-51852991D02*
X60143246Y-51745241D01*
X60143246Y-51745241D02*
X60143246Y-51691367D01*
X60143246Y-51691367D02*
X59954684Y-51502805D01*
X59954684Y-51502805D02*
X59846934Y-51610554D01*
X60439557Y-51502805D02*
X59873872Y-50937119D01*
X59873872Y-50937119D02*
X60762806Y-51179556D01*
X60762806Y-51179556D02*
X60197120Y-50613871D01*
X61032180Y-50910182D02*
X60466494Y-50344497D01*
X60466494Y-50344497D02*
X60601181Y-50209810D01*
X60601181Y-50209810D02*
X60708931Y-50155935D01*
X60708931Y-50155935D02*
X60816680Y-50155935D01*
X60816680Y-50155935D02*
X60897493Y-50182872D01*
X60897493Y-50182872D02*
X61032180Y-50263685D01*
X61032180Y-50263685D02*
X61112992Y-50344497D01*
X61112992Y-50344497D02*
X61193804Y-50479184D01*
X61193804Y-50479184D02*
X61220741Y-50559996D01*
X61220741Y-50559996D02*
X61220741Y-50667746D01*
X61220741Y-50667746D02*
X61166867Y-50775495D01*
X61166867Y-50775495D02*
X61032180Y-50910182D01*
X85242998Y-81955868D02*
X85162185Y-81982805D01*
X85162185Y-81982805D02*
X85081373Y-82063618D01*
X85081373Y-82063618D02*
X85027498Y-82171367D01*
X85027498Y-82171367D02*
X85027498Y-82279117D01*
X85027498Y-82279117D02*
X85054436Y-82359929D01*
X85054436Y-82359929D02*
X85135248Y-82494616D01*
X85135248Y-82494616D02*
X85216060Y-82575428D01*
X85216060Y-82575428D02*
X85350747Y-82656241D01*
X85350747Y-82656241D02*
X85431560Y-82683178D01*
X85431560Y-82683178D02*
X85539309Y-82683178D01*
X85539309Y-82683178D02*
X85647059Y-82629303D01*
X85647059Y-82629303D02*
X85700934Y-82575428D01*
X85700934Y-82575428D02*
X85754808Y-82467679D01*
X85754808Y-82467679D02*
X85754808Y-82413804D01*
X85754808Y-82413804D02*
X85566247Y-82225242D01*
X85566247Y-82225242D02*
X85458497Y-82332992D01*
X86051120Y-82225242D02*
X85485434Y-81659557D01*
X85485434Y-81659557D02*
X85700934Y-81444057D01*
X85700934Y-81444057D02*
X85781746Y-81417120D01*
X85781746Y-81417120D02*
X85835621Y-81417120D01*
X85835621Y-81417120D02*
X85916433Y-81444057D01*
X85916433Y-81444057D02*
X85997245Y-81524870D01*
X85997245Y-81524870D02*
X86024182Y-81605682D01*
X86024182Y-81605682D02*
X86024182Y-81659557D01*
X86024182Y-81659557D02*
X85997245Y-81740369D01*
X85997245Y-81740369D02*
X85781746Y-81955868D01*
X86078057Y-81174683D02*
X86078057Y-81120809D01*
X86078057Y-81120809D02*
X86104995Y-81039996D01*
X86104995Y-81039996D02*
X86239682Y-80905309D01*
X86239682Y-80905309D02*
X86320494Y-80878372D01*
X86320494Y-80878372D02*
X86374369Y-80878372D01*
X86374369Y-80878372D02*
X86455181Y-80905309D01*
X86455181Y-80905309D02*
X86509056Y-80959184D01*
X86509056Y-80959184D02*
X86562930Y-81066934D01*
X86562930Y-81066934D02*
X86562930Y-81713431D01*
X86562930Y-81713431D02*
X86913117Y-81363245D01*
X86697618Y-80447373D02*
X86751492Y-80393499D01*
X86751492Y-80393499D02*
X86832305Y-80366561D01*
X86832305Y-80366561D02*
X86886179Y-80366561D01*
X86886179Y-80366561D02*
X86966992Y-80393499D01*
X86966992Y-80393499D02*
X87101679Y-80474311D01*
X87101679Y-80474311D02*
X87236366Y-80608998D01*
X87236366Y-80608998D02*
X87317178Y-80743685D01*
X87317178Y-80743685D02*
X87344115Y-80824497D01*
X87344115Y-80824497D02*
X87344115Y-80878372D01*
X87344115Y-80878372D02*
X87317178Y-80959184D01*
X87317178Y-80959184D02*
X87263303Y-81013059D01*
X87263303Y-81013059D02*
X87182491Y-81039996D01*
X87182491Y-81039996D02*
X87128616Y-81039996D01*
X87128616Y-81039996D02*
X87047804Y-81013059D01*
X87047804Y-81013059D02*
X86913117Y-80932247D01*
X86913117Y-80932247D02*
X86778430Y-80797560D01*
X86778430Y-80797560D02*
X86697618Y-80662873D01*
X86697618Y-80662873D02*
X86670680Y-80582060D01*
X86670680Y-80582060D02*
X86670680Y-80528186D01*
X86670680Y-80528186D02*
X86697618Y-80447373D01*
X85242998Y-84495868D02*
X85162185Y-84522805D01*
X85162185Y-84522805D02*
X85081373Y-84603618D01*
X85081373Y-84603618D02*
X85027498Y-84711367D01*
X85027498Y-84711367D02*
X85027498Y-84819117D01*
X85027498Y-84819117D02*
X85054436Y-84899929D01*
X85054436Y-84899929D02*
X85135248Y-85034616D01*
X85135248Y-85034616D02*
X85216060Y-85115428D01*
X85216060Y-85115428D02*
X85350747Y-85196241D01*
X85350747Y-85196241D02*
X85431560Y-85223178D01*
X85431560Y-85223178D02*
X85539309Y-85223178D01*
X85539309Y-85223178D02*
X85647059Y-85169303D01*
X85647059Y-85169303D02*
X85700934Y-85115428D01*
X85700934Y-85115428D02*
X85754808Y-85007679D01*
X85754808Y-85007679D02*
X85754808Y-84953804D01*
X85754808Y-84953804D02*
X85566247Y-84765242D01*
X85566247Y-84765242D02*
X85458497Y-84872992D01*
X86051120Y-84765242D02*
X85485434Y-84199557D01*
X85485434Y-84199557D02*
X85700934Y-83984057D01*
X85700934Y-83984057D02*
X85781746Y-83957120D01*
X85781746Y-83957120D02*
X85835621Y-83957120D01*
X85835621Y-83957120D02*
X85916433Y-83984057D01*
X85916433Y-83984057D02*
X85997245Y-84064870D01*
X85997245Y-84064870D02*
X86024182Y-84145682D01*
X86024182Y-84145682D02*
X86024182Y-84199557D01*
X86024182Y-84199557D02*
X85997245Y-84280369D01*
X85997245Y-84280369D02*
X85781746Y-84495868D01*
X86913117Y-83903245D02*
X86589868Y-84226494D01*
X86751492Y-84064870D02*
X86185807Y-83499184D01*
X86185807Y-83499184D02*
X86212744Y-83633871D01*
X86212744Y-83633871D02*
X86212744Y-83741621D01*
X86212744Y-83741621D02*
X86185807Y-83822433D01*
X87182491Y-83633871D02*
X87290240Y-83526121D01*
X87290240Y-83526121D02*
X87317178Y-83445309D01*
X87317178Y-83445309D02*
X87317178Y-83391434D01*
X87317178Y-83391434D02*
X87290240Y-83256747D01*
X87290240Y-83256747D02*
X87209428Y-83122060D01*
X87209428Y-83122060D02*
X86993929Y-82906561D01*
X86993929Y-82906561D02*
X86913117Y-82879624D01*
X86913117Y-82879624D02*
X86859242Y-82879624D01*
X86859242Y-82879624D02*
X86778430Y-82906561D01*
X86778430Y-82906561D02*
X86670680Y-83014311D01*
X86670680Y-83014311D02*
X86643743Y-83095123D01*
X86643743Y-83095123D02*
X86643743Y-83148998D01*
X86643743Y-83148998D02*
X86670680Y-83229810D01*
X86670680Y-83229810D02*
X86805367Y-83364497D01*
X86805367Y-83364497D02*
X86886179Y-83391434D01*
X86886179Y-83391434D02*
X86940054Y-83391434D01*
X86940054Y-83391434D02*
X87020866Y-83364497D01*
X87020866Y-83364497D02*
X87128616Y-83256747D01*
X87128616Y-83256747D02*
X87155553Y-83175935D01*
X87155553Y-83175935D02*
X87155553Y-83122060D01*
X87155553Y-83122060D02*
X87128616Y-83041248D01*
X59558372Y-53746494D02*
X59477560Y-53773431D01*
X59477560Y-53773431D02*
X59396748Y-53854243D01*
X59396748Y-53854243D02*
X59342873Y-53961993D01*
X59342873Y-53961993D02*
X59342873Y-54069742D01*
X59342873Y-54069742D02*
X59369810Y-54150555D01*
X59369810Y-54150555D02*
X59450623Y-54285242D01*
X59450623Y-54285242D02*
X59531435Y-54366054D01*
X59531435Y-54366054D02*
X59666122Y-54446866D01*
X59666122Y-54446866D02*
X59746934Y-54473803D01*
X59746934Y-54473803D02*
X59854684Y-54473803D01*
X59854684Y-54473803D02*
X59962433Y-54419929D01*
X59962433Y-54419929D02*
X60016308Y-54366054D01*
X60016308Y-54366054D02*
X60070183Y-54258304D01*
X60070183Y-54258304D02*
X60070183Y-54204429D01*
X60070183Y-54204429D02*
X59881621Y-54015868D01*
X59881621Y-54015868D02*
X59773871Y-54123617D01*
X60366494Y-54015868D02*
X59800809Y-53450182D01*
X59800809Y-53450182D02*
X60016308Y-53234683D01*
X60016308Y-53234683D02*
X60097120Y-53207746D01*
X60097120Y-53207746D02*
X60150995Y-53207746D01*
X60150995Y-53207746D02*
X60231807Y-53234683D01*
X60231807Y-53234683D02*
X60312619Y-53315495D01*
X60312619Y-53315495D02*
X60339557Y-53396307D01*
X60339557Y-53396307D02*
X60339557Y-53450182D01*
X60339557Y-53450182D02*
X60312619Y-53530994D01*
X60312619Y-53530994D02*
X60097120Y-53746494D01*
X60393432Y-52965309D02*
X60393432Y-52911434D01*
X60393432Y-52911434D02*
X60420369Y-52830622D01*
X60420369Y-52830622D02*
X60555056Y-52695935D01*
X60555056Y-52695935D02*
X60635868Y-52668998D01*
X60635868Y-52668998D02*
X60689743Y-52668998D01*
X60689743Y-52668998D02*
X60770555Y-52695935D01*
X60770555Y-52695935D02*
X60824430Y-52749810D01*
X60824430Y-52749810D02*
X60878305Y-52857559D01*
X60878305Y-52857559D02*
X60878305Y-53504057D01*
X60878305Y-53504057D02*
X61228491Y-53153871D01*
X85242998Y-87035868D02*
X85162185Y-87062805D01*
X85162185Y-87062805D02*
X85081373Y-87143618D01*
X85081373Y-87143618D02*
X85027498Y-87251367D01*
X85027498Y-87251367D02*
X85027498Y-87359117D01*
X85027498Y-87359117D02*
X85054436Y-87439929D01*
X85054436Y-87439929D02*
X85135248Y-87574616D01*
X85135248Y-87574616D02*
X85216060Y-87655428D01*
X85216060Y-87655428D02*
X85350747Y-87736241D01*
X85350747Y-87736241D02*
X85431560Y-87763178D01*
X85431560Y-87763178D02*
X85539309Y-87763178D01*
X85539309Y-87763178D02*
X85647059Y-87709303D01*
X85647059Y-87709303D02*
X85700934Y-87655428D01*
X85700934Y-87655428D02*
X85754808Y-87547679D01*
X85754808Y-87547679D02*
X85754808Y-87493804D01*
X85754808Y-87493804D02*
X85566247Y-87305242D01*
X85566247Y-87305242D02*
X85458497Y-87412992D01*
X86051120Y-87305242D02*
X85485434Y-86739557D01*
X85485434Y-86739557D02*
X85700934Y-86524057D01*
X85700934Y-86524057D02*
X85781746Y-86497120D01*
X85781746Y-86497120D02*
X85835621Y-86497120D01*
X85835621Y-86497120D02*
X85916433Y-86524057D01*
X85916433Y-86524057D02*
X85997245Y-86604870D01*
X85997245Y-86604870D02*
X86024182Y-86685682D01*
X86024182Y-86685682D02*
X86024182Y-86739557D01*
X86024182Y-86739557D02*
X85997245Y-86820369D01*
X85997245Y-86820369D02*
X85781746Y-87035868D01*
X86913117Y-86443245D02*
X86589868Y-86766494D01*
X86751492Y-86604870D02*
X86185807Y-86039184D01*
X86185807Y-86039184D02*
X86212744Y-86173871D01*
X86212744Y-86173871D02*
X86212744Y-86281621D01*
X86212744Y-86281621D02*
X86185807Y-86362433D01*
X86913117Y-85796747D02*
X86832305Y-85823685D01*
X86832305Y-85823685D02*
X86778430Y-85823685D01*
X86778430Y-85823685D02*
X86697618Y-85796747D01*
X86697618Y-85796747D02*
X86670680Y-85769810D01*
X86670680Y-85769810D02*
X86643743Y-85688998D01*
X86643743Y-85688998D02*
X86643743Y-85635123D01*
X86643743Y-85635123D02*
X86670680Y-85554311D01*
X86670680Y-85554311D02*
X86778430Y-85446561D01*
X86778430Y-85446561D02*
X86859242Y-85419624D01*
X86859242Y-85419624D02*
X86913117Y-85419624D01*
X86913117Y-85419624D02*
X86993929Y-85446561D01*
X86993929Y-85446561D02*
X87020866Y-85473499D01*
X87020866Y-85473499D02*
X87047804Y-85554311D01*
X87047804Y-85554311D02*
X87047804Y-85608186D01*
X87047804Y-85608186D02*
X87020866Y-85688998D01*
X87020866Y-85688998D02*
X86913117Y-85796747D01*
X86913117Y-85796747D02*
X86886179Y-85877560D01*
X86886179Y-85877560D02*
X86886179Y-85931434D01*
X86886179Y-85931434D02*
X86913117Y-86012247D01*
X86913117Y-86012247D02*
X87020866Y-86119996D01*
X87020866Y-86119996D02*
X87101679Y-86146934D01*
X87101679Y-86146934D02*
X87155553Y-86146934D01*
X87155553Y-86146934D02*
X87236366Y-86119996D01*
X87236366Y-86119996D02*
X87344115Y-86012247D01*
X87344115Y-86012247D02*
X87371053Y-85931434D01*
X87371053Y-85931434D02*
X87371053Y-85877560D01*
X87371053Y-85877560D02*
X87344115Y-85796747D01*
X87344115Y-85796747D02*
X87236366Y-85688998D01*
X87236366Y-85688998D02*
X87155553Y-85662060D01*
X87155553Y-85662060D02*
X87101679Y-85662060D01*
X87101679Y-85662060D02*
X87020866Y-85688998D01*
X59658372Y-66446494D02*
X59577560Y-66473431D01*
X59577560Y-66473431D02*
X59496748Y-66554243D01*
X59496748Y-66554243D02*
X59442873Y-66661993D01*
X59442873Y-66661993D02*
X59442873Y-66769742D01*
X59442873Y-66769742D02*
X59469810Y-66850555D01*
X59469810Y-66850555D02*
X59550623Y-66985242D01*
X59550623Y-66985242D02*
X59631435Y-67066054D01*
X59631435Y-67066054D02*
X59766122Y-67146866D01*
X59766122Y-67146866D02*
X59846934Y-67173803D01*
X59846934Y-67173803D02*
X59954684Y-67173803D01*
X59954684Y-67173803D02*
X60062433Y-67119929D01*
X60062433Y-67119929D02*
X60116308Y-67066054D01*
X60116308Y-67066054D02*
X60170183Y-66958304D01*
X60170183Y-66958304D02*
X60170183Y-66904429D01*
X60170183Y-66904429D02*
X59981621Y-66715868D01*
X59981621Y-66715868D02*
X59873871Y-66823617D01*
X60466494Y-66715868D02*
X59900809Y-66150182D01*
X59900809Y-66150182D02*
X60116308Y-65934683D01*
X60116308Y-65934683D02*
X60197120Y-65907746D01*
X60197120Y-65907746D02*
X60250995Y-65907746D01*
X60250995Y-65907746D02*
X60331807Y-65934683D01*
X60331807Y-65934683D02*
X60412619Y-66015495D01*
X60412619Y-66015495D02*
X60439557Y-66096307D01*
X60439557Y-66096307D02*
X60439557Y-66150182D01*
X60439557Y-66150182D02*
X60412619Y-66230994D01*
X60412619Y-66230994D02*
X60197120Y-66446494D01*
X60708931Y-65342060D02*
X60601181Y-65449810D01*
X60601181Y-65449810D02*
X60574244Y-65530622D01*
X60574244Y-65530622D02*
X60574244Y-65584497D01*
X60574244Y-65584497D02*
X60601181Y-65719184D01*
X60601181Y-65719184D02*
X60681993Y-65853871D01*
X60681993Y-65853871D02*
X60897493Y-66069370D01*
X60897493Y-66069370D02*
X60978305Y-66096307D01*
X60978305Y-66096307D02*
X61032180Y-66096307D01*
X61032180Y-66096307D02*
X61112992Y-66069370D01*
X61112992Y-66069370D02*
X61220741Y-65961620D01*
X61220741Y-65961620D02*
X61247679Y-65880808D01*
X61247679Y-65880808D02*
X61247679Y-65826933D01*
X61247679Y-65826933D02*
X61220741Y-65746121D01*
X61220741Y-65746121D02*
X61086054Y-65611434D01*
X61086054Y-65611434D02*
X61005242Y-65584497D01*
X61005242Y-65584497D02*
X60951367Y-65584497D01*
X60951367Y-65584497D02*
X60870555Y-65611434D01*
X60870555Y-65611434D02*
X60762806Y-65719184D01*
X60762806Y-65719184D02*
X60735868Y-65799996D01*
X60735868Y-65799996D02*
X60735868Y-65853871D01*
X60735868Y-65853871D02*
X60762806Y-65934683D01*
X85242998Y-79425868D02*
X85162185Y-79452805D01*
X85162185Y-79452805D02*
X85081373Y-79533618D01*
X85081373Y-79533618D02*
X85027498Y-79641367D01*
X85027498Y-79641367D02*
X85027498Y-79749117D01*
X85027498Y-79749117D02*
X85054436Y-79829929D01*
X85054436Y-79829929D02*
X85135248Y-79964616D01*
X85135248Y-79964616D02*
X85216060Y-80045428D01*
X85216060Y-80045428D02*
X85350747Y-80126241D01*
X85350747Y-80126241D02*
X85431560Y-80153178D01*
X85431560Y-80153178D02*
X85539309Y-80153178D01*
X85539309Y-80153178D02*
X85647059Y-80099303D01*
X85647059Y-80099303D02*
X85700934Y-80045428D01*
X85700934Y-80045428D02*
X85754808Y-79937679D01*
X85754808Y-79937679D02*
X85754808Y-79883804D01*
X85754808Y-79883804D02*
X85566247Y-79695242D01*
X85566247Y-79695242D02*
X85458497Y-79802992D01*
X86051120Y-79695242D02*
X85485434Y-79129557D01*
X85485434Y-79129557D02*
X85700934Y-78914057D01*
X85700934Y-78914057D02*
X85781746Y-78887120D01*
X85781746Y-78887120D02*
X85835621Y-78887120D01*
X85835621Y-78887120D02*
X85916433Y-78914057D01*
X85916433Y-78914057D02*
X85997245Y-78994870D01*
X85997245Y-78994870D02*
X86024182Y-79075682D01*
X86024182Y-79075682D02*
X86024182Y-79129557D01*
X86024182Y-79129557D02*
X85997245Y-79210369D01*
X85997245Y-79210369D02*
X85781746Y-79425868D01*
X86078057Y-78644683D02*
X86078057Y-78590809D01*
X86078057Y-78590809D02*
X86104995Y-78509996D01*
X86104995Y-78509996D02*
X86239682Y-78375309D01*
X86239682Y-78375309D02*
X86320494Y-78348372D01*
X86320494Y-78348372D02*
X86374369Y-78348372D01*
X86374369Y-78348372D02*
X86455181Y-78375309D01*
X86455181Y-78375309D02*
X86509056Y-78429184D01*
X86509056Y-78429184D02*
X86562930Y-78536934D01*
X86562930Y-78536934D02*
X86562930Y-79183431D01*
X86562930Y-79183431D02*
X86913117Y-78833245D01*
X87451865Y-78294497D02*
X87128616Y-78617746D01*
X87290240Y-78456121D02*
X86724555Y-77890436D01*
X86724555Y-77890436D02*
X86751492Y-78025123D01*
X86751492Y-78025123D02*
X86751492Y-78132873D01*
X86751492Y-78132873D02*
X86724555Y-78213685D01*
X85242998Y-74335868D02*
X85162185Y-74362805D01*
X85162185Y-74362805D02*
X85081373Y-74443618D01*
X85081373Y-74443618D02*
X85027498Y-74551367D01*
X85027498Y-74551367D02*
X85027498Y-74659117D01*
X85027498Y-74659117D02*
X85054436Y-74739929D01*
X85054436Y-74739929D02*
X85135248Y-74874616D01*
X85135248Y-74874616D02*
X85216060Y-74955428D01*
X85216060Y-74955428D02*
X85350747Y-75036241D01*
X85350747Y-75036241D02*
X85431560Y-75063178D01*
X85431560Y-75063178D02*
X85539309Y-75063178D01*
X85539309Y-75063178D02*
X85647059Y-75009303D01*
X85647059Y-75009303D02*
X85700934Y-74955428D01*
X85700934Y-74955428D02*
X85754808Y-74847679D01*
X85754808Y-74847679D02*
X85754808Y-74793804D01*
X85754808Y-74793804D02*
X85566247Y-74605242D01*
X85566247Y-74605242D02*
X85458497Y-74712992D01*
X86051120Y-74605242D02*
X85485434Y-74039557D01*
X85485434Y-74039557D02*
X85700934Y-73824057D01*
X85700934Y-73824057D02*
X85781746Y-73797120D01*
X85781746Y-73797120D02*
X85835621Y-73797120D01*
X85835621Y-73797120D02*
X85916433Y-73824057D01*
X85916433Y-73824057D02*
X85997245Y-73904870D01*
X85997245Y-73904870D02*
X86024182Y-73985682D01*
X86024182Y-73985682D02*
X86024182Y-74039557D01*
X86024182Y-74039557D02*
X85997245Y-74120369D01*
X85997245Y-74120369D02*
X85781746Y-74335868D01*
X86078057Y-73554683D02*
X86078057Y-73500809D01*
X86078057Y-73500809D02*
X86104995Y-73419996D01*
X86104995Y-73419996D02*
X86239682Y-73285309D01*
X86239682Y-73285309D02*
X86320494Y-73258372D01*
X86320494Y-73258372D02*
X86374369Y-73258372D01*
X86374369Y-73258372D02*
X86455181Y-73285309D01*
X86455181Y-73285309D02*
X86509056Y-73339184D01*
X86509056Y-73339184D02*
X86562930Y-73446934D01*
X86562930Y-73446934D02*
X86562930Y-74093431D01*
X86562930Y-74093431D02*
X86913117Y-73743245D01*
X86616805Y-73015935D02*
X86616805Y-72962060D01*
X86616805Y-72962060D02*
X86643743Y-72881248D01*
X86643743Y-72881248D02*
X86778430Y-72746561D01*
X86778430Y-72746561D02*
X86859242Y-72719624D01*
X86859242Y-72719624D02*
X86913117Y-72719624D01*
X86913117Y-72719624D02*
X86993929Y-72746561D01*
X86993929Y-72746561D02*
X87047804Y-72800436D01*
X87047804Y-72800436D02*
X87101679Y-72908186D01*
X87101679Y-72908186D02*
X87101679Y-73554683D01*
X87101679Y-73554683D02*
X87451865Y-73204497D01*
X59631435Y-76633431D02*
X59550623Y-76660368D01*
X59550623Y-76660368D02*
X59469811Y-76741180D01*
X59469811Y-76741180D02*
X59415936Y-76848930D01*
X59415936Y-76848930D02*
X59415936Y-76956680D01*
X59415936Y-76956680D02*
X59442873Y-77037492D01*
X59442873Y-77037492D02*
X59523685Y-77172179D01*
X59523685Y-77172179D02*
X59604498Y-77252991D01*
X59604498Y-77252991D02*
X59739185Y-77333803D01*
X59739185Y-77333803D02*
X59819997Y-77360741D01*
X59819997Y-77360741D02*
X59927746Y-77360741D01*
X59927746Y-77360741D02*
X60035496Y-77306866D01*
X60035496Y-77306866D02*
X60089371Y-77252991D01*
X60089371Y-77252991D02*
X60143246Y-77145241D01*
X60143246Y-77145241D02*
X60143246Y-77091367D01*
X60143246Y-77091367D02*
X59954684Y-76902805D01*
X59954684Y-76902805D02*
X59846934Y-77010554D01*
X60439557Y-76902805D02*
X59873872Y-76337119D01*
X59873872Y-76337119D02*
X60762806Y-76579556D01*
X60762806Y-76579556D02*
X60197120Y-76013871D01*
X61032180Y-76310182D02*
X60466494Y-75744497D01*
X60466494Y-75744497D02*
X60601181Y-75609810D01*
X60601181Y-75609810D02*
X60708931Y-75555935D01*
X60708931Y-75555935D02*
X60816680Y-75555935D01*
X60816680Y-75555935D02*
X60897493Y-75582872D01*
X60897493Y-75582872D02*
X61032180Y-75663685D01*
X61032180Y-75663685D02*
X61112992Y-75744497D01*
X61112992Y-75744497D02*
X61193804Y-75879184D01*
X61193804Y-75879184D02*
X61220741Y-75959996D01*
X61220741Y-75959996D02*
X61220741Y-76067746D01*
X61220741Y-76067746D02*
X61166867Y-76175495D01*
X61166867Y-76175495D02*
X61032180Y-76310182D01*
X59088998Y-92115868D02*
X59008185Y-92142805D01*
X59008185Y-92142805D02*
X58927373Y-92223618D01*
X58927373Y-92223618D02*
X58873498Y-92331367D01*
X58873498Y-92331367D02*
X58873498Y-92439117D01*
X58873498Y-92439117D02*
X58900436Y-92519929D01*
X58900436Y-92519929D02*
X58981248Y-92654616D01*
X58981248Y-92654616D02*
X59062060Y-92735428D01*
X59062060Y-92735428D02*
X59196747Y-92816241D01*
X59196747Y-92816241D02*
X59277560Y-92843178D01*
X59277560Y-92843178D02*
X59385309Y-92843178D01*
X59385309Y-92843178D02*
X59493059Y-92789303D01*
X59493059Y-92789303D02*
X59546934Y-92735428D01*
X59546934Y-92735428D02*
X59600808Y-92627679D01*
X59600808Y-92627679D02*
X59600808Y-92573804D01*
X59600808Y-92573804D02*
X59412247Y-92385242D01*
X59412247Y-92385242D02*
X59304497Y-92492992D01*
X59897120Y-92385242D02*
X59331434Y-91819557D01*
X59331434Y-91819557D02*
X59546934Y-91604057D01*
X59546934Y-91604057D02*
X59627746Y-91577120D01*
X59627746Y-91577120D02*
X59681621Y-91577120D01*
X59681621Y-91577120D02*
X59762433Y-91604057D01*
X59762433Y-91604057D02*
X59843245Y-91684870D01*
X59843245Y-91684870D02*
X59870182Y-91765682D01*
X59870182Y-91765682D02*
X59870182Y-91819557D01*
X59870182Y-91819557D02*
X59843245Y-91900369D01*
X59843245Y-91900369D02*
X59627746Y-92115868D01*
X60759117Y-91523245D02*
X60435868Y-91846494D01*
X60597492Y-91684870D02*
X60031807Y-91119184D01*
X60031807Y-91119184D02*
X60058744Y-91253871D01*
X60058744Y-91253871D02*
X60058744Y-91361621D01*
X60058744Y-91361621D02*
X60031807Y-91442433D01*
X60866866Y-90661248D02*
X61243990Y-91038372D01*
X60516680Y-90580436D02*
X60786054Y-91119184D01*
X60786054Y-91119184D02*
X61136240Y-90768998D01*
X85065749Y-49205242D02*
X85819996Y-49582366D01*
X85819996Y-49582366D02*
X85442873Y-48828118D01*
X86143245Y-49205242D02*
X86250995Y-49151367D01*
X86250995Y-49151367D02*
X86385682Y-49016680D01*
X86385682Y-49016680D02*
X86412619Y-48935868D01*
X86412619Y-48935868D02*
X86412619Y-48881993D01*
X86412619Y-48881993D02*
X86385682Y-48801181D01*
X86385682Y-48801181D02*
X86331807Y-48747306D01*
X86331807Y-48747306D02*
X86250995Y-48720369D01*
X86250995Y-48720369D02*
X86197120Y-48720369D01*
X86197120Y-48720369D02*
X86116308Y-48747306D01*
X86116308Y-48747306D02*
X85981621Y-48828118D01*
X85981621Y-48828118D02*
X85900808Y-48855056D01*
X85900808Y-48855056D02*
X85846934Y-48855056D01*
X85846934Y-48855056D02*
X85766121Y-48828118D01*
X85766121Y-48828118D02*
X85712247Y-48774244D01*
X85712247Y-48774244D02*
X85685309Y-48693431D01*
X85685309Y-48693431D02*
X85685309Y-48639557D01*
X85685309Y-48639557D02*
X85712247Y-48558744D01*
X85712247Y-48558744D02*
X85846934Y-48424057D01*
X85846934Y-48424057D02*
X85954683Y-48370183D01*
X86574244Y-48289370D02*
X86843618Y-48558744D01*
X86089370Y-48181621D02*
X86574244Y-48289370D01*
X86574244Y-48289370D02*
X86466494Y-47804497D01*
X87166866Y-48181621D02*
X87274616Y-48127746D01*
X87274616Y-48127746D02*
X87409303Y-47993059D01*
X87409303Y-47993059D02*
X87436240Y-47912247D01*
X87436240Y-47912247D02*
X87436240Y-47858372D01*
X87436240Y-47858372D02*
X87409303Y-47777560D01*
X87409303Y-47777560D02*
X87355428Y-47723685D01*
X87355428Y-47723685D02*
X87274616Y-47696748D01*
X87274616Y-47696748D02*
X87220741Y-47696748D01*
X87220741Y-47696748D02*
X87139929Y-47723685D01*
X87139929Y-47723685D02*
X87005242Y-47804497D01*
X87005242Y-47804497D02*
X86924430Y-47831435D01*
X86924430Y-47831435D02*
X86870555Y-47831435D01*
X86870555Y-47831435D02*
X86789743Y-47804497D01*
X86789743Y-47804497D02*
X86735868Y-47750622D01*
X86735868Y-47750622D02*
X86708930Y-47669810D01*
X86708930Y-47669810D02*
X86708930Y-47615935D01*
X86708930Y-47615935D02*
X86735868Y-47535123D01*
X86735868Y-47535123D02*
X86870555Y-47400436D01*
X86870555Y-47400436D02*
X86978304Y-47346561D01*
X58988998Y-84495868D02*
X58908185Y-84522805D01*
X58908185Y-84522805D02*
X58827373Y-84603618D01*
X58827373Y-84603618D02*
X58773498Y-84711367D01*
X58773498Y-84711367D02*
X58773498Y-84819117D01*
X58773498Y-84819117D02*
X58800436Y-84899929D01*
X58800436Y-84899929D02*
X58881248Y-85034616D01*
X58881248Y-85034616D02*
X58962060Y-85115428D01*
X58962060Y-85115428D02*
X59096747Y-85196241D01*
X59096747Y-85196241D02*
X59177560Y-85223178D01*
X59177560Y-85223178D02*
X59285309Y-85223178D01*
X59285309Y-85223178D02*
X59393059Y-85169303D01*
X59393059Y-85169303D02*
X59446934Y-85115428D01*
X59446934Y-85115428D02*
X59500808Y-85007679D01*
X59500808Y-85007679D02*
X59500808Y-84953804D01*
X59500808Y-84953804D02*
X59312247Y-84765242D01*
X59312247Y-84765242D02*
X59204497Y-84872992D01*
X59797120Y-84765242D02*
X59231434Y-84199557D01*
X59231434Y-84199557D02*
X59446934Y-83984057D01*
X59446934Y-83984057D02*
X59527746Y-83957120D01*
X59527746Y-83957120D02*
X59581621Y-83957120D01*
X59581621Y-83957120D02*
X59662433Y-83984057D01*
X59662433Y-83984057D02*
X59743245Y-84064870D01*
X59743245Y-84064870D02*
X59770182Y-84145682D01*
X59770182Y-84145682D02*
X59770182Y-84199557D01*
X59770182Y-84199557D02*
X59743245Y-84280369D01*
X59743245Y-84280369D02*
X59527746Y-84495868D01*
X60659117Y-83903245D02*
X60335868Y-84226494D01*
X60497492Y-84064870D02*
X59931807Y-83499184D01*
X59931807Y-83499184D02*
X59958744Y-83633871D01*
X59958744Y-83633871D02*
X59958744Y-83741621D01*
X59958744Y-83741621D02*
X59931807Y-83822433D01*
X60362805Y-83175935D02*
X60362805Y-83122060D01*
X60362805Y-83122060D02*
X60389743Y-83041248D01*
X60389743Y-83041248D02*
X60524430Y-82906561D01*
X60524430Y-82906561D02*
X60605242Y-82879624D01*
X60605242Y-82879624D02*
X60659117Y-82879624D01*
X60659117Y-82879624D02*
X60739929Y-82906561D01*
X60739929Y-82906561D02*
X60793804Y-82960436D01*
X60793804Y-82960436D02*
X60847679Y-83068186D01*
X60847679Y-83068186D02*
X60847679Y-83714683D01*
X60847679Y-83714683D02*
X61197865Y-83364497D01*
X59558372Y-48656494D02*
X59477560Y-48683431D01*
X59477560Y-48683431D02*
X59396748Y-48764243D01*
X59396748Y-48764243D02*
X59342873Y-48871993D01*
X59342873Y-48871993D02*
X59342873Y-48979742D01*
X59342873Y-48979742D02*
X59369810Y-49060555D01*
X59369810Y-49060555D02*
X59450623Y-49195242D01*
X59450623Y-49195242D02*
X59531435Y-49276054D01*
X59531435Y-49276054D02*
X59666122Y-49356866D01*
X59666122Y-49356866D02*
X59746934Y-49383803D01*
X59746934Y-49383803D02*
X59854684Y-49383803D01*
X59854684Y-49383803D02*
X59962433Y-49329929D01*
X59962433Y-49329929D02*
X60016308Y-49276054D01*
X60016308Y-49276054D02*
X60070183Y-49168304D01*
X60070183Y-49168304D02*
X60070183Y-49114429D01*
X60070183Y-49114429D02*
X59881621Y-48925868D01*
X59881621Y-48925868D02*
X59773871Y-49033617D01*
X60366494Y-48925868D02*
X59800809Y-48360182D01*
X59800809Y-48360182D02*
X60016308Y-48144683D01*
X60016308Y-48144683D02*
X60097120Y-48117746D01*
X60097120Y-48117746D02*
X60150995Y-48117746D01*
X60150995Y-48117746D02*
X60231807Y-48144683D01*
X60231807Y-48144683D02*
X60312619Y-48225495D01*
X60312619Y-48225495D02*
X60339557Y-48306307D01*
X60339557Y-48306307D02*
X60339557Y-48360182D01*
X60339557Y-48360182D02*
X60312619Y-48440994D01*
X60312619Y-48440994D02*
X60097120Y-48656494D01*
X61228491Y-48063871D02*
X60905242Y-48387120D01*
X61066867Y-48225495D02*
X60501181Y-47659810D01*
X60501181Y-47659810D02*
X60528119Y-47794497D01*
X60528119Y-47794497D02*
X60528119Y-47902246D01*
X60528119Y-47902246D02*
X60501181Y-47983059D01*
X59134998Y-79415868D02*
X59054185Y-79442805D01*
X59054185Y-79442805D02*
X58973373Y-79523618D01*
X58973373Y-79523618D02*
X58919498Y-79631367D01*
X58919498Y-79631367D02*
X58919498Y-79739117D01*
X58919498Y-79739117D02*
X58946436Y-79819929D01*
X58946436Y-79819929D02*
X59027248Y-79954616D01*
X59027248Y-79954616D02*
X59108060Y-80035428D01*
X59108060Y-80035428D02*
X59242747Y-80116241D01*
X59242747Y-80116241D02*
X59323560Y-80143178D01*
X59323560Y-80143178D02*
X59431309Y-80143178D01*
X59431309Y-80143178D02*
X59539059Y-80089303D01*
X59539059Y-80089303D02*
X59592934Y-80035428D01*
X59592934Y-80035428D02*
X59646808Y-79927679D01*
X59646808Y-79927679D02*
X59646808Y-79873804D01*
X59646808Y-79873804D02*
X59458247Y-79685242D01*
X59458247Y-79685242D02*
X59350497Y-79792992D01*
X59943120Y-79685242D02*
X59377434Y-79119557D01*
X59377434Y-79119557D02*
X59592934Y-78904057D01*
X59592934Y-78904057D02*
X59673746Y-78877120D01*
X59673746Y-78877120D02*
X59727621Y-78877120D01*
X59727621Y-78877120D02*
X59808433Y-78904057D01*
X59808433Y-78904057D02*
X59889245Y-78984870D01*
X59889245Y-78984870D02*
X59916182Y-79065682D01*
X59916182Y-79065682D02*
X59916182Y-79119557D01*
X59916182Y-79119557D02*
X59889245Y-79200369D01*
X59889245Y-79200369D02*
X59673746Y-79415868D01*
X60805117Y-78823245D02*
X60481868Y-79146494D01*
X60643492Y-78984870D02*
X60077807Y-78419184D01*
X60077807Y-78419184D02*
X60104744Y-78553871D01*
X60104744Y-78553871D02*
X60104744Y-78661621D01*
X60104744Y-78661621D02*
X60077807Y-78742433D01*
X60589618Y-77907373D02*
X60643492Y-77853499D01*
X60643492Y-77853499D02*
X60724305Y-77826561D01*
X60724305Y-77826561D02*
X60778179Y-77826561D01*
X60778179Y-77826561D02*
X60858992Y-77853499D01*
X60858992Y-77853499D02*
X60993679Y-77934311D01*
X60993679Y-77934311D02*
X61128366Y-78068998D01*
X61128366Y-78068998D02*
X61209178Y-78203685D01*
X61209178Y-78203685D02*
X61236115Y-78284497D01*
X61236115Y-78284497D02*
X61236115Y-78338372D01*
X61236115Y-78338372D02*
X61209178Y-78419184D01*
X61209178Y-78419184D02*
X61155303Y-78473059D01*
X61155303Y-78473059D02*
X61074491Y-78499996D01*
X61074491Y-78499996D02*
X61020616Y-78499996D01*
X61020616Y-78499996D02*
X60939804Y-78473059D01*
X60939804Y-78473059D02*
X60805117Y-78392247D01*
X60805117Y-78392247D02*
X60670430Y-78257560D01*
X60670430Y-78257560D02*
X60589618Y-78122873D01*
X60589618Y-78122873D02*
X60562680Y-78042060D01*
X60562680Y-78042060D02*
X60562680Y-77988186D01*
X60562680Y-77988186D02*
X60589618Y-77907373D01*
X85983651Y-72078710D02*
X85525716Y-71997898D01*
X85660403Y-72401959D02*
X85094717Y-71836274D01*
X85094717Y-71836274D02*
X85310216Y-71620775D01*
X85310216Y-71620775D02*
X85391029Y-71593837D01*
X85391029Y-71593837D02*
X85444903Y-71593837D01*
X85444903Y-71593837D02*
X85525716Y-71620775D01*
X85525716Y-71620775D02*
X85606528Y-71701587D01*
X85606528Y-71701587D02*
X85633465Y-71782399D01*
X85633465Y-71782399D02*
X85633465Y-71836274D01*
X85633465Y-71836274D02*
X85606528Y-71917086D01*
X85606528Y-71917086D02*
X85391029Y-72132585D01*
X85660403Y-71270588D02*
X86118338Y-71728524D01*
X86118338Y-71728524D02*
X86199151Y-71755462D01*
X86199151Y-71755462D02*
X86253025Y-71755462D01*
X86253025Y-71755462D02*
X86333838Y-71728524D01*
X86333838Y-71728524D02*
X86441587Y-71620775D01*
X86441587Y-71620775D02*
X86468525Y-71539962D01*
X86468525Y-71539962D02*
X86468525Y-71486088D01*
X86468525Y-71486088D02*
X86441587Y-71405275D01*
X86441587Y-71405275D02*
X85983651Y-70947340D01*
X86818711Y-71243651D02*
X86253025Y-70677966D01*
X86253025Y-70677966D02*
X87141959Y-70920402D01*
X87141959Y-70920402D02*
X86576274Y-70354717D01*
X85242998Y-66725868D02*
X85162185Y-66752805D01*
X85162185Y-66752805D02*
X85081373Y-66833618D01*
X85081373Y-66833618D02*
X85027498Y-66941367D01*
X85027498Y-66941367D02*
X85027498Y-67049117D01*
X85027498Y-67049117D02*
X85054436Y-67129929D01*
X85054436Y-67129929D02*
X85135248Y-67264616D01*
X85135248Y-67264616D02*
X85216060Y-67345428D01*
X85216060Y-67345428D02*
X85350747Y-67426241D01*
X85350747Y-67426241D02*
X85431560Y-67453178D01*
X85431560Y-67453178D02*
X85539309Y-67453178D01*
X85539309Y-67453178D02*
X85647059Y-67399303D01*
X85647059Y-67399303D02*
X85700934Y-67345428D01*
X85700934Y-67345428D02*
X85754808Y-67237679D01*
X85754808Y-67237679D02*
X85754808Y-67183804D01*
X85754808Y-67183804D02*
X85566247Y-66995242D01*
X85566247Y-66995242D02*
X85458497Y-67102992D01*
X86051120Y-66995242D02*
X85485434Y-66429557D01*
X85485434Y-66429557D02*
X85700934Y-66214057D01*
X85700934Y-66214057D02*
X85781746Y-66187120D01*
X85781746Y-66187120D02*
X85835621Y-66187120D01*
X85835621Y-66187120D02*
X85916433Y-66214057D01*
X85916433Y-66214057D02*
X85997245Y-66294870D01*
X85997245Y-66294870D02*
X86024182Y-66375682D01*
X86024182Y-66375682D02*
X86024182Y-66429557D01*
X86024182Y-66429557D02*
X85997245Y-66510369D01*
X85997245Y-66510369D02*
X85781746Y-66725868D01*
X86078057Y-65944683D02*
X86078057Y-65890809D01*
X86078057Y-65890809D02*
X86104995Y-65809996D01*
X86104995Y-65809996D02*
X86239682Y-65675309D01*
X86239682Y-65675309D02*
X86320494Y-65648372D01*
X86320494Y-65648372D02*
X86374369Y-65648372D01*
X86374369Y-65648372D02*
X86455181Y-65675309D01*
X86455181Y-65675309D02*
X86509056Y-65729184D01*
X86509056Y-65729184D02*
X86562930Y-65836934D01*
X86562930Y-65836934D02*
X86562930Y-66483431D01*
X86562930Y-66483431D02*
X86913117Y-66133245D01*
X86535993Y-65378998D02*
X86913117Y-65001874D01*
X86913117Y-65001874D02*
X87236366Y-65809996D01*
X89166666Y-92394819D02*
X89166666Y-93109104D01*
X89166666Y-93109104D02*
X89119047Y-93251961D01*
X89119047Y-93251961D02*
X89023809Y-93347200D01*
X89023809Y-93347200D02*
X88880952Y-93394819D01*
X88880952Y-93394819D02*
X88785714Y-93394819D01*
X90166666Y-93394819D02*
X89595238Y-93394819D01*
X89880952Y-93394819D02*
X89880952Y-92394819D01*
X89880952Y-92394819D02*
X89785714Y-92537676D01*
X89785714Y-92537676D02*
X89690476Y-92632914D01*
X89690476Y-92632914D02*
X89595238Y-92680533D01*
X54526905Y-70954819D02*
X54526905Y-69954819D01*
X54526905Y-69954819D02*
X54765000Y-69954819D01*
X54765000Y-69954819D02*
X54907857Y-70002438D01*
X54907857Y-70002438D02*
X55003095Y-70097676D01*
X55003095Y-70097676D02*
X55050714Y-70192914D01*
X55050714Y-70192914D02*
X55098333Y-70383390D01*
X55098333Y-70383390D02*
X55098333Y-70526247D01*
X55098333Y-70526247D02*
X55050714Y-70716723D01*
X55050714Y-70716723D02*
X55003095Y-70811961D01*
X55003095Y-70811961D02*
X54907857Y-70907200D01*
X54907857Y-70907200D02*
X54765000Y-70954819D01*
X54765000Y-70954819D02*
X54526905Y-70954819D01*
X55431667Y-69954819D02*
X56050714Y-69954819D01*
X56050714Y-69954819D02*
X55717381Y-70335771D01*
X55717381Y-70335771D02*
X55860238Y-70335771D01*
X55860238Y-70335771D02*
X55955476Y-70383390D01*
X55955476Y-70383390D02*
X56003095Y-70431009D01*
X56003095Y-70431009D02*
X56050714Y-70526247D01*
X56050714Y-70526247D02*
X56050714Y-70764342D01*
X56050714Y-70764342D02*
X56003095Y-70859580D01*
X56003095Y-70859580D02*
X55955476Y-70907200D01*
X55955476Y-70907200D02*
X55860238Y-70954819D01*
X55860238Y-70954819D02*
X55574524Y-70954819D01*
X55574524Y-70954819D02*
X55479286Y-70907200D01*
X55479286Y-70907200D02*
X55431667Y-70859580D01*
X55756905Y-63994819D02*
X55756905Y-62994819D01*
X55756905Y-62994819D02*
X55995000Y-62994819D01*
X55995000Y-62994819D02*
X56137857Y-63042438D01*
X56137857Y-63042438D02*
X56233095Y-63137676D01*
X56233095Y-63137676D02*
X56280714Y-63232914D01*
X56280714Y-63232914D02*
X56328333Y-63423390D01*
X56328333Y-63423390D02*
X56328333Y-63566247D01*
X56328333Y-63566247D02*
X56280714Y-63756723D01*
X56280714Y-63756723D02*
X56233095Y-63851961D01*
X56233095Y-63851961D02*
X56137857Y-63947200D01*
X56137857Y-63947200D02*
X55995000Y-63994819D01*
X55995000Y-63994819D02*
X55756905Y-63994819D01*
X56709286Y-63090057D02*
X56756905Y-63042438D01*
X56756905Y-63042438D02*
X56852143Y-62994819D01*
X56852143Y-62994819D02*
X57090238Y-62994819D01*
X57090238Y-62994819D02*
X57185476Y-63042438D01*
X57185476Y-63042438D02*
X57233095Y-63090057D01*
X57233095Y-63090057D02*
X57280714Y-63185295D01*
X57280714Y-63185295D02*
X57280714Y-63280533D01*
X57280714Y-63280533D02*
X57233095Y-63423390D01*
X57233095Y-63423390D02*
X56661667Y-63994819D01*
X56661667Y-63994819D02*
X57280714Y-63994819D01*
X53761905Y-56954819D02*
X53761905Y-55954819D01*
X53761905Y-55954819D02*
X54000000Y-55954819D01*
X54000000Y-55954819D02*
X54142857Y-56002438D01*
X54142857Y-56002438D02*
X54238095Y-56097676D01*
X54238095Y-56097676D02*
X54285714Y-56192914D01*
X54285714Y-56192914D02*
X54333333Y-56383390D01*
X54333333Y-56383390D02*
X54333333Y-56526247D01*
X54333333Y-56526247D02*
X54285714Y-56716723D01*
X54285714Y-56716723D02*
X54238095Y-56811961D01*
X54238095Y-56811961D02*
X54142857Y-56907200D01*
X54142857Y-56907200D02*
X54000000Y-56954819D01*
X54000000Y-56954819D02*
X53761905Y-56954819D01*
X55285714Y-56954819D02*
X54714286Y-56954819D01*
X55000000Y-56954819D02*
X55000000Y-55954819D01*
X55000000Y-55954819D02*
X54904762Y-56097676D01*
X54904762Y-56097676D02*
X54809524Y-56192914D01*
X54809524Y-56192914D02*
X54714286Y-56240533D01*
X96833333Y-72454819D02*
X96500000Y-71978628D01*
X96261905Y-72454819D02*
X96261905Y-71454819D01*
X96261905Y-71454819D02*
X96642857Y-71454819D01*
X96642857Y-71454819D02*
X96738095Y-71502438D01*
X96738095Y-71502438D02*
X96785714Y-71550057D01*
X96785714Y-71550057D02*
X96833333Y-71645295D01*
X96833333Y-71645295D02*
X96833333Y-71788152D01*
X96833333Y-71788152D02*
X96785714Y-71883390D01*
X96785714Y-71883390D02*
X96738095Y-71931009D01*
X96738095Y-71931009D02*
X96642857Y-71978628D01*
X96642857Y-71978628D02*
X96261905Y-71978628D01*
X97690476Y-71788152D02*
X97690476Y-72454819D01*
X97452381Y-71407200D02*
X97214286Y-72121485D01*
X97214286Y-72121485D02*
X97833333Y-72121485D01*
X98534819Y-76666666D02*
X98058628Y-76999999D01*
X98534819Y-77238094D02*
X97534819Y-77238094D01*
X97534819Y-77238094D02*
X97534819Y-76857142D01*
X97534819Y-76857142D02*
X97582438Y-76761904D01*
X97582438Y-76761904D02*
X97630057Y-76714285D01*
X97630057Y-76714285D02*
X97725295Y-76666666D01*
X97725295Y-76666666D02*
X97868152Y-76666666D01*
X97868152Y-76666666D02*
X97963390Y-76714285D01*
X97963390Y-76714285D02*
X98011009Y-76761904D01*
X98011009Y-76761904D02*
X98058628Y-76857142D01*
X98058628Y-76857142D02*
X98058628Y-77238094D01*
X97534819Y-75761904D02*
X97534819Y-76238094D01*
X97534819Y-76238094D02*
X98011009Y-76285713D01*
X98011009Y-76285713D02*
X97963390Y-76238094D01*
X97963390Y-76238094D02*
X97915771Y-76142856D01*
X97915771Y-76142856D02*
X97915771Y-75904761D01*
X97915771Y-75904761D02*
X97963390Y-75809523D01*
X97963390Y-75809523D02*
X98011009Y-75761904D01*
X98011009Y-75761904D02*
X98106247Y-75714285D01*
X98106247Y-75714285D02*
X98344342Y-75714285D01*
X98344342Y-75714285D02*
X98439580Y-75761904D01*
X98439580Y-75761904D02*
X98487200Y-75809523D01*
X98487200Y-75809523D02*
X98534819Y-75904761D01*
X98534819Y-75904761D02*
X98534819Y-76142856D01*
X98534819Y-76142856D02*
X98487200Y-76238094D01*
X98487200Y-76238094D02*
X98439580Y-76285713D01*
X50454819Y-73666666D02*
X49978628Y-73999999D01*
X50454819Y-74238094D02*
X49454819Y-74238094D01*
X49454819Y-74238094D02*
X49454819Y-73857142D01*
X49454819Y-73857142D02*
X49502438Y-73761904D01*
X49502438Y-73761904D02*
X49550057Y-73714285D01*
X49550057Y-73714285D02*
X49645295Y-73666666D01*
X49645295Y-73666666D02*
X49788152Y-73666666D01*
X49788152Y-73666666D02*
X49883390Y-73714285D01*
X49883390Y-73714285D02*
X49931009Y-73761904D01*
X49931009Y-73761904D02*
X49978628Y-73857142D01*
X49978628Y-73857142D02*
X49978628Y-74238094D01*
X50454819Y-72714285D02*
X50454819Y-73285713D01*
X50454819Y-72999999D02*
X49454819Y-72999999D01*
X49454819Y-72999999D02*
X49597676Y-73095237D01*
X49597676Y-73095237D02*
X49692914Y-73190475D01*
X49692914Y-73190475D02*
X49740533Y-73285713D01*
X50534819Y-61666666D02*
X50058628Y-61999999D01*
X50534819Y-62238094D02*
X49534819Y-62238094D01*
X49534819Y-62238094D02*
X49534819Y-61857142D01*
X49534819Y-61857142D02*
X49582438Y-61761904D01*
X49582438Y-61761904D02*
X49630057Y-61714285D01*
X49630057Y-61714285D02*
X49725295Y-61666666D01*
X49725295Y-61666666D02*
X49868152Y-61666666D01*
X49868152Y-61666666D02*
X49963390Y-61714285D01*
X49963390Y-61714285D02*
X50011009Y-61761904D01*
X50011009Y-61761904D02*
X50058628Y-61857142D01*
X50058628Y-61857142D02*
X50058628Y-62238094D01*
X49630057Y-61285713D02*
X49582438Y-61238094D01*
X49582438Y-61238094D02*
X49534819Y-61142856D01*
X49534819Y-61142856D02*
X49534819Y-60904761D01*
X49534819Y-60904761D02*
X49582438Y-60809523D01*
X49582438Y-60809523D02*
X49630057Y-60761904D01*
X49630057Y-60761904D02*
X49725295Y-60714285D01*
X49725295Y-60714285D02*
X49820533Y-60714285D01*
X49820533Y-60714285D02*
X49963390Y-60761904D01*
X49963390Y-60761904D02*
X50534819Y-61333332D01*
X50534819Y-61333332D02*
X50534819Y-60714285D01*
X57833333Y-52454819D02*
X57500000Y-51978628D01*
X57261905Y-52454819D02*
X57261905Y-51454819D01*
X57261905Y-51454819D02*
X57642857Y-51454819D01*
X57642857Y-51454819D02*
X57738095Y-51502438D01*
X57738095Y-51502438D02*
X57785714Y-51550057D01*
X57785714Y-51550057D02*
X57833333Y-51645295D01*
X57833333Y-51645295D02*
X57833333Y-51788152D01*
X57833333Y-51788152D02*
X57785714Y-51883390D01*
X57785714Y-51883390D02*
X57738095Y-51931009D01*
X57738095Y-51931009D02*
X57642857Y-51978628D01*
X57642857Y-51978628D02*
X57261905Y-51978628D01*
X58166667Y-51454819D02*
X58785714Y-51454819D01*
X58785714Y-51454819D02*
X58452381Y-51835771D01*
X58452381Y-51835771D02*
X58595238Y-51835771D01*
X58595238Y-51835771D02*
X58690476Y-51883390D01*
X58690476Y-51883390D02*
X58738095Y-51931009D01*
X58738095Y-51931009D02*
X58785714Y-52026247D01*
X58785714Y-52026247D02*
X58785714Y-52264342D01*
X58785714Y-52264342D02*
X58738095Y-52359580D01*
X58738095Y-52359580D02*
X58690476Y-52407200D01*
X58690476Y-52407200D02*
X58595238Y-52454819D01*
X58595238Y-52454819D02*
X58309524Y-52454819D01*
X58309524Y-52454819D02*
X58214286Y-52407200D01*
X58214286Y-52407200D02*
X58166667Y-52359580D01*
D11*
%TO.C,T1*%
X89930000Y-80225000D02*
X93530000Y-80225000D01*
X89891522Y-80213478D02*
G75*
G02*
X91730000Y-75775000I1838478J1838478D01*
G01*
X91730000Y-75775000D02*
G75*
G02*
X93568478Y-80213478I0J-2600000D01*
G01*
%TO.C,RGB_Sensor1*%
X96347500Y-58667500D02*
X92407500Y-58667500D01*
X96347500Y-56087500D02*
X92407500Y-56087500D01*
X96807500Y-58317500D02*
X96477500Y-58077500D01*
X96807500Y-57837500D01*
X96807500Y-58317500D01*
G36*
X96807500Y-58317500D02*
G01*
X96477500Y-58077500D01*
X96807500Y-57837500D01*
X96807500Y-58317500D01*
G37*
%TO.C,BZ1*%
X101600000Y-87500000D02*
G75*
G02*
X89400000Y-87500000I-6100000J0D01*
G01*
X89400000Y-87500000D02*
G75*
G02*
X101600000Y-87500000I6100000J0D01*
G01*
%TO.C,U1*%
X62645000Y-44635000D02*
X62645000Y-44935000D01*
X62645000Y-44635000D02*
X83645000Y-44635000D01*
X62645000Y-47035000D02*
X62645000Y-47435000D01*
X62645000Y-47302000D02*
X65652000Y-47302000D01*
X62645000Y-49635000D02*
X62645000Y-50035000D01*
X62645000Y-52135000D02*
X62645000Y-52535000D01*
X62645000Y-54735000D02*
X62645000Y-55135000D01*
X62645000Y-57235000D02*
X62645000Y-57635000D01*
X62645000Y-59735000D02*
X62645000Y-60135000D01*
X62645000Y-62335000D02*
X62645000Y-62735000D01*
X62645000Y-64835000D02*
X62645000Y-65235000D01*
X62645000Y-67435000D02*
X62645000Y-67835000D01*
X62645000Y-69935000D02*
X62645000Y-70335000D01*
X62645000Y-72435000D02*
X62645000Y-72835000D01*
X62645000Y-75035000D02*
X62645000Y-75435000D01*
X62645000Y-77535000D02*
X62645000Y-77935000D01*
X62645000Y-80135000D02*
X62645000Y-80535000D01*
X62645000Y-82635000D02*
X62645000Y-83035000D01*
X62645000Y-85235000D02*
X62645000Y-85635000D01*
X62645000Y-87735000D02*
X62645000Y-88135000D01*
X62645000Y-90235000D02*
X62645000Y-90635000D01*
X62645000Y-92835000D02*
X62645000Y-93235000D01*
X65652000Y-47302000D02*
X65652000Y-44635000D01*
X69445000Y-95635000D02*
X62645000Y-95635000D01*
X71645000Y-95635000D02*
X72045000Y-95635000D01*
X74245000Y-95635000D02*
X74645000Y-95635000D01*
X83645000Y-44635000D02*
X83645000Y-44935000D01*
X83645000Y-47035000D02*
X83645000Y-47435000D01*
X83645000Y-49635000D02*
X83645000Y-50035000D01*
X83645000Y-52135000D02*
X83645000Y-52535000D01*
X83645000Y-54735000D02*
X83645000Y-55135000D01*
X83645000Y-57235000D02*
X83645000Y-57635000D01*
X83645000Y-59735000D02*
X83645000Y-60135000D01*
X83645000Y-62335000D02*
X83645000Y-62735000D01*
X83645000Y-64835000D02*
X83645000Y-65235000D01*
X83645000Y-67435000D02*
X83645000Y-67835000D01*
X83645000Y-69935000D02*
X83645000Y-70335000D01*
X83645000Y-72435000D02*
X83645000Y-72835000D01*
X83645000Y-75035000D02*
X83645000Y-75435000D01*
X83645000Y-77535000D02*
X83645000Y-77935000D01*
X83645000Y-80135000D02*
X83645000Y-80535000D01*
X83645000Y-82635000D02*
X83645000Y-83035000D01*
X83645000Y-85235000D02*
X83645000Y-85635000D01*
X83645000Y-87735000D02*
X83645000Y-88135000D01*
X83645000Y-90235000D02*
X83645000Y-90635000D01*
X83645000Y-92835000D02*
X83645000Y-93235000D01*
X83645000Y-95635000D02*
X76845000Y-95635000D01*
%TO.C,J1*%
X88805000Y-93815000D02*
X89500000Y-93815000D01*
X88805000Y-94500000D02*
X88805000Y-93815000D01*
X88805000Y-95185000D02*
X88805000Y-95060000D01*
X88805000Y-95185000D02*
X88891724Y-95185000D01*
X88805000Y-95185000D02*
X90195000Y-95185000D01*
X90108276Y-95185000D02*
X90195000Y-95185000D01*
X90195000Y-95185000D02*
X90195000Y-95060000D01*
%TO.C,D3*%
X54935000Y-72764000D02*
X54935000Y-72920000D01*
X54935000Y-75080000D02*
X54935000Y-75236000D01*
X54935001Y-72764485D02*
G75*
G02*
X58167334Y-72921392I1559999J-1235515D01*
G01*
X55454040Y-72920001D02*
G75*
G02*
X57536129Y-72920164I1040960J-1079999D01*
G01*
X57536129Y-75079836D02*
G75*
G02*
X55454040Y-75079999I-1041129J1079836D01*
G01*
X58167334Y-75078608D02*
G75*
G02*
X54935001Y-75235515I-1672334J1078608D01*
G01*
%TO.C,D2*%
X54935000Y-65264000D02*
X54935000Y-65420000D01*
X54935000Y-67580000D02*
X54935000Y-67736000D01*
X54935001Y-65264485D02*
G75*
G02*
X58167334Y-65421392I1559999J-1235515D01*
G01*
X55454040Y-65420001D02*
G75*
G02*
X57536129Y-65420164I1040960J-1079999D01*
G01*
X57536129Y-67579836D02*
G75*
G02*
X55454040Y-67579999I-1041129J1079836D01*
G01*
X58167334Y-67578608D02*
G75*
G02*
X54935001Y-67735515I-1672334J1078608D01*
G01*
%TO.C,D1*%
X54935000Y-57264000D02*
X54935000Y-57420000D01*
X54935000Y-59580000D02*
X54935000Y-59736000D01*
X54935001Y-57264485D02*
G75*
G02*
X58167334Y-57421392I1559999J-1235515D01*
G01*
X55454040Y-57420001D02*
G75*
G02*
X57536129Y-57420164I1040960J-1079999D01*
G01*
X57536129Y-59579836D02*
G75*
G02*
X55454040Y-59579999I-1041129J1079836D01*
G01*
X58167334Y-59578608D02*
G75*
G02*
X54935001Y-59735515I-1672334J1078608D01*
G01*
%TO.C,R4*%
X95870000Y-73500000D02*
X94920000Y-73500000D01*
X94920000Y-74420000D02*
X94920000Y-72580000D01*
X94920000Y-72580000D02*
X91080000Y-72580000D01*
X91080000Y-74420000D02*
X94920000Y-74420000D01*
X91080000Y-72580000D02*
X91080000Y-74420000D01*
X90130000Y-73500000D02*
X91080000Y-73500000D01*
%TO.C,R5*%
X100000000Y-79370000D02*
X100000000Y-78420000D01*
X99080000Y-78420000D02*
X100920000Y-78420000D01*
X100920000Y-78420000D02*
X100920000Y-74580000D01*
X99080000Y-74580000D02*
X99080000Y-78420000D01*
X100920000Y-74580000D02*
X99080000Y-74580000D01*
X100000000Y-73630000D02*
X100000000Y-74580000D01*
%TO.C,R1*%
X52000000Y-75370000D02*
X52000000Y-74420000D01*
X51080000Y-74420000D02*
X52920000Y-74420000D01*
X52920000Y-74420000D02*
X52920000Y-70580000D01*
X51080000Y-70580000D02*
X51080000Y-74420000D01*
X52920000Y-70580000D02*
X51080000Y-70580000D01*
X52000000Y-69630000D02*
X52000000Y-70580000D01*
%TO.C,R2*%
X52000000Y-64370000D02*
X52000000Y-63420000D01*
X51080000Y-63420000D02*
X52920000Y-63420000D01*
X52920000Y-63420000D02*
X52920000Y-59580000D01*
X51080000Y-59580000D02*
X51080000Y-63420000D01*
X52920000Y-59580000D02*
X51080000Y-59580000D01*
X52000000Y-58630000D02*
X52000000Y-59580000D01*
%TO.C,R3*%
X57870000Y-54000000D02*
X56920000Y-54000000D01*
X56920000Y-54920000D02*
X56920000Y-53080000D01*
X56920000Y-53080000D02*
X53080000Y-53080000D01*
X53080000Y-54920000D02*
X56920000Y-54920000D01*
X53080000Y-53080000D02*
X53080000Y-54920000D01*
X52130000Y-54000000D02*
X53080000Y-54000000D01*
%TD*%
M02*
