%TF.GenerationSoftware,KiCad,Pcbnew,8.0.0*%
%TF.CreationDate,2024-04-01T00:39:21-03:00*%
%TF.ProjectId,ponderada_sem_6,706f6e64-6572-4616-9461-5f73656d5f36,rev?*%
%TF.SameCoordinates,Original*%
%TF.FileFunction,Soldermask,Bot*%
%TF.FilePolarity,Negative*%
%FSLAX46Y46*%
G04 Gerber Fmt 4.6, Leading zero omitted, Abs format (unit mm)*
G04 Created by KiCad (PCBNEW 8.0.0) date 2024-04-01 00:39:21*
%MOMM*%
%LPD*%
G01*
G04 APERTURE LIST*
%ADD10R,1.050000X1.500000*%
%ADD11O,1.050000X1.500000*%
%ADD12R,1.600000X1.600000*%
%ADD13C,1.600000*%
%ADD14O,1.800000X1.800000*%
%ADD15O,1.500000X1.500000*%
%ADD16O,1.700000X1.700000*%
%ADD17R,1.700000X1.700000*%
%ADD18R,0.850000X0.850000*%
%ADD19R,1.800000X1.800000*%
%ADD20C,1.800000*%
%ADD21C,1.400000*%
%ADD22O,1.400000X1.400000*%
G04 APERTURE END LIST*
D10*
%TO.C,T1*%
X90460000Y-78375000D03*
D11*
X91730000Y-78375000D03*
X93000000Y-78375000D03*
%TD*%
D12*
%TO.C,BZ1*%
X95500000Y-91300000D03*
D13*
X95500000Y-83700000D03*
%TD*%
D14*
%TO.C,U1*%
X70420000Y-46135000D03*
D15*
X70720000Y-49165000D03*
X75570000Y-49165000D03*
D14*
X75870000Y-46135000D03*
D16*
X64255000Y-46005000D03*
X64255000Y-48545000D03*
D17*
X64255000Y-51085000D03*
D16*
X64255000Y-53625000D03*
X64255000Y-56165000D03*
X64255000Y-58705000D03*
X64255000Y-61245000D03*
D17*
X64255000Y-63785000D03*
D16*
X64255000Y-66325000D03*
X64255000Y-68865000D03*
X64255000Y-71405000D03*
X64255000Y-73945000D03*
D17*
X64255000Y-76485000D03*
D16*
X64255000Y-79025000D03*
X64255000Y-81565000D03*
X64255000Y-84105000D03*
X64255000Y-86645000D03*
D17*
X64255000Y-89185000D03*
D16*
X64255000Y-91725000D03*
X64255000Y-94265000D03*
X82035000Y-94265000D03*
X82035000Y-91725000D03*
D17*
X82035000Y-89185000D03*
D16*
X82035000Y-86645000D03*
X82035000Y-84105000D03*
X82035000Y-81565000D03*
X82035000Y-79025000D03*
D17*
X82035000Y-76485000D03*
D16*
X82035000Y-73945000D03*
X82035000Y-71405000D03*
X82035000Y-68865000D03*
X82035000Y-66325000D03*
D17*
X82035000Y-63785000D03*
D16*
X82035000Y-61245000D03*
X82035000Y-58705000D03*
X82035000Y-56165000D03*
X82035000Y-53625000D03*
D17*
X82035000Y-51085000D03*
D16*
X82035000Y-48545000D03*
X82035000Y-46005000D03*
X70605000Y-94035000D03*
D17*
X73145000Y-94035000D03*
D16*
X75685000Y-94035000D03*
%TD*%
D18*
%TO.C,J1*%
X89500000Y-94500000D03*
%TD*%
D19*
%TO.C,D3*%
X55225000Y-74000000D03*
D20*
X57765000Y-74000000D03*
%TD*%
D19*
%TO.C,D2*%
X55225000Y-66500000D03*
D20*
X57765000Y-66500000D03*
%TD*%
D19*
%TO.C,D1*%
X55225000Y-58500000D03*
D20*
X57765000Y-58500000D03*
%TD*%
D21*
%TO.C,R4*%
X96810000Y-73500000D03*
D22*
X89190000Y-73500000D03*
%TD*%
D21*
%TO.C,R5*%
X100000000Y-80310000D03*
D22*
X100000000Y-72690000D03*
%TD*%
D21*
%TO.C,R1*%
X52000000Y-76310000D03*
D22*
X52000000Y-68690000D03*
%TD*%
D21*
%TO.C,R2*%
X52000000Y-65310000D03*
D22*
X52000000Y-57690000D03*
%TD*%
D21*
%TO.C,R3*%
X58810000Y-54000000D03*
D22*
X51190000Y-54000000D03*
%TD*%
M02*
